<svg width="460" height="60" viewBox="0 0 460 60" fill="none" xmlns="http://www.w3.org/2000/svg">
<circle cx="30" cy="30" r="30" fill="#1D8EE6" fill-opacity="0.2"/>
<path d="M24 17.5H15.25L25.575 31.2675L15.8125 42.5H19.125L27.11 33.3138L34 42.5H42.75L31.99 28.1525L41.25 17.5H37.9375L30.455 26.1075L24 17.5ZM35.25 40L20.25 20H22.75L37.75 40H35.25Z" fill="#699BF7"/>
<circle cx="130" cy="30" r="30" fill="#1D8EE6" fill-opacity="0.2"/>
<path d="M140.781 18.2812H119.219C118.7 18.2812 118.281 18.7002 118.281 19.2188V40.7812C118.281 41.2998 118.7 41.7188 119.219 41.7188H140.781C141.3 41.7188 141.719 41.2998 141.719 40.7812V19.2188C141.719 18.7002 141.3 18.2812 140.781 18.2812ZM125.233 38.2529H121.756V27.0674H125.233V38.2529ZM123.496 25.5381C123.097 25.5381 122.708 25.4199 122.376 25.1984C122.045 24.9769 121.786 24.6621 121.634 24.2938C121.481 23.9255 121.441 23.5202 121.519 23.1292C121.597 22.7382 121.789 22.3791 122.071 22.0972C122.353 21.8153 122.712 21.6233 123.103 21.5456C123.494 21.4678 123.899 21.5077 124.267 21.6603C124.636 21.8128 124.951 22.0712 125.172 22.4026C125.394 22.7341 125.512 23.1238 125.512 23.5225C125.509 24.6357 124.606 25.5381 123.496 25.5381ZM138.253 38.2529H134.778V32.8125C134.778 31.5146 134.755 29.8477 132.971 29.8477C131.163 29.8477 130.885 31.2598 130.885 32.7188V38.2529H127.413V27.0674H130.747V28.5967H130.794C131.257 27.7178 132.391 26.7891 134.084 26.7891C137.605 26.7891 138.253 29.1064 138.253 32.1182V38.2529Z" fill="#1D8EE6"/>
<circle cx="230" cy="30" r="30" fill="#60D669" fill-opacity="0.2"/>
<g clip-path="url(#clip0_2909_167381)">
<path d="M215.64 29.8184C215.64 32.339 216.303 34.8002 217.565 36.9695L215.52 44.3813L223.164 42.3925C225.278 43.5346 227.647 44.133 230.055 44.1332H230.061C238.008 44.1332 244.477 37.7166 244.48 29.8297C244.482 26.0079 242.983 22.4142 240.261 19.7105C237.538 17.007 233.918 15.5174 230.06 15.5156C222.112 15.5156 215.644 21.9319 215.64 29.8184" fill="url(#paint0_linear_2909_167381)"/>
<path d="M215.125 29.8158C215.125 32.4271 215.812 34.9763 217.119 37.2233L215 44.9008L222.918 42.8407C225.1 44.021 227.557 44.6434 230.056 44.6443H230.063C238.295 44.6443 244.996 37.9969 245 29.8277C245.001 25.8686 243.449 22.1457 240.629 19.3451C237.809 16.5449 234.059 15.0016 230.063 15C221.829 15 215.129 21.6465 215.125 29.8158ZM219.841 36.8363L219.545 36.3706C218.302 34.4097 217.646 32.1436 217.647 29.8167C217.65 23.0266 223.219 17.5023 230.068 17.5023C233.384 17.5037 236.501 18.7865 238.845 21.114C241.189 23.4416 242.479 26.5358 242.478 29.8267C242.475 36.6169 236.906 42.1419 230.063 42.1419H230.058C227.83 42.1407 225.645 41.547 223.739 40.425L223.285 40.1581L218.586 41.3806L219.841 36.8362V36.8363Z" fill="url(#paint1_linear_2909_167381)"/>
<path d="M226.329 23.6212C226.05 23.0045 225.755 22.9921 225.49 22.9813C225.272 22.972 225.023 22.9727 224.774 22.9727C224.525 22.9727 224.121 23.0656 223.779 23.4359C223.437 23.8066 222.473 24.7024 222.473 26.5244C222.473 28.3465 223.81 30.1073 223.997 30.3546C224.183 30.6015 226.579 34.4601 230.372 35.9445C233.525 37.1781 234.167 36.9328 234.851 36.8709C235.535 36.8093 237.059 35.9753 237.37 35.1106C237.681 34.2459 237.681 33.5048 237.588 33.3499C237.495 33.1956 237.246 33.1029 236.872 32.9178C236.499 32.7326 234.664 31.8366 234.322 31.713C233.98 31.5895 233.731 31.5279 233.482 31.8987C233.233 32.2689 232.519 33.1029 232.301 33.3499C232.083 33.5974 231.865 33.6282 231.492 33.443C231.119 33.2572 229.917 32.8666 228.491 31.6051C227.381 30.6235 226.632 29.4113 226.414 29.0405C226.197 28.6702 226.391 28.4695 226.578 28.285C226.746 28.1191 226.951 27.8526 227.138 27.6364C227.324 27.4201 227.386 27.2658 227.511 27.0188C227.635 26.7716 227.573 26.5553 227.48 26.3701C227.386 26.1849 226.661 24.3534 226.329 23.6212Z" fill="white"/>
</g>
<circle opacity="0.2" cx="330" cy="30" r="30" fill="#1D8EE6"/>
<path d="M332.5 31.875H335.625L336.875 26.875H332.5V24.375C332.5 23.0875 332.5 21.875 335 21.875H336.875V17.675C336.467 17.6213 334.929 17.5 333.304 17.5C329.91 17.5 327.5 19.5712 327.5 23.375V26.875H323.75V31.875H327.5V42.5H332.5V31.875Z" fill="#699BF7"/>
<circle opacity="0.2" cx="430" cy="30" r="30" fill="#1D8EE6"/>
<path d="M444 18L416 28L424 32L436 24L428 34L440 42L444 18Z" stroke="#1D8EE6" stroke-linejoin="round"/>
<defs>
<linearGradient id="paint0_linear_2909_167381" x1="1663.56" y1="2902.09" x2="1663.56" y2="15.5156" gradientUnits="userSpaceOnUse">
<stop stop-color="#1FAF38"/>
<stop offset="1" stop-color="#60D669"/>
</linearGradient>
<linearGradient id="paint1_linear_2909_167381" x1="1715" y1="3005.08" x2="1715" y2="15" gradientUnits="userSpaceOnUse">
<stop stop-color="#F9F9F9"/>
<stop offset="1" stop-color="white"/>
</linearGradient>
<clipPath id="clip0_2909_167381">
<rect width="30" height="30" fill="white" transform="translate(215 15)"/>
</clipPath>
</defs>
</svg>
