<svg width="4" height="15" viewBox="0 0 4 15" fill="none" xmlns="http://www.w3.org/2000/svg">
<path d="M1.83333 8.33398C2.29357 8.33398 2.66667 7.96089 2.66667 7.50065C2.66667 7.04041 2.29357 6.66732 1.83333 6.66732C1.3731 6.66732 1 7.04041 1 7.50065C1 7.96089 1.3731 8.33398 1.83333 8.33398Z" stroke="#344054" stroke-width="1.66667" stroke-linecap="round" stroke-linejoin="round"/>
<path d="M1.83333 2.50065C2.29357 2.50065 2.66667 2.12755 2.66667 1.66732C2.66667 1.20708 2.29357 0.833984 1.83333 0.833984C1.3731 0.833984 1 1.20708 1 1.66732C1 2.12755 1.3731 2.50065 1.83333 2.50065Z" stroke="#344054" stroke-width="1.66667" stroke-linecap="round" stroke-linejoin="round"/>
<path d="M1.83333 14.1673C2.29357 14.1673 2.66667 13.7942 2.66667 13.334C2.66667 12.8737 2.29357 12.5007 1.83333 12.5007C1.3731 12.5007 1 12.8737 1 13.334C1 13.7942 1.3731 14.1673 1.83333 14.1673Z" stroke="#344054" stroke-width="1.66667" stroke-linecap="round" stroke-linejoin="round"/>
</svg>
