<svg width="21" height="22" viewBox="0 0 21 22" fill="none" xmlns="http://www.w3.org/2000/svg">
<path d="M8.82113 3.75867C9.5243 2.39383 11.4757 2.39383 12.1789 3.75867C12.6014 4.57878 13.5546 4.97361 14.4333 4.69247C15.8956 4.2246 17.2754 5.60445 16.8075 7.06674C16.5264 7.94542 16.9212 8.89861 17.7413 9.32113C19.1062 10.0243 19.1062 11.9757 17.7413 12.6789C16.9212 13.1014 16.5264 14.0546 16.8075 14.9333C17.2754 16.3956 15.8956 17.7754 14.4333 17.3075C13.5546 17.0264 12.6014 17.4212 12.1789 18.2413C11.4757 19.6062 9.5243 19.6062 8.82113 18.2413C8.39861 17.4212 7.44542 17.0264 6.56674 17.3075C5.10445 17.7754 3.7246 16.3956 4.19247 14.9333C4.47361 14.0546 4.07878 13.1014 3.25867 12.6789C1.89383 11.9757 1.89383 10.0243 3.25867 9.32113C4.07878 8.89861 4.47361 7.94542 4.19247 7.06674C3.7246 5.60445 5.10445 4.2246 6.56674 4.69247C7.44542 4.97361 8.39861 4.57878 8.82113 3.75867Z" fill="#00A3FF"/>
<path d="M12.9997 8.54148C13.1786 8.33108 13.4554 8.32116 13.6658 8.5C13.8762 8.67884 13.8455 8.95626 13.6667 9.16667L10.3806 13.3238C10.199 13.5375 9.87711 13.56 9.66748 13.3737L7.41748 11.3737C7.21109 11.1902 7.1925 10.8742 7.37596 10.6678C7.55941 10.4614 7.87545 10.4428 8.08184 10.6263L9.94977 12.2867L12.9997 8.54148Z" fill="white"/>
</svg>
