<svg width="16" height="16" viewBox="0 0 16 16" fill="none" xmlns="http://www.w3.org/2000/svg">
<g opacity="0.6" clip-path="url(#clip0_3238_46889)">
<path d="M1.72003 5.75003C1.6729 5.35685 1.64933 5.16026 1.68248 4.99933C1.77706 4.5401 2.18106 4.16773 2.71946 4.04353C2.90814 4 3.14499 4 3.6187 4H12.3819C12.8557 4 13.0925 4 13.2812 4.04353C13.8196 4.16773 14.2236 4.5401 14.3182 4.99933C14.3513 5.16026 14.3277 5.35685 14.2806 5.75003C14.1726 6.65113 13.6664 7.144 12.7011 7.4282L9.92032 8.24687C8.96972 8.52673 8.49439 8.66667 8.00032 8.66667C7.50626 8.66667 7.03092 8.52673 6.0803 8.24687L3.29954 7.4282C2.33428 7.14407 1.82806 6.65113 1.72003 5.75003Z" stroke="#61646B" stroke-width="1.5"/>
<path d="M2.30855 7L2.17772 8.51713C1.94321 11.2367 1.82595 12.5965 2.57823 13.4649C3.33051 14.3333 4.62567 14.3333 7.216 14.3333H8.784C11.3743 14.3333 12.6695 14.3333 13.4218 13.4649C14.1741 12.5965 14.0568 11.2367 13.8223 8.51713L13.6915 7" stroke="#61646B" stroke-width="1.5" stroke-linecap="round" stroke-linejoin="round"/>
<path d="M10.3337 3.66602L10.2821 3.48941C10.0255 2.60938 9.89713 2.16937 9.59159 1.9177C9.28606 1.66602 8.88026 1.66602 8.06853 1.66602H7.93213C7.12039 1.66602 6.71459 1.66602 6.40905 1.9177C6.10351 2.16937 5.97518 2.60938 5.71851 3.48941L5.66699 3.66602" stroke="#61646B" stroke-width="1.5"/>
</g>
<defs>
<clipPath id="clip0_3238_46889">
<rect width="16" height="16" fill="white"/>
</clipPath>
</defs>
</svg>
