<svg width="20" height="21" viewBox="0 0 20 21" fill="none" xmlns="http://www.w3.org/2000/svg">
<path d="M13.9584 3.4665V2.1665C13.9584 1.82484 13.6751 1.5415 13.3334 1.5415C12.9918 1.5415 12.7084 1.82484 12.7084 2.1665V3.4165H7.29178V2.1665C7.29178 1.82484 7.00844 1.5415 6.66678 1.5415C6.32511 1.5415 6.04178 1.82484 6.04178 2.1665V3.4665C3.79178 3.67484 2.70011 5.0165 2.53344 7.00817C2.51678 7.24984 2.71678 7.44983 2.95011 7.44983H17.0501C17.2918 7.44983 17.4918 7.2415 17.4668 7.00817C17.3001 5.0165 16.2084 3.67484 13.9584 3.4665Z" fill="#1D8EE6"/>
<path opacity="0.4" d="M16.6667 8.7002C17.125 8.7002 17.5 9.0752 17.5 9.53353V14.6669C17.5 17.1669 16.25 18.8335 13.3333 18.8335H6.66667C3.75 18.8335 2.5 17.1669 2.5 14.6669V9.53353C2.5 9.0752 2.875 8.7002 3.33333 8.7002H16.6667Z" fill="#1D8EE6"/>
<path d="M7.08333 13.0002C6.86667 13.0002 6.65 12.9085 6.49167 12.7585C6.34167 12.6002 6.25 12.3836 6.25 12.1669C6.25 11.9502 6.34167 11.7336 6.49167 11.5752C6.725 11.3419 7.09167 11.2669 7.4 11.4002C7.50833 11.4419 7.6 11.5002 7.675 11.5752C7.825 11.7336 7.91667 11.9502 7.91667 12.1669C7.91667 12.3836 7.825 12.6002 7.675 12.7585C7.51667 12.9085 7.3 13.0002 7.08333 13.0002Z" fill="#1D8EE6"/>
<path d="M10.0001 13.0002C9.78341 13.0002 9.56675 12.9085 9.40842 12.7585C9.25842 12.6002 9.16675 12.3836 9.16675 12.1669C9.16675 11.9502 9.25842 11.7336 9.40842 11.5752C9.48342 11.5002 9.57508 11.4419 9.68341 11.4002C9.99175 11.2669 10.3584 11.3419 10.5917 11.5752C10.7417 11.7336 10.8334 11.9502 10.8334 12.1669C10.8334 12.3836 10.7417 12.6002 10.5917 12.7585C10.5501 12.7919 10.5084 12.8252 10.4667 12.8585C10.4167 12.8919 10.3667 12.9169 10.3167 12.9336C10.2667 12.9586 10.2167 12.9752 10.1667 12.9836C10.1084 12.9919 10.0584 13.0002 10.0001 13.0002Z" fill="#1D8EE6"/>
<path d="M12.9166 13.0002C12.6999 13.0002 12.4833 12.9085 12.3249 12.7585C12.1749 12.6002 12.0833 12.3835 12.0833 12.1668C12.0833 11.9502 12.1749 11.7335 12.3249 11.5752C12.4083 11.5002 12.4916 11.4418 12.5999 11.4002C12.7499 11.3335 12.9166 11.3168 13.0833 11.3502C13.1333 11.3585 13.1833 11.3752 13.2333 11.4002C13.2833 11.4168 13.3333 11.4419 13.3833 11.4752C13.4249 11.5085 13.4666 11.5418 13.5083 11.5752C13.6583 11.7335 13.7499 11.9502 13.7499 12.1668C13.7499 12.3835 13.6583 12.6002 13.5083 12.7585C13.4666 12.7918 13.4249 12.8252 13.3833 12.8585C13.3333 12.8918 13.2833 12.9169 13.2333 12.9335C13.1833 12.9585 13.1333 12.9752 13.0833 12.9835C13.0249 12.9918 12.9666 13.0002 12.9166 13.0002Z" fill="#1D8EE6"/>
<path d="M7.08333 15.9167C6.975 15.9167 6.86667 15.8917 6.76667 15.85C6.65833 15.8084 6.575 15.75 6.49167 15.675C6.34167 15.5167 6.25 15.3 6.25 15.0833C6.25 14.8667 6.34167 14.65 6.49167 14.4917C6.575 14.4167 6.65833 14.3583 6.76667 14.3167C6.91667 14.25 7.08333 14.2333 7.25 14.2667C7.3 14.275 7.35 14.2917 7.4 14.3167C7.45 14.3333 7.5 14.3584 7.55 14.3917C7.59167 14.425 7.63333 14.4584 7.675 14.4917C7.825 14.65 7.91667 14.8667 7.91667 15.0833C7.91667 15.3 7.825 15.5167 7.675 15.675C7.63333 15.7083 7.59167 15.75 7.55 15.775C7.5 15.8083 7.45 15.8334 7.4 15.85C7.35 15.875 7.3 15.8917 7.25 15.9C7.19167 15.9084 7.14167 15.9167 7.08333 15.9167Z" fill="#1D8EE6"/>
<path d="M10.0001 15.9165C9.78341 15.9165 9.56675 15.8248 9.40842 15.6748C9.25842 15.5165 9.16675 15.2998 9.16675 15.0832C9.16675 14.8665 9.25842 14.6498 9.40842 14.4915C9.71675 14.1832 10.2834 14.1832 10.5917 14.4915C10.7417 14.6498 10.8334 14.8665 10.8334 15.0832C10.8334 15.2998 10.7417 15.5165 10.5917 15.6748C10.4334 15.8248 10.2167 15.9165 10.0001 15.9165Z" fill="#1D8EE6"/>
<path d="M12.9166 15.9165C12.6999 15.9165 12.4833 15.8248 12.3249 15.6748C12.1749 15.5165 12.0833 15.2998 12.0833 15.0832C12.0833 14.8665 12.1749 14.6498 12.3249 14.4915C12.6333 14.1832 13.1999 14.1832 13.5083 14.4915C13.6583 14.6498 13.7499 14.8665 13.7499 15.0832C13.7499 15.2998 13.6583 15.5165 13.5083 15.6748C13.3499 15.8248 13.1333 15.9165 12.9166 15.9165Z" fill="#1D8EE6"/>
</svg>
