<svg width="48" height="48" viewBox="0 0 48 48" fill="none" xmlns="http://www.w3.org/2000/svg">
<path fill-rule="evenodd" clip-rule="evenodd" d="M30.2729 40.7234L32.6997 44.9268C32.9758 45.4051 33.5874 45.569 34.0657 45.2929L35.7978 44.2929C36.2761 44.0167 36.4399 43.4051 36.1638 42.9268L33.7264 38.7051C32.6711 39.5142 31.5121 40.1948 30.2729 40.7234ZM14.2859 38.7149C15.342 39.5229 16.5016 40.2023 17.7415 40.7298L15.2833 44.9874C15.0072 45.4657 14.3956 45.6296 13.9173 45.3534L12.1852 44.3534C11.7069 44.0773 11.5431 43.4657 11.8192 42.9874L14.2859 38.7149Z" fill="#FFBE0B"/>
<path opacity="0.3" fill-rule="evenodd" clip-rule="evenodd" d="M11.6583 4.70301C12.2441 4.11723 13.1938 4.11723 13.7796 4.70301L15.9009 6.82433C16.4867 7.41012 16.4867 8.35987 15.9009 8.94565L9.53696 15.3096C8.95118 15.8954 8.00143 15.8954 7.41564 15.3096L5.29432 13.1883C4.70853 12.6025 4.70853 11.6528 5.29432 11.067L11.6583 4.70301ZM34.9561 5.44715C35.5419 4.86137 36.4917 4.86137 37.0775 5.44715L42.6974 11.0671C43.2832 11.6529 43.2832 12.6027 42.6974 13.1884L40.5761 15.3098C39.9903 15.8955 39.0406 15.8955 38.4548 15.3098L32.8348 9.68979C32.249 9.10401 32.249 8.15426 32.8348 7.56847L34.9561 5.44715ZM24.0002 41.9998C15.1636 41.9998 8.00019 34.8363 8.00019 25.9998C8.00019 17.1632 15.1636 9.99977 24.0002 9.99977C32.8367 9.99977 40.0002 17.1632 40.0002 25.9998C40.0002 34.8363 32.8367 41.9998 24.0002 41.9998Z" fill="#FFBE0B"/>
<path fill-rule="evenodd" clip-rule="evenodd" d="M22.9646 15.4617C22.9847 15.2012 23.2019 15 23.4632 15H24.5476C24.8045 15 25.0196 15.1946 25.0452 15.4502L26.0001 25L32.7482 28.856C32.904 28.9451 33.0001 29.1107 33.0001 29.2902V30.3454C33.0001 30.6751 32.6866 30.9145 32.3686 30.8278L22.3988 28.1087C22.1674 28.0456 22.0134 27.8271 22.0318 27.588L22.9646 15.4617Z" fill="#FFBE0B"/>
</svg>
