<svg width="34" height="34" viewBox="0 0 34 34" fill="none" xmlns="http://www.w3.org/2000/svg">
<path d="M16.3476 5.67969C10.2753 5.67969 5.35889 10.6017 5.35889 16.6684C5.35889 22.7407 10.2809 27.6572 16.3476 27.6572C22.4199 27.6572 27.3364 22.7352 27.3364 16.6684C27.3419 10.6017 22.4199 5.67969 16.3476 5.67969ZM22.6688 14.6609L16.5799 20.9047C16.2868 21.2088 15.8776 21.3747 15.4573 21.3747C15.4407 21.3747 15.4186 21.3747 15.402 21.3747C14.9595 21.3581 14.5448 21.1591 14.2627 20.8217L11.033 17.0003C10.6514 16.5468 10.7067 15.8721 11.1602 15.4905C11.6137 15.1089 12.2884 15.1642 12.67 15.6177L15.4904 18.958L21.1369 13.1677C21.5517 12.7419 22.2264 12.7364 22.6522 13.1511C23.0725 13.5549 23.0836 14.2351 22.6688 14.6609Z" fill="#1EAA79"/>
</svg>
