<svg width="123" height="38" viewBox="0 0 123 38" fill="none" xmlns="http://www.w3.org/2000/svg">
<rect width="123" height="38" fill="#FAFAFA"/>
<path d="M30.0007 15.666V10.666L28.334 12.3327" stroke="#D9D9D9" stroke-width="1.5" stroke-linecap="round" stroke-linejoin="round"/>
<path d="M30 10.666L31.6667 12.3327" stroke="#D9D9D9" stroke-width="1.5" stroke-linecap="round" stroke-linejoin="round"/>
<path d="M25.8333 19C22.5 19 22.5 20.4917 22.5 22.3333V23.1667C22.5 25.4667 22.5 27.3333 26.6667 27.3333H33.3333C36.6667 27.3333 37.5 25.4667 37.5 23.1667V22.3333C37.5 20.4917 37.5 19 34.1667 19C33.3333 19 33.1 19.175 32.6667 19.5L31.8167 20.4C30.8333 21.45 29.1667 21.45 28.175 20.4L27.3333 19.5C26.9 19.175 26.6667 19 25.8333 19Z" stroke="#D9D9D9" stroke-width="1.5" stroke-miterlimit="10" stroke-linecap="round" stroke-linejoin="round"/>
<path d="M24.166 18.9999V17.3332C24.166 15.6582 24.166 14.2749 26.666 14.0332" stroke="#D9D9D9" stroke-width="1.5" stroke-miterlimit="10" stroke-linecap="round" stroke-linejoin="round"/>
<path d="M35.834 18.9999V17.3332C35.834 15.6582 35.834 14.2749 33.334 14.0332" stroke="#D9D9D9" stroke-width="1.5" stroke-miterlimit="10" stroke-linecap="round" stroke-linejoin="round"/>
<path d="M58.258 19.002C58.7807 19.0953 59.224 19.3707 59.588 19.828C59.952 20.2853 60.134 20.8033 60.134 21.382C60.134 21.8767 60.0033 22.3247 59.742 22.726C59.49 23.118 59.1213 23.4307 58.636 23.664C58.1507 23.888 57.586 24 56.942 24H53.05V14.27H56.76C57.4227 14.27 57.992 14.382 58.468 14.606C58.944 14.83 59.3033 15.1333 59.546 15.516C59.7887 15.8893 59.91 16.3093 59.91 16.776C59.91 17.336 59.7607 17.8027 59.462 18.176C59.1633 18.5493 58.762 18.8247 58.258 19.002ZM54.646 18.358H56.62C57.1427 18.358 57.5487 18.2413 57.838 18.008C58.1367 17.7653 58.286 17.42 58.286 16.972C58.286 16.5333 58.1367 16.1927 57.838 15.95C57.5487 15.698 57.1427 15.572 56.62 15.572H54.646V18.358ZM56.802 22.698C57.3433 22.698 57.768 22.5673 58.076 22.306C58.384 22.0447 58.538 21.6807 58.538 21.214C58.538 20.738 58.3747 20.36 58.048 20.08C57.7213 19.8 57.2873 19.66 56.746 19.66H54.646V22.698H56.802ZM63.4644 17.406C63.6977 17.014 64.0057 16.7107 64.3884 16.496C64.7804 16.272 65.2424 16.16 65.7744 16.16V17.812H65.3684C64.743 17.812 64.267 17.9707 63.9404 18.288C63.623 18.6053 63.4644 19.156 63.4644 19.94V24H61.8684V16.286H63.4644V17.406ZM70.5874 24.126C69.8594 24.126 69.2014 23.9627 68.6134 23.636C68.0254 23.3 67.5634 22.8333 67.2274 22.236C66.8914 21.6293 66.7234 20.9293 66.7234 20.136C66.7234 19.352 66.8961 18.6567 67.2414 18.05C67.5867 17.4433 68.0581 16.9767 68.6554 16.65C69.2527 16.3233 69.9201 16.16 70.6574 16.16C71.3947 16.16 72.0621 16.3233 72.6594 16.65C73.2567 16.9767 73.7281 17.4433 74.0734 18.05C74.4187 18.6567 74.5914 19.352 74.5914 20.136C74.5914 20.92 74.4141 21.6153 74.0594 22.222C73.7047 22.8287 73.2194 23.3 72.6034 23.636C71.9967 23.9627 71.3247 24.126 70.5874 24.126ZM70.5874 22.74C70.9981 22.74 71.3807 22.642 71.7354 22.446C72.0994 22.25 72.3934 21.956 72.6174 21.564C72.8414 21.172 72.9534 20.696 72.9534 20.136C72.9534 19.576 72.8461 19.1047 72.6314 18.722C72.4167 18.33 72.1321 18.036 71.7774 17.84C71.4227 17.644 71.0401 17.546 70.6294 17.546C70.2187 17.546 69.8361 17.644 69.4814 17.84C69.1361 18.036 68.8607 18.33 68.6554 18.722C68.4501 19.1047 68.3474 19.576 68.3474 20.136C68.3474 20.9667 68.5574 21.6107 68.9774 22.068C69.4067 22.516 69.9434 22.74 70.5874 22.74ZM86.5291 16.286L84.1351 24H82.4551L80.9011 18.302L79.3471 24H77.6671L75.2591 16.286H76.8831L78.4931 22.488L80.1311 16.286H81.7971L83.3651 22.46L84.9611 16.286H86.5291ZM90.5219 24.126C89.9152 24.126 89.3692 24.0187 88.8839 23.804C88.4079 23.58 88.0299 23.2813 87.7499 22.908C87.4699 22.5253 87.3205 22.1007 87.3019 21.634H88.9539C88.9819 21.9607 89.1359 22.236 89.4159 22.46C89.7052 22.6747 90.0645 22.782 90.4939 22.782C90.9419 22.782 91.2872 22.698 91.5299 22.53C91.7819 22.3527 91.9079 22.1287 91.9079 21.858C91.9079 21.5687 91.7679 21.354 91.4879 21.214C91.2172 21.074 90.7832 20.92 90.1859 20.752C89.6072 20.5933 89.1359 20.4393 88.7719 20.29C88.4079 20.1407 88.0905 19.912 87.8199 19.604C87.5585 19.296 87.4279 18.89 87.4279 18.386C87.4279 17.9753 87.5492 17.602 87.7919 17.266C88.0345 16.9207 88.3799 16.65 88.8279 16.454C89.2852 16.258 89.8079 16.16 90.3959 16.16C91.2732 16.16 91.9779 16.384 92.5099 16.832C93.0512 17.2707 93.3405 17.8727 93.3779 18.638H91.7819C91.7539 18.2927 91.6139 18.0173 91.3619 17.812C91.1099 17.6067 90.7692 17.504 90.3399 17.504C89.9199 17.504 89.5979 17.5833 89.3739 17.742C89.1499 17.9007 89.0379 18.1107 89.0379 18.372C89.0379 18.5773 89.1125 18.75 89.2619 18.89C89.4112 19.03 89.5932 19.142 89.8079 19.226C90.0225 19.3007 90.3399 19.3987 90.7599 19.52C91.3199 19.6693 91.7772 19.8233 92.1319 19.982C92.4959 20.1313 92.8085 20.3553 93.0699 20.654C93.3312 20.9527 93.4665 21.3493 93.4759 21.844C93.4759 22.2827 93.3545 22.6747 93.1119 23.02C92.8692 23.3653 92.5239 23.636 92.0759 23.832C91.6372 24.028 91.1192 24.126 90.5219 24.126ZM102.27 19.954C102.27 20.2433 102.252 20.5047 102.214 20.738H96.3204C96.3671 21.354 96.5957 21.8487 97.0064 22.222C97.4171 22.5953 97.9211 22.782 98.5184 22.782C99.3771 22.782 99.9837 22.4227 100.338 21.704H102.06C101.827 22.4133 101.402 22.9967 100.786 23.454C100.18 23.902 99.4237 24.126 98.5184 24.126C97.7811 24.126 97.1184 23.9627 96.5304 23.636C95.9517 23.3 95.4944 22.8333 95.1584 22.236C94.8317 21.6293 94.6684 20.9293 94.6684 20.136C94.6684 19.3427 94.8271 18.6473 95.1444 18.05C95.4711 17.4433 95.9237 16.9767 96.5024 16.65C97.0904 16.3233 97.7624 16.16 98.5184 16.16C99.2464 16.16 99.8951 16.3187 100.464 16.636C101.034 16.9533 101.477 17.4013 101.794 17.98C102.112 18.5493 102.27 19.2073 102.27 19.954ZM100.604 19.45C100.595 18.862 100.385 18.3907 99.9744 18.036C99.5637 17.6813 99.0551 17.504 98.4484 17.504C97.8977 17.504 97.4264 17.6813 97.0344 18.036C96.6424 18.3813 96.4091 18.8527 96.3344 19.45H100.604Z" fill="#D9D9D9"/>
</svg>
