<svg width="21" height="22" viewBox="0 0 21 22" fill="none" xmlns="http://www.w3.org/2000/svg">
<path opacity="0.3" fill-rule="evenodd" clip-rule="evenodd" d="M17.9558 1.31776C16.9911 0.35711 15.4276 0.357698 14.4637 1.31907L7.00827 8.756C6.41197 9.35071 6.06141 10.1468 6.02593 10.9868L5.91979 13.4995C5.87147 14.6436 6.78913 15.5975 7.93822 15.5975L10.4103 15.5977C11.318 15.5977 12.1872 15.2326 12.8209 14.5851L20.2164 7.0057C21.1604 6.04109 21.1505 4.49918 20.1941 3.54673L17.9558 1.31776ZM15.4164 2.26784C15.8546 1.83085 16.5653 1.83058 17.0037 2.26724L19.2421 4.49621C19.6768 4.92914 19.6813 5.63001 19.2522 6.06847L17.7669 7.58602L13.9226 3.75773L15.4164 2.26784ZM12.9705 4.70722L7.96101 9.70477C7.60323 10.0616 7.39289 10.5393 7.3716 11.0432L7.26547 13.5559C7.24936 13.9373 7.55525 14.2553 7.93828 14.2553L10.4104 14.2554C10.955 14.2554 11.4765 14.0363 11.8567 13.6478L16.8264 8.54697L12.9705 4.70722Z" fill="#272848"/>
<path d="M18.918 11.5977V15.5977C18.918 18.3591 16.6794 20.5977 13.918 20.5977H5.91797C3.15655 20.5977 0.917969 18.3591 0.917969 15.5977V7.59766C0.917969 4.83623 3.15655 2.59766 5.91797 2.59766H9.91797" stroke="#AFB1B6" stroke-width="1.5" stroke-linecap="round"/>
<path d="M18.918 11.5977V15.5977C18.918 18.3591 16.6794 20.5977 13.918 20.5977H5.91797C3.15655 20.5977 0.917969 18.3591 0.917969 15.5977V7.59766C0.917969 4.83623 3.15655 2.59766 5.91797 2.59766H9.91797" stroke="black" stroke-opacity="0.2" stroke-width="1.5" stroke-linecap="round"/>
</svg>
