<svg width="82" height="82" viewBox="0 0 82 82" fill="none" xmlns="http://www.w3.org/2000/svg">
<path opacity="0.4" d="M61.0765 26.9611L60.6041 26.6912L55.9138 23.9917L46.2294 18.3903C43.26 16.6694 38.7383 16.6694 35.7689 18.3903L26.0845 23.9917L21.3942 26.7249L20.7868 27.0624C14.7467 31.1116 14.3418 31.854 14.3418 38.3664V53.9222C14.3418 60.4347 14.7467 61.177 20.9218 65.3275L35.7689 73.8983C37.2536 74.7757 39.1095 75.1806 40.9992 75.1806C42.855 75.1806 44.7447 74.7757 46.2294 73.8983L61.2115 65.2263C67.2516 61.177 67.6565 60.4347 67.6565 53.9222V38.3664C67.6565 31.854 67.2516 31.1116 61.0765 26.9611Z" fill="#1EAA79"/>
<path d="M21.3926 26.7247L26.0829 23.9915L35.3286 18.66L35.7673 18.39C38.7367 16.6691 43.2584 16.6691 46.2278 18.39L46.6665 18.66L55.9122 23.9915L60.6025 26.6909V19.4698C60.6025 11.8776 56.4183 7.69336 48.826 7.69336H33.1353C25.543 7.69336 21.3926 11.8776 21.3926 19.4698V26.7247Z" fill="#1EAA79"/>
<path d="M50.5818 45.9565L48.4897 48.521C48.1522 48.8922 47.916 49.6345 47.9498 50.1407L48.1522 53.4475C48.2872 55.4722 46.8362 56.5182 44.9466 55.7758L41.876 54.5611C41.4035 54.3924 40.5937 54.3924 40.1213 54.5611L37.0506 55.7758C35.161 56.5182 33.71 55.4722 33.845 53.4475L34.0475 50.1407C34.0812 49.6345 33.845 48.8922 33.5076 48.521L31.4155 45.9565C30.0995 44.4043 30.6731 42.6834 32.6302 42.1772L35.8359 41.3674C36.342 41.2324 36.9494 40.76 37.2194 40.3213L39.0078 37.5544C40.1213 35.8334 41.876 35.8334 42.9895 37.5544L44.7779 40.3213C45.0478 40.76 45.6552 41.2324 46.1614 41.3674L49.367 42.1772C51.3241 42.6834 51.8978 44.4043 50.5818 45.9565Z" fill="#1EAA79"/>
</svg>
