 <svg width="93" height="40" viewBox="0 0 93 40" fill="none" xmlns="http://www.w3.org/2000/svg">
<rect x="0.5" y="0.5" width="92" height="39" rx="7.5" fill="white"/>
<rect x="0.5" y="0.5" width="92" height="39" rx="7.5" stroke="#EFEFEF"/>
<path d="M21 20H31M18.5 15H33.5M23.5 25H28.5" stroke="#344054" stroke-width="1.67" stroke-linecap="round" stroke-linejoin="round"/>
<path d="M45.232 14.588H51.378V15.68H46.408V18.956H51.028V20.048H46.408V24.5H45.232V14.588ZM52.9133 17.948H54.0053V24.5H52.9133V17.948ZM52.6613 15.386C52.6613 15.1713 52.736 14.9847 52.8853 14.826C53.044 14.6673 53.2353 14.588 53.4593 14.588C53.6833 14.588 53.87 14.6673 54.0193 14.826C54.178 14.9847 54.2573 15.1713 54.2573 15.386C54.2573 15.6193 54.1826 15.8107 54.0333 15.96C53.884 16.1093 53.6926 16.184 53.4593 16.184C53.226 16.184 53.0346 16.1093 52.8853 15.96C52.736 15.8107 52.6613 15.6193 52.6613 15.386ZM56.2766 13.916H57.3686V24.5H56.2766V13.916ZM63.1395 18.872H61.2075V22.148C61.2075 22.3627 61.2122 22.5633 61.2215 22.75C61.2309 22.9273 61.2682 23.086 61.3335 23.226C61.3989 23.3567 61.4969 23.464 61.6275 23.548C61.7582 23.6227 61.9449 23.66 62.1875 23.66C62.3462 23.66 62.5095 23.6413 62.6775 23.604C62.8455 23.5667 63.0042 23.5107 63.1535 23.436L63.1955 24.43C63.0089 24.514 62.7989 24.5747 62.5655 24.612C62.3415 24.6493 62.1269 24.668 61.9215 24.668C61.5295 24.668 61.2169 24.6167 60.9835 24.514C60.7502 24.4113 60.5682 24.2667 60.4375 24.08C60.3069 23.8933 60.2182 23.6647 60.1715 23.394C60.1342 23.114 60.1155 22.806 60.1155 22.47V18.872H58.6875V17.948H60.1155V16.086H61.2075V17.948H63.1395V18.872ZM70.3294 23.31C69.9374 23.814 69.5081 24.1687 69.0414 24.374C68.5747 24.57 68.0334 24.668 67.4174 24.668C66.9041 24.668 66.4421 24.5793 66.0314 24.402C65.6207 24.2153 65.2707 23.968 64.9814 23.66C64.7014 23.352 64.4821 22.988 64.3234 22.568C64.1741 22.148 64.0994 21.7 64.0994 21.224C64.0994 20.72 64.1834 20.258 64.3514 19.838C64.5194 19.4087 64.7527 19.0447 65.0514 18.746C65.3501 18.438 65.7047 18.2 66.1154 18.032C66.5261 17.864 66.9741 17.78 67.4594 17.78C67.9167 17.78 68.3367 17.8593 68.7194 18.018C69.1021 18.1673 69.4287 18.3913 69.6994 18.69C69.9794 18.9793 70.1941 19.3387 70.3434 19.768C70.4927 20.188 70.5674 20.6687 70.5674 21.21V21.56H65.2754C65.2941 21.84 65.3594 22.1107 65.4714 22.372C65.5927 22.624 65.7467 22.848 65.9334 23.044C66.1201 23.2307 66.3394 23.38 66.5914 23.492C66.8434 23.604 67.1187 23.66 67.4174 23.66C67.8934 23.66 68.2947 23.576 68.6214 23.408C68.9481 23.24 69.2421 22.9927 69.5034 22.666L70.3294 23.31ZM69.3914 20.636C69.3727 20.076 69.1907 19.628 68.8454 19.292C68.5001 18.956 68.0241 18.788 67.4174 18.788C66.8107 18.788 66.3207 18.956 65.9474 19.292C65.5741 19.628 65.3501 20.076 65.2754 20.636H69.3914ZM72.2567 19.502C72.2567 19.2033 72.2474 18.9233 72.2287 18.662C72.21 18.4007 72.2007 18.1627 72.2007 17.948H73.2367C73.2367 18.1253 73.2414 18.3027 73.2507 18.48C73.26 18.6573 73.2647 18.8393 73.2647 19.026H73.2927C73.3674 18.8673 73.47 18.7133 73.6007 18.564C73.7407 18.4147 73.904 18.284 74.0907 18.172C74.2774 18.0507 74.4874 17.9573 74.7207 17.892C74.954 17.8173 75.206 17.78 75.4767 17.78C75.5514 17.78 75.626 17.7847 75.7007 17.794C75.7754 17.8033 75.85 17.822 75.9247 17.85L75.8547 18.956C75.668 18.9 75.472 18.872 75.2667 18.872C74.5947 18.872 74.1047 19.0913 73.7967 19.53C73.498 19.9593 73.3487 20.552 73.3487 21.308V24.5H72.2567V19.502Z" fill="#344054"/>
</svg>