<svg width="20" height="20" viewBox="0 0 20 20" fill="none" xmlns="http://www.w3.org/2000/svg">
<path opacity="0.3" fill-rule="evenodd" clip-rule="evenodd" d="M5.66663 13.334C4.8382 13.334 4.16663 14.0056 4.16663 14.834V16.0007C4.16663 16.8291 4.8382 17.5007 5.66663 17.5007H5.99996C6.82839 17.5007 7.49996 16.8291 7.49996 16.0007V14.834C7.49996 14.0056 6.82839 13.334 5.99996 13.334H5.66663ZM14 13.334C13.1715 13.334 12.5 14.0056 12.5 14.834V16.0007C12.5 16.8291 13.1715 17.5007 14 17.5007H14.3333C15.1617 17.5007 15.8333 16.8291 15.8333 16.0007V14.834C15.8333 14.0056 15.1617 13.334 14.3333 13.334H14Z" fill="#535768"/>
<path fill-rule="evenodd" clip-rule="evenodd" d="M4.5 3.33398C3.39543 3.33398 2.5 4.22942 2.5 5.33398V13.834C2.5 14.9386 3.39543 15.834 4.5 15.834H15.5C16.6046 15.834 17.5 14.9386 17.5 13.834V5.33398C17.5 4.22941 16.6046 3.33398 15.5 3.33398H4.5ZM12.9167 12.5007C14.5275 12.5007 15.8333 11.1948 15.8333 9.58398C15.8333 7.97315 14.5275 6.66732 12.9167 6.66732C11.3058 6.66732 10 7.97315 10 9.58398C10 11.1948 11.3058 12.5007 12.9167 12.5007ZM14.1667 9.58398C14.1667 10.2743 13.607 10.834 12.9167 10.834C12.2263 10.834 11.6667 10.2743 11.6667 9.58398C11.6667 8.89363 12.2263 8.33398 12.9167 8.33398C13.607 8.33398 14.1667 8.89363 14.1667 9.58398ZM5.83333 6.66732C5.3731 6.66732 5 7.04041 5 7.50065V9.16732C5 9.62755 5.3731 10.0007 5.83333 10.0007C6.29357 10.0007 6.66667 9.62756 6.66667 9.16732V7.50065C6.66667 7.04041 6.29357 6.66732 5.83333 6.66732Z" fill="#535768"/>
</svg>
