<svg width="870" height="517" viewBox="0 0 870 517" fill="none" xmlns="http://www.w3.org/2000/svg">
<g filter="url(#filter0_d_651_57326)">
<path d="M209.267 25.8279C123.384 93.8945 -50.3101 230.817 -58.0212 233.973L-244.198 377.906L344.947 701.884L782.892 324.079L209.267 25.8279Z" fill="url(#paint0_linear_651_57326)"/>
</g>
<g opacity="0.3" filter="url(#filter1_f_651_57326)">
<ellipse cx="472.5" cy="357" rx="77.5" ry="37" fill="#130F49"/>
</g>
<path fill-rule="evenodd" clip-rule="evenodd" d="M313.078 231.184C320.233 204.482 347.679 188.636 374.381 195.791L455.809 217.609C482.511 224.764 498.357 252.21 491.202 278.912L480.293 319.626C473.138 346.328 445.692 362.174 418.99 355.02L337.562 333.201C310.86 326.046 295.014 298.6 302.169 271.898L313.078 231.184ZM407.047 267.272C408.177 263.056 405.675 258.723 401.459 257.593C397.243 256.463 392.909 258.965 391.78 263.181L386.325 283.538C385.195 287.755 387.697 292.088 391.913 293.218C396.13 294.348 400.463 291.846 401.593 287.629L407.047 267.272Z" fill="#1D8EE6"/>
<path opacity="0.3" d="M453.765 225.244L459.22 204.887C465.245 182.401 451.901 159.288 429.415 153.263V153.263C406.929 147.238 383.816 160.582 377.791 183.068L372.337 203.425" stroke="#1D8EE6" stroke-width="15.8064"/>
<g clip-path="url(#clip0_651_57326)">
<g filter="url(#filter2_bdi_651_57326)">
<path d="M495.709 268.973C495.132 270.036 494.446 271.048 493.779 272.067C493.63 272.292 493.383 272.485 493.139 272.63C492.022 273.297 490.881 273.284 489.739 272.675C487.803 271.641 485.868 270.603 483.933 269.567C483.766 269.478 483.566 269.605 483.566 269.793V269.803C483.566 271.883 483.573 273.963 483.565 276.044C483.559 277.761 482.237 278.987 480.392 278.998C479.5 279.003 478.608 278.999 477.716 278.998C475.732 278.997 474.434 277.791 474.433 275.945C474.432 273.888 474.433 271.829 474.433 269.771C474.433 269.593 474.245 269.474 474.086 269.555C474.07 269.564 474.053 269.572 474.036 269.581C472.111 270.612 470.189 271.648 468.261 272.674C466.662 273.523 464.966 273.176 463.993 271.77C463.429 270.952 462.907 270.106 462.42 269.246C462.215 268.885 462.067 268.459 462.043 268.054C461.97 266.841 462.544 265.934 463.685 265.326C465.623 264.294 467.551 263.245 469.484 262.203C469.646 262.116 469.639 261.88 469.477 261.792C468.905 261.482 468.357 261.187 467.81 260.89C466.313 260.076 464.793 259.295 463.325 258.437C462.101 257.722 461.645 256.214 462.296 255.015C462.873 253.953 463.56 252.94 464.228 251.923C464.377 251.697 464.627 251.507 464.872 251.362C465.991 250.702 467.131 250.718 468.271 251.329C470.196 252.361 472.122 253.392 474.047 254.423C474.057 254.428 474.067 254.434 474.078 254.439C474.239 254.523 474.433 254.399 474.433 254.217C474.433 252.136 474.437 250.056 474.431 247.975C474.428 247.15 474.714 246.439 475.336 245.847C475.556 245.637 475.801 245.473 476.066 245.342C476.701 245.028 477.43 245 478.139 245H480.858C480.903 245 480.94 245.029 480.984 245.036C482.37 245.222 483.617 246.448 483.579 248.075C483.53 250.122 483.566 252.17 483.566 254.217C483.566 254.399 483.76 254.524 483.922 254.439C483.932 254.434 483.942 254.428 483.952 254.423C485.889 253.387 487.82 252.344 489.76 251.315C491.341 250.477 493.041 250.83 494 252.22C494.57 253.048 495.098 253.903 495.591 254.772C495.791 255.124 495.933 255.539 495.957 255.935C496.032 257.146 495.468 258.057 494.325 258.667C492.377 259.705 490.437 260.758 488.496 261.805C488.341 261.888 488.349 262.113 488.503 262.197C488.968 262.448 489.404 262.683 489.84 262.92C491.46 263.801 493.102 264.649 494.694 265.574C495.896 266.273 496.351 267.795 495.709 268.973Z" fill="url(#paint1_linear_651_57326)" shape-rendering="crispEdges"/>
<path d="M495.059 268.62L495.059 268.62C495.498 267.814 495.199 266.724 494.322 266.213L495.059 268.62ZM495.059 268.62C494.575 269.512 494.011 270.368 493.429 271.253C493.34 271.388 493.25 271.524 493.16 271.661C493.101 271.75 492.965 271.873 492.76 271.995L492.76 271.995M495.059 268.62L492.76 271.995M469.083 262.42C468.646 262.656 468.209 262.892 467.772 263.128C466.411 263.864 465.05 264.599 463.685 265.326C462.544 265.934 461.97 266.841 462.043 268.054C462.067 268.459 462.215 268.885 462.42 269.246L469.083 262.42ZM469.083 262.42C469.097 262.427 469.111 262.435 469.125 262.442L469.16 262.378M469.083 262.42L469.484 262.203M469.484 262.203L469.835 262.854C469.835 262.855 469.834 262.855 469.834 262.855C469.265 263.162 468.695 263.47 468.125 263.778C466.764 264.513 465.4 265.251 464.033 265.979L464.033 265.979C463.551 266.236 463.233 266.531 463.04 266.848C462.85 267.16 462.753 267.536 462.781 268.009L462.781 268.01C462.797 268.277 462.9 268.594 463.063 268.882C463.541 269.726 464.051 270.552 464.601 271.349L469.173 261.628C469.174 261.628 469.175 261.628 469.175 261.629C469.275 261.683 469.376 261.737 469.477 261.792C469.639 261.88 469.646 262.116 469.484 262.203ZM469.484 262.203C469.376 262.262 469.268 262.32 469.16 262.378M469.16 262.378L469.125 262.442C469.111 262.435 469.098 262.427 469.085 262.418C469.11 262.405 469.135 262.392 469.16 262.378ZM483.952 254.423L484.304 255.073L484.301 255.075L484.265 255.094L484.265 255.094C483.579 255.454 482.827 254.919 482.827 254.217C482.827 253.613 482.823 253.006 482.82 252.396C482.813 250.956 482.805 249.504 482.839 248.058C482.868 246.842 481.934 245.91 480.885 245.769L480.876 245.768L480.876 245.768C480.827 245.76 480.784 245.75 480.75 245.74H478.139C477.424 245.74 476.857 245.776 476.393 246.005C476.188 246.107 476.006 246.23 475.846 246.382L475.846 246.382C475.376 246.83 475.168 247.344 475.17 247.972L475.17 247.973C475.175 249.461 475.174 250.949 475.173 252.435C475.173 253.029 475.172 253.623 475.172 254.217C475.172 254.922 474.419 255.45 473.736 255.095L473.736 255.095L473.698 255.075L494 252.22C493.041 250.83 491.341 250.477 489.76 251.315C488.47 251.999 487.184 252.689 485.898 253.38C485.25 253.728 484.601 254.076 483.952 254.423ZM483.952 254.423L483.922 254.439C483.76 254.524 483.566 254.399 483.566 254.217C483.566 253.605 483.563 252.992 483.56 252.38C483.552 250.945 483.544 249.51 483.579 248.075L483.952 254.423ZM493.978 258.014C494.459 257.757 494.774 257.461 494.965 257.145C495.153 256.833 495.249 256.455 495.219 255.98L495.219 255.979C495.203 255.719 495.104 255.412 494.949 255.138L494.948 255.138C494.463 254.284 493.947 253.447 493.391 252.64L493.978 258.014ZM493.978 258.014C492.492 258.806 491.012 259.606 489.533 260.404C489.07 260.655 488.608 260.905 488.145 261.154M493.978 258.014L488.145 261.154M488.145 261.154C487.425 261.541 487.527 262.51 488.151 262.847L488.298 262.927C488.709 263.149 489.098 263.359 489.486 263.57L489.486 263.57C489.978 263.837 490.468 264.1 490.956 264.361C492.093 264.969 493.217 265.571 494.322 266.213L488.145 261.154ZM492.76 271.995C491.883 272.519 491.018 272.519 490.088 272.022C488.797 271.333 487.508 270.642 486.218 269.951C485.573 269.606 484.927 269.26 484.282 268.915L484.28 268.914M492.76 271.995L484.28 268.914M484.28 268.914C483.592 268.547 482.827 269.081 482.827 269.793V269.803C482.827 270.461 482.827 271.119 482.828 271.777C482.829 273.199 482.831 274.62 482.826 276.042C482.821 277.302 481.88 278.25 480.388 278.258C479.722 278.262 479.057 278.261 478.389 278.26C478.165 278.259 477.941 278.259 477.716 278.258H477.716M484.28 268.914L477.716 278.258M477.716 278.258C476.873 278.258 476.245 278.004 475.834 277.622M477.716 278.258L475.834 277.622M473.687 268.929L473.69 268.928C473.71 268.917 473.729 268.907 473.749 268.897C474.416 268.555 475.172 269.058 475.172 269.771C475.172 270.457 475.172 271.143 475.172 271.83C475.172 273.202 475.172 274.573 475.172 275.945L473.687 268.929ZM473.687 268.929C473.075 269.257 472.463 269.586 471.851 269.914M473.687 268.929L471.851 269.914M463.698 257.798L463.699 257.798C464.716 258.393 465.75 258.946 466.799 259.507C467.251 259.748 467.706 259.991 468.163 260.24L463.698 257.798ZM463.698 257.798C462.795 257.271 462.499 256.192 462.946 255.368L463.698 257.798ZM475.834 277.622C475.429 277.245 475.173 276.687 475.172 275.945L475.834 277.622ZM471.851 269.914C470.539 270.618 469.228 271.322 467.914 272.021L471.851 269.914ZM464.846 252.33C464.903 252.243 465.04 252.122 465.247 251.999L462.946 255.368C463.432 254.474 463.997 253.617 464.582 252.731C464.669 252.598 464.757 252.464 464.846 252.33ZM465.248 251.999C466.128 251.48 466.992 251.483 467.922 251.981C469.847 253.013 471.773 254.044 473.698 255.075L465.248 251.999ZM488.844 262.458L488.847 262.456C488.846 262.457 488.845 262.457 488.844 262.458ZM467.914 272.021C466.609 272.714 465.337 272.413 464.601 271.349L467.914 272.021Z" stroke="white" stroke-opacity="0.7" stroke-width="1.47917" shape-rendering="crispEdges"/>
</g>
</g>
<g clip-path="url(#clip1_651_57326)">
<g filter="url(#filter3_bdi_651_57326)">
<path d="M541.041 268.973C540.464 270.036 539.778 271.048 539.111 272.067C538.962 272.292 538.715 272.485 538.471 272.63C537.355 273.297 536.213 273.284 535.071 272.675C533.135 271.641 531.2 270.603 529.265 269.567C529.098 269.478 528.898 269.605 528.898 269.793V269.803C528.898 271.883 528.905 273.963 528.897 276.044C528.891 277.761 527.569 278.987 525.724 278.998C524.832 279.003 523.94 278.999 523.048 278.998C521.064 278.997 519.766 277.791 519.765 275.945C519.764 273.888 519.765 271.829 519.765 269.771C519.765 269.593 519.577 269.474 519.418 269.555C519.402 269.564 519.385 269.572 519.368 269.581C517.443 270.612 515.521 271.648 513.593 272.674C511.994 273.523 510.298 273.176 509.325 271.77C508.761 270.952 508.239 270.106 507.752 269.246C507.547 268.885 507.399 268.459 507.375 268.054C507.302 266.841 507.876 265.934 509.017 265.326C510.955 264.294 512.883 263.245 514.816 262.203C514.978 262.116 514.971 261.88 514.809 261.792C514.237 261.482 513.689 261.187 513.142 260.89C511.645 260.076 510.125 259.295 508.657 258.437C507.433 257.722 506.977 256.214 507.628 255.015C508.206 253.953 508.892 252.94 509.56 251.923C509.709 251.697 509.959 251.507 510.204 251.362C511.323 250.702 512.463 250.718 513.603 251.329C515.529 252.361 517.454 253.392 519.379 254.423C519.389 254.428 519.399 254.434 519.41 254.439C519.571 254.523 519.765 254.399 519.765 254.217C519.765 252.136 519.769 250.056 519.763 247.975C519.76 247.15 520.046 246.439 520.668 245.847C520.888 245.637 521.134 245.473 521.398 245.342C522.033 245.028 522.762 245 523.471 245H526.19C526.235 245 526.272 245.029 526.316 245.036C527.703 245.222 528.949 246.448 528.911 248.075C528.862 250.122 528.898 252.17 528.898 254.217C528.898 254.399 529.092 254.524 529.254 254.439C529.264 254.434 529.274 254.428 529.284 254.423C531.221 253.387 533.153 252.344 535.092 251.315C536.673 250.477 538.373 250.83 539.332 252.22C539.902 253.048 540.43 253.903 540.923 254.772C541.123 255.124 541.265 255.539 541.289 255.935C541.365 257.146 540.8 258.057 539.657 258.667C537.709 259.705 535.769 260.758 533.828 261.805C533.673 261.888 533.681 262.113 533.835 262.197C534.3 262.448 534.736 262.683 535.172 262.92C536.792 263.801 538.434 264.649 540.026 265.574C541.228 266.273 541.683 267.795 541.041 268.973Z" fill="url(#paint2_linear_651_57326)" shape-rendering="crispEdges"/>
<path d="M540.391 268.62L540.391 268.62C540.83 267.814 540.531 266.724 539.654 266.213L540.391 268.62ZM540.391 268.62C539.907 269.512 539.344 270.368 538.761 271.253C538.672 271.388 538.582 271.524 538.492 271.661C538.434 271.75 538.297 271.873 538.092 271.995L538.092 271.995M540.391 268.62L538.092 271.995M514.415 262.42C513.978 262.656 513.541 262.892 513.104 263.128C511.743 263.864 510.382 264.599 509.017 265.326C507.876 265.934 507.302 266.841 507.375 268.054C507.399 268.459 507.547 268.885 507.752 269.246L514.415 262.42ZM514.415 262.42C514.429 262.427 514.443 262.435 514.457 262.442L514.492 262.378M514.415 262.42L514.816 262.203M514.816 262.203L515.167 262.854C515.167 262.855 515.166 262.855 515.166 262.855C514.597 263.162 514.027 263.47 513.458 263.778C512.096 264.513 510.732 265.251 509.365 265.979L509.365 265.979C508.883 266.236 508.565 266.531 508.372 266.848C508.182 267.16 508.085 267.536 508.113 268.009L508.113 268.01C508.129 268.277 508.232 268.594 508.395 268.882C508.873 269.726 509.383 270.552 509.933 271.349L514.505 261.628C514.506 261.628 514.507 261.628 514.507 261.629C514.607 261.683 514.708 261.737 514.809 261.792C514.971 261.88 514.978 262.116 514.816 262.203ZM514.816 262.203C514.708 262.262 514.6 262.32 514.492 262.378M514.492 262.378L514.457 262.442C514.443 262.435 514.43 262.427 514.417 262.418C514.442 262.405 514.467 262.392 514.492 262.378ZM529.284 254.423L529.636 255.073L529.633 255.075L529.597 255.094L529.597 255.094C528.911 255.454 528.159 254.919 528.159 254.217C528.159 253.613 528.156 253.006 528.152 252.396C528.145 250.956 528.137 249.504 528.171 248.058C528.2 246.842 527.266 245.91 526.217 245.769L526.208 245.768L526.208 245.768C526.159 245.76 526.116 245.75 526.082 245.74H523.471C522.756 245.74 522.189 245.776 521.725 246.005C521.52 246.107 521.338 246.23 521.178 246.382L521.178 246.382C520.708 246.83 520.5 247.344 520.502 247.972L520.502 247.973C520.507 249.461 520.506 250.949 520.505 252.435C520.505 253.029 520.505 253.623 520.505 254.217C520.505 254.922 519.751 255.45 519.069 255.095L519.068 255.095L519.03 255.075L539.332 252.22C538.373 250.83 536.673 250.477 535.092 251.315C533.802 251.999 532.516 252.689 531.23 253.38C530.582 253.728 529.933 254.076 529.284 254.423ZM529.284 254.423L529.254 254.439C529.092 254.524 528.898 254.399 528.898 254.217C528.898 253.605 528.895 252.992 528.892 252.38C528.884 250.945 528.876 249.51 528.911 248.075L529.284 254.423ZM539.31 258.014C539.791 257.757 540.106 257.461 540.297 257.145C540.485 256.833 540.581 256.455 540.551 255.98L540.551 255.979C540.535 255.719 540.437 255.412 540.281 255.138L540.28 255.138C539.795 254.284 539.279 253.447 538.723 252.64L539.31 258.014ZM539.31 258.014C537.824 258.806 536.344 259.606 534.865 260.404C534.402 260.655 533.94 260.905 533.477 261.154M539.31 258.014L533.477 261.154M533.477 261.154C532.757 261.541 532.859 262.51 533.483 262.847L533.63 262.927C534.041 263.149 534.43 263.359 534.818 263.57L534.818 263.57C535.31 263.837 535.8 264.1 536.288 264.361C537.425 264.969 538.549 265.571 539.654 266.213L533.477 261.154ZM538.092 271.995C537.215 272.519 536.35 272.519 535.42 272.022C534.129 271.333 532.84 270.642 531.55 269.951C530.905 269.606 530.259 269.26 529.614 268.915L529.612 268.914M538.092 271.995L529.612 268.914M529.612 268.914C528.924 268.547 528.159 269.081 528.159 269.793V269.803C528.159 270.461 528.159 271.119 528.16 271.777C528.161 273.199 528.163 274.62 528.158 276.042C528.153 277.302 527.212 278.25 525.72 278.258C525.054 278.262 524.389 278.261 523.721 278.26C523.497 278.259 523.273 278.259 523.048 278.258H523.048M529.612 268.914L523.048 278.258M523.048 278.258C522.205 278.258 521.577 278.004 521.166 277.622M523.048 278.258L521.166 277.622M519.019 268.929L519.022 268.928C519.042 268.917 519.061 268.907 519.081 268.897C519.748 268.555 520.505 269.058 520.505 269.771C520.505 270.457 520.504 271.143 520.504 271.83C520.504 273.202 520.504 274.573 520.505 275.945L519.019 268.929ZM519.019 268.929C518.407 269.257 517.795 269.586 517.183 269.914M519.019 268.929L517.183 269.914M509.03 257.798L509.031 257.798C510.048 258.393 511.082 258.946 512.131 259.507C512.583 259.748 513.038 259.991 513.495 260.24L509.03 257.798ZM509.03 257.798C508.127 257.271 507.831 256.192 508.278 255.368L509.03 257.798ZM521.166 277.622C520.761 277.245 520.505 276.687 520.505 275.945L521.166 277.622ZM517.183 269.914C515.871 270.618 514.56 271.322 513.246 272.021L517.183 269.914ZM510.178 252.33C510.236 252.243 510.372 252.122 510.579 251.999L508.278 255.368C508.764 254.474 509.329 253.617 509.914 252.731C510.001 252.598 510.089 252.464 510.178 252.33ZM510.58 251.999C511.46 251.48 512.324 251.483 513.254 251.981C515.179 253.013 517.105 254.044 519.03 255.075L510.58 251.999ZM534.176 262.458L534.179 262.456C534.178 262.457 534.177 262.457 534.176 262.458ZM513.246 272.021C511.941 272.714 510.669 272.413 509.934 271.349L513.246 272.021Z" stroke="white" stroke-opacity="0.7" stroke-width="1.47917" shape-rendering="crispEdges"/>
</g>
</g>
<g clip-path="url(#clip2_651_57326)">
<g filter="url(#filter4_bdi_651_57326)">
<path d="M586.377 268.973C585.8 270.036 585.114 271.048 584.447 272.067C584.298 272.292 584.051 272.485 583.807 272.63C582.69 273.297 581.549 273.284 580.407 272.675C578.471 271.641 576.536 270.603 574.601 269.567C574.434 269.478 574.234 269.605 574.234 269.793V269.803C574.234 271.883 574.241 273.963 574.233 276.044C574.227 277.761 572.905 278.987 571.06 278.998C570.168 279.003 569.276 278.999 568.384 278.998C566.4 278.997 565.102 277.791 565.101 275.945C565.1 273.888 565.101 271.829 565.101 269.771C565.101 269.593 564.913 269.474 564.754 269.555C564.738 269.564 564.721 269.572 564.704 269.581C562.779 270.612 560.857 271.648 558.929 272.674C557.33 273.523 555.634 273.176 554.661 271.77C554.097 270.952 553.575 270.106 553.088 269.246C552.883 268.885 552.735 268.459 552.711 268.054C552.638 266.841 553.212 265.934 554.353 265.326C556.291 264.294 558.219 263.245 560.152 262.203C560.314 262.116 560.307 261.88 560.145 261.792C559.573 261.482 559.025 261.187 558.478 260.89C556.981 260.076 555.461 259.295 553.993 258.437C552.769 257.722 552.313 256.214 552.964 255.015C553.541 253.953 554.228 252.94 554.896 251.923C555.045 251.697 555.294 251.507 555.54 251.362C556.659 250.702 557.799 250.718 558.939 251.329C560.864 252.361 562.79 253.392 564.715 254.423C564.725 254.428 564.735 254.434 564.746 254.439C564.907 254.523 565.101 254.399 565.101 254.217C565.101 252.136 565.105 250.056 565.099 247.975C565.096 247.15 565.382 246.439 566.003 245.847C566.224 245.637 566.469 245.473 566.734 245.342C567.369 245.028 568.098 245 568.807 245H571.526C571.571 245 571.608 245.029 571.652 245.036C573.038 245.222 574.285 246.448 574.247 248.075C574.198 250.122 574.234 252.17 574.234 254.217C574.234 254.399 574.428 254.524 574.59 254.439C574.6 254.434 574.61 254.428 574.62 254.423C576.557 253.387 578.488 252.344 580.428 251.315C582.009 250.477 583.709 250.83 584.668 252.22C585.238 253.048 585.766 253.903 586.259 254.772C586.459 255.124 586.601 255.539 586.625 255.935C586.7 257.146 586.136 258.057 584.993 258.667C583.045 259.705 581.105 260.758 579.164 261.805C579.009 261.888 579.017 262.113 579.171 262.197C579.636 262.448 580.072 262.683 580.508 262.92C582.128 263.801 583.77 264.649 585.362 265.574C586.564 266.273 587.019 267.795 586.377 268.973Z" fill="url(#paint3_linear_651_57326)" shape-rendering="crispEdges"/>
</g>
</g>
<g clip-path="url(#clip3_651_57326)">
<g filter="url(#filter5_bdi_651_57326)">
<path d="M631.709 268.973C631.132 270.036 630.446 271.048 629.779 272.067C629.63 272.292 629.383 272.485 629.139 272.63C628.022 273.297 626.881 273.284 625.739 272.675C623.803 271.641 621.868 270.603 619.933 269.567C619.766 269.478 619.566 269.605 619.566 269.793V269.803C619.566 271.883 619.573 273.963 619.565 276.044C619.559 277.761 618.237 278.987 616.392 278.998C615.5 279.003 614.608 278.999 613.716 278.998C611.732 278.997 610.434 277.791 610.433 275.945C610.432 273.888 610.433 271.829 610.433 269.771C610.433 269.593 610.245 269.474 610.086 269.555C610.07 269.564 610.053 269.572 610.036 269.581C608.111 270.612 606.189 271.648 604.261 272.674C602.662 273.523 600.966 273.176 599.993 271.77C599.429 270.952 598.907 270.106 598.42 269.246C598.215 268.885 598.067 268.459 598.043 268.054C597.97 266.841 598.544 265.934 599.685 265.326C601.623 264.294 603.551 263.245 605.484 262.203C605.646 262.116 605.639 261.88 605.477 261.792C604.905 261.482 604.357 261.187 603.81 260.89C602.313 260.076 600.793 259.295 599.325 258.437C598.101 257.722 597.645 256.214 598.296 255.015C598.873 253.953 599.56 252.94 600.228 251.923C600.377 251.697 600.627 251.507 600.872 251.362C601.991 250.702 603.131 250.718 604.271 251.329C606.196 252.361 608.122 253.392 610.047 254.423C610.057 254.428 610.067 254.434 610.078 254.439C610.239 254.523 610.433 254.399 610.433 254.217C610.433 252.136 610.437 250.056 610.431 247.975C610.428 247.15 610.714 246.439 611.336 245.847C611.556 245.637 611.801 245.473 612.066 245.342C612.701 245.028 613.43 245 614.139 245H616.858C616.903 245 616.94 245.029 616.984 245.036C618.37 245.222 619.617 246.448 619.579 248.075C619.53 250.122 619.566 252.17 619.566 254.217C619.566 254.399 619.76 254.524 619.922 254.439C619.932 254.434 619.942 254.428 619.952 254.423C621.889 253.387 623.82 252.344 625.76 251.315C627.341 250.477 629.041 250.83 630 252.22C630.57 253.048 631.098 253.903 631.591 254.772C631.791 255.124 631.933 255.539 631.957 255.935C632.032 257.146 631.468 258.057 630.325 258.667C628.377 259.705 626.437 260.758 624.496 261.805C624.341 261.888 624.349 262.113 624.503 262.197C624.968 262.448 625.404 262.683 625.84 262.92C627.46 263.801 629.102 264.649 630.694 265.574C631.896 266.273 632.351 267.795 631.709 268.973Z" fill="url(#paint4_linear_651_57326)" shape-rendering="crispEdges"/>
</g>
</g>
<defs>
<filter id="filter0_d_651_57326" x="-256.198" y="13.8279" width="1099.09" height="748.056" filterUnits="userSpaceOnUse" color-interpolation-filters="sRGB">
<feFlood flood-opacity="0" result="BackgroundImageFix"/>
<feColorMatrix in="SourceAlpha" type="matrix" values="0 0 0 0 0 0 0 0 0 0 0 0 0 0 0 0 0 0 127 0" result="hardAlpha"/>
<feOffset dx="24" dy="24"/>
<feGaussianBlur stdDeviation="18"/>
<feComposite in2="hardAlpha" operator="out"/>
<feColorMatrix type="matrix" values="0 0 0 0 0.113725 0 0 0 0 0.556863 0 0 0 0 0.901961 0 0 0 0.02 0"/>
<feBlend mode="normal" in2="BackgroundImageFix" result="effect1_dropShadow_651_57326"/>
<feBlend mode="normal" in="SourceGraphic" in2="effect1_dropShadow_651_57326" result="shape"/>
</filter>
<filter id="filter1_f_651_57326" x="306.911" y="257.709" width="332.178" height="176.291" filterUnits="userSpaceOnUse" color-interpolation-filters="sRGB">
<feFlood flood-opacity="0" result="BackgroundImageFix"/>
<feBlend mode="normal" in="SourceGraphic" in2="BackgroundImageFix" result="shape"/>
<feGaussianBlur stdDeviation="20" result="effect1_foregroundBlur_651_57326"/>
</filter>
<filter id="filter2_bdi_651_57326" x="438.333" y="221.333" width="81.3333" height="81.3338" filterUnits="userSpaceOnUse" color-interpolation-filters="sRGB">
<feFlood flood-opacity="0" result="BackgroundImageFix"/>
<feGaussianBlur in="BackgroundImageFix" stdDeviation="7.5"/>
<feComposite in2="SourceAlpha" operator="in" result="effect1_backgroundBlur_651_57326"/>
<feColorMatrix in="SourceAlpha" type="matrix" values="0 0 0 0 0 0 0 0 0 0 0 0 0 0 0 0 0 0 127 0" result="hardAlpha"/>
<feOffset/>
<feGaussianBlur stdDeviation="11.8333"/>
<feComposite in2="hardAlpha" operator="out"/>
<feColorMatrix type="matrix" values="0 0 0 0 0.231373 0 0 0 0 0.407843 0 0 0 0 1 0 0 0 0.1 0"/>
<feBlend mode="normal" in2="effect1_backgroundBlur_651_57326" result="effect2_dropShadow_651_57326"/>
<feBlend mode="normal" in="SourceGraphic" in2="effect2_dropShadow_651_57326" result="shape"/>
<feColorMatrix in="SourceAlpha" type="matrix" values="0 0 0 0 0 0 0 0 0 0 0 0 0 0 0 0 0 0 127 0" result="hardAlpha"/>
<feOffset/>
<feGaussianBlur stdDeviation="8.875"/>
<feComposite in2="hardAlpha" operator="arithmetic" k2="-1" k3="1"/>
<feColorMatrix type="matrix" values="0 0 0 0 0.231373 0 0 0 0 0.407843 0 0 0 0 1 0 0 0 0.38 0"/>
<feBlend mode="normal" in2="shape" result="effect3_innerShadow_651_57326"/>
</filter>
<filter id="filter3_bdi_651_57326" x="483.665" y="221.333" width="81.3333" height="81.3338" filterUnits="userSpaceOnUse" color-interpolation-filters="sRGB">
<feFlood flood-opacity="0" result="BackgroundImageFix"/>
<feGaussianBlur in="BackgroundImageFix" stdDeviation="7.5"/>
<feComposite in2="SourceAlpha" operator="in" result="effect1_backgroundBlur_651_57326"/>
<feColorMatrix in="SourceAlpha" type="matrix" values="0 0 0 0 0 0 0 0 0 0 0 0 0 0 0 0 0 0 127 0" result="hardAlpha"/>
<feOffset/>
<feGaussianBlur stdDeviation="11.8333"/>
<feComposite in2="hardAlpha" operator="out"/>
<feColorMatrix type="matrix" values="0 0 0 0 0.231373 0 0 0 0 0.407843 0 0 0 0 1 0 0 0 0.1 0"/>
<feBlend mode="normal" in2="effect1_backgroundBlur_651_57326" result="effect2_dropShadow_651_57326"/>
<feBlend mode="normal" in="SourceGraphic" in2="effect2_dropShadow_651_57326" result="shape"/>
<feColorMatrix in="SourceAlpha" type="matrix" values="0 0 0 0 0 0 0 0 0 0 0 0 0 0 0 0 0 0 127 0" result="hardAlpha"/>
<feOffset/>
<feGaussianBlur stdDeviation="8.875"/>
<feComposite in2="hardAlpha" operator="arithmetic" k2="-1" k3="1"/>
<feColorMatrix type="matrix" values="0 0 0 0 0.231373 0 0 0 0 0.407843 0 0 0 0 1 0 0 0 0.38 0"/>
<feBlend mode="normal" in2="shape" result="effect3_innerShadow_651_57326"/>
</filter>
<filter id="filter4_bdi_651_57326" x="523.085" y="215.417" width="93.1667" height="93.1672" filterUnits="userSpaceOnUse" color-interpolation-filters="sRGB">
<feFlood flood-opacity="0" result="BackgroundImageFix"/>
<feGaussianBlur in="BackgroundImageFix" stdDeviation="14.7917"/>
<feComposite in2="SourceAlpha" operator="in" result="effect1_backgroundBlur_651_57326"/>
<feColorMatrix in="SourceAlpha" type="matrix" values="0 0 0 0 0 0 0 0 0 0 0 0 0 0 0 0 0 0 127 0" result="hardAlpha"/>
<feOffset/>
<feGaussianBlur stdDeviation="11.8333"/>
<feComposite in2="hardAlpha" operator="out"/>
<feColorMatrix type="matrix" values="0 0 0 0 0.231373 0 0 0 0 0.407843 0 0 0 0 1 0 0 0 0.1 0"/>
<feBlend mode="normal" in2="effect1_backgroundBlur_651_57326" result="effect2_dropShadow_651_57326"/>
<feBlend mode="normal" in="SourceGraphic" in2="effect2_dropShadow_651_57326" result="shape"/>
<feColorMatrix in="SourceAlpha" type="matrix" values="0 0 0 0 0 0 0 0 0 0 0 0 0 0 0 0 0 0 127 0" result="hardAlpha"/>
<feOffset/>
<feGaussianBlur stdDeviation="8.875"/>
<feComposite in2="hardAlpha" operator="arithmetic" k2="-1" k3="1"/>
<feColorMatrix type="matrix" values="0 0 0 0 0.231373 0 0 0 0 0.407843 0 0 0 0 1 0 0 0 0.38 0"/>
<feBlend mode="normal" in2="shape" result="effect3_innerShadow_651_57326"/>
</filter>
<filter id="filter5_bdi_651_57326" x="568.417" y="215.417" width="93.1667" height="93.1672" filterUnits="userSpaceOnUse" color-interpolation-filters="sRGB">
<feFlood flood-opacity="0" result="BackgroundImageFix"/>
<feGaussianBlur in="BackgroundImageFix" stdDeviation="14.7917"/>
<feComposite in2="SourceAlpha" operator="in" result="effect1_backgroundBlur_651_57326"/>
<feColorMatrix in="SourceAlpha" type="matrix" values="0 0 0 0 0 0 0 0 0 0 0 0 0 0 0 0 0 0 127 0" result="hardAlpha"/>
<feOffset/>
<feGaussianBlur stdDeviation="11.8333"/>
<feComposite in2="hardAlpha" operator="out"/>
<feColorMatrix type="matrix" values="0 0 0 0 0.231373 0 0 0 0 0.407843 0 0 0 0 1 0 0 0 0.1 0"/>
<feBlend mode="normal" in2="effect1_backgroundBlur_651_57326" result="effect2_dropShadow_651_57326"/>
<feBlend mode="normal" in="SourceGraphic" in2="effect2_dropShadow_651_57326" result="shape"/>
<feColorMatrix in="SourceAlpha" type="matrix" values="0 0 0 0 0 0 0 0 0 0 0 0 0 0 0 0 0 0 127 0" result="hardAlpha"/>
<feOffset/>
<feGaussianBlur stdDeviation="8.875"/>
<feComposite in2="hardAlpha" operator="arithmetic" k2="-1" k3="1"/>
<feColorMatrix type="matrix" values="0 0 0 0 0.231373 0 0 0 0 0.407843 0 0 0 0 1 0 0 0 0.38 0"/>
<feBlend mode="normal" in2="shape" result="effect3_innerShadow_651_57326"/>
</filter>
<linearGradient id="paint0_linear_651_57326" x1="188.545" y1="26.9139" x2="224.25" y2="708.21" gradientUnits="userSpaceOnUse">
<stop stop-color="#F4F7FA"/>
<stop offset="1" stop-color="white"/>
</linearGradient>
<linearGradient id="paint1_linear_651_57326" x1="450.95" y1="231.4" x2="513.851" y2="287.5" gradientUnits="userSpaceOnUse">
<stop stop-color="#344EA6" stop-opacity="0.26"/>
<stop offset="0.505208" stop-color="#587EFF" stop-opacity="0.29"/>
<stop offset="1" stop-color="#EEF2FF" stop-opacity="0.04"/>
</linearGradient>
<linearGradient id="paint2_linear_651_57326" x1="496.282" y1="231.4" x2="559.183" y2="287.5" gradientUnits="userSpaceOnUse">
<stop stop-color="#344EA6" stop-opacity="0.26"/>
<stop offset="0.505208" stop-color="#587EFF" stop-opacity="0.29"/>
<stop offset="1" stop-color="#EEF2FF" stop-opacity="0.04"/>
</linearGradient>
<linearGradient id="paint3_linear_651_57326" x1="541.618" y1="231.4" x2="604.519" y2="287.5" gradientUnits="userSpaceOnUse">
<stop stop-color="#344EA6" stop-opacity="0.26"/>
<stop offset="0.505208" stop-color="#587EFF" stop-opacity="0.12"/>
<stop offset="1" stop-color="#829EFF" stop-opacity="0.04"/>
</linearGradient>
<linearGradient id="paint4_linear_651_57326" x1="586.95" y1="231.4" x2="649.851" y2="287.5" gradientUnits="userSpaceOnUse">
<stop stop-color="#344EA6" stop-opacity="0.26"/>
<stop offset="0.505208" stop-color="#587EFF" stop-opacity="0.12"/>
<stop offset="1" stop-color="#829EFF" stop-opacity="0.04"/>
</linearGradient>
<clipPath id="clip0_651_57326">
<rect width="34" height="34" fill="white" transform="translate(462 245)"/>
</clipPath>
<clipPath id="clip1_651_57326">
<rect width="34" height="34" fill="white" transform="translate(507.333 245)"/>
</clipPath>
<clipPath id="clip2_651_57326">
<rect width="34" height="34" fill="white" transform="translate(552.667 245)"/>
</clipPath>
<clipPath id="clip3_651_57326">
<rect width="34" height="34" fill="white" transform="translate(598 245)"/>
</clipPath>
</defs>
</svg>
