<svg width="16" height="16" viewBox="0 0 16 16" fill="none" xmlns="http://www.w3.org/2000/svg">
<g clip-path="url(#clip0_3238_46898)">
<path d="M12.6663 6.66667C11.3297 6.24543 9.72514 6 7.99967 6C6.2742 6 4.66967 6.24543 3.33301 6.66667V9C4.66967 8.5788 6.2742 8.33333 7.99967 8.33333C9.72514 8.33333 11.3297 8.5788 12.6663 9V6.66667Z" stroke="#AFB1B6" stroke-width="1.5" stroke-linejoin="round"/>
<path d="M12.6663 6.66667C11.3297 6.24543 9.72514 6 7.99967 6C6.2742 6 4.66967 6.24543 3.33301 6.66667V9C4.66967 8.5788 6.2742 8.33333 7.99967 8.33333C9.72514 8.33333 11.3297 8.5788 12.6663 9V6.66667Z" stroke="black" stroke-opacity="0.2" stroke-width="1.5" stroke-linejoin="round"/>
<path d="M12.6663 8.66602V10.0148C12.6663 11.4355 11.9783 12.752 10.8538 13.4829L9.92047 14.0896C8.73821 14.8581 7.26114 14.8581 6.07889 14.0896L5.14556 13.4829C4.02106 12.752 3.33301 11.4355 3.33301 10.0148V8.66602" stroke="#AFB1B6" stroke-width="1.5" stroke-linecap="round"/>
<path d="M12.6663 8.66602V10.0148C12.6663 11.4355 11.9783 12.752 10.8538 13.4829L9.92047 14.0896C8.73821 14.8581 7.26114 14.8581 6.07889 14.0896L5.14556 13.4829C4.02106 12.752 3.33301 11.4355 3.33301 10.0148V8.66602" stroke="black" stroke-opacity="0.2" stroke-width="1.5" stroke-linecap="round"/>
<path d="M12.6663 6.66732L13.4168 6.27205C14.2589 5.71982 14.6799 5.4437 14.666 5.04919C14.6521 4.65468 14.213 4.41468 13.3347 3.93466L10.1832 2.21236C9.11174 1.62678 8.57601 1.33398 7.99967 1.33398C7.42334 1.33398 6.88761 1.62678 5.81613 2.21236L2.66469 3.93466C1.78637 4.41468 1.3472 4.65468 1.33334 5.04919C1.31947 5.4437 1.74051 5.71982 2.58257 6.27205L3.33301 6.66732" stroke="#AFB1B6" stroke-width="1.5" stroke-linecap="round"/>
<path d="M12.6663 6.66732L13.4168 6.27205C14.2589 5.71982 14.6799 5.4437 14.666 5.04919C14.6521 4.65468 14.213 4.41468 13.3347 3.93466L10.1832 2.21236C9.11174 1.62678 8.57601 1.33398 7.99967 1.33398C7.42334 1.33398 6.88761 1.62678 5.81613 2.21236L2.66469 3.93466C1.78637 4.41468 1.3472 4.65468 1.33334 5.04919C1.31947 5.4437 1.74051 5.71982 2.58257 6.27205L3.33301 6.66732" stroke="black" stroke-opacity="0.2" stroke-width="1.5" stroke-linecap="round"/>
</g>
<defs>
<clipPath id="clip0_3238_46898">
<rect width="16" height="16" fill="white"/>
</clipPath>
</defs>
</svg>
