<svg width="87" height="16" viewBox="0 0 87 16" fill="none" xmlns="http://www.w3.org/2000/svg">
<g clip-path="url(#clip0_4425_14446)">
<g clip-path="url(#clip1_4425_14446)">
<path d="M17.7312 0.26123V13.0601C17.7312 14.4259 16.6182 15.5389 15.2524 15.5389H11.5341V10.2271C11.5341 9.54417 10.9776 8.9877 10.2947 8.9877H6.19706V15.5389H2.47882C1.11294 15.5389 0 14.4259 0 13.0601V2.74005C0 1.37417 1.11294 0.26123 2.47882 0.26123H17.7312Z" fill="#2A2D7C"/>
<path d="M10.2948 7.69777H7.43656C6.75361 7.69777 6.19714 7.1413 6.19714 6.45836V4.33365C6.19714 3.65071 6.75361 3.09424 7.43656 3.09424H11.5342V6.45836C11.5342 7.1413 10.9777 7.69777 10.2948 7.69777Z" fill="#27AAE1"/>
<path d="M27.0647 11.1126V13.212H20.9941V5.77554C20.9941 5.0926 21.5506 4.53613 22.2336 4.53613H23.5994V11.1126H27.0647Z" fill="#2A2D7C"/>
<path d="M32.2247 10.9359C32.1235 11.1382 32.0223 11.3153 31.8706 11.3912C31.7188 11.4923 31.5418 11.5429 31.3141 11.5429C30.9347 11.5429 30.6565 11.3912 30.4794 11.0876C30.3529 10.8853 30.277 10.607 30.2265 10.2782H34.7541V9.74704C34.7541 8.98822 34.6023 8.33057 34.3241 7.7741C34.0459 7.21763 33.6159 6.78763 33.11 6.4841C32.5788 6.18057 31.9465 6.02881 31.2382 6.02881C30.53 6.02881 29.8976 6.18057 29.3665 6.45881C28.8353 6.73704 28.4053 7.16704 28.127 7.72351C27.8235 8.27999 27.6718 8.93763 27.6718 9.74704C27.6718 10.5059 27.8235 11.1635 28.127 11.72C28.4306 12.2765 28.8353 12.7065 29.3918 13.01C29.9229 13.3135 30.5806 13.4653 31.3141 13.4653C32.1994 13.4653 32.9835 13.2376 33.6159 12.7823C34.2482 12.327 34.6529 11.72 34.83 10.9106H32.2247V10.9359ZM30.4794 8.43175C30.6565 8.12822 30.9094 7.97646 31.2635 7.97646C31.5923 7.97646 31.8706 8.12822 32.0476 8.43175C32.1235 8.58351 32.1994 8.76057 32.25 8.98822H30.3023C30.3276 8.76057 30.4035 8.58351 30.4794 8.43175Z" fill="#2A2D7C"/>
<path d="M42.2918 12.58C42.2412 12.327 42.2412 11.9476 42.2412 11.467V8.86175C42.2412 8.33057 42.1147 7.84999 41.8871 7.41998C41.6341 6.98998 41.28 6.66116 40.8247 6.40822C40.3441 6.15528 39.7877 6.02881 39.0794 6.02881C38.4724 6.02881 37.9412 6.12999 37.4606 6.33234C36.98 6.53469 36.6006 6.83822 36.2971 7.21763C35.9936 7.59704 35.8165 8.05234 35.7406 8.58351H38.2194C38.2447 8.40646 38.3459 8.27998 38.4724 8.17881C38.5988 8.07763 38.7759 8.00175 39.0036 8.00175C39.2565 8.00175 39.4336 8.07763 39.5853 8.2041C39.7118 8.33057 39.7877 8.53293 39.7877 8.81116V8.98822C39.383 8.98822 38.9783 9.01351 38.5988 9.03881C38.1183 9.0894 37.663 9.19057 37.1824 9.36763C36.6006 9.56999 36.1706 9.84822 35.9177 10.2023C35.6394 10.5565 35.4877 10.9612 35.4877 11.4418C35.4877 11.897 35.5888 12.2512 35.7912 12.5547C35.9936 12.8582 36.2465 13.0859 36.6006 13.2376C36.9294 13.3894 37.3088 13.4653 37.7136 13.4653C38.0424 13.4653 38.3712 13.4147 38.7 13.2882C39.0036 13.187 39.3071 13.01 39.5347 12.7823C39.6359 12.6812 39.7118 12.58 39.7877 12.4788V12.5547C39.813 12.8076 39.8383 13.0353 39.8636 13.2123H42.393C42.3424 13.0606 42.3171 12.8329 42.2918 12.58ZM39.7624 11.2647C39.7624 11.6188 39.4841 11.897 39.13 11.897H38.523C38.3965 11.897 38.2953 11.8717 38.1941 11.7959C38.1688 11.7706 38.1436 11.7453 38.1183 11.7453C38.0424 11.6947 37.9918 11.6188 37.9665 11.5176C37.9412 11.4417 37.9159 11.3659 37.9159 11.2647V10.9106C37.9159 10.5565 38.1941 10.2782 38.5483 10.2782H39.7624V11.2647Z" fill="#2A2D7C"/>
<path d="M47.6795 4.03027V6.88851C47.2747 6.33204 46.7436 6.0538 46.0606 6.0538C45.2006 6.0538 44.4924 6.38263 43.9865 7.01498C43.4553 7.67263 43.2024 8.58321 43.2024 9.77204C43.2024 10.5309 43.3289 11.1885 43.5565 11.745C43.7842 12.3015 44.113 12.7315 44.5683 13.035C44.9983 13.3385 45.4789 13.4903 46.0353 13.4903C46.4147 13.4903 46.7942 13.4144 47.123 13.1867C47.3506 13.035 47.553 12.8579 47.7047 12.605V13.2373H50.1836V4.03027H47.6795ZM47.4518 11.062C47.2747 11.3656 47.0471 11.5173 46.7183 11.5173C46.4147 11.5173 46.1618 11.3656 45.9847 11.062C45.8077 10.7585 45.7318 10.3285 45.7318 9.77204C45.7318 9.21557 45.8077 8.76027 45.9847 8.48204C46.1618 8.17851 46.3895 8.02674 46.7183 8.02674C47.0471 8.02674 47.2747 8.17851 47.4518 8.48204C47.6289 8.78557 47.7047 9.21557 47.7047 9.77204C47.6795 10.3285 47.6036 10.7585 47.4518 11.062Z" fill="#2A2D7C"/>
<path d="M57.7465 11.037C57.7465 11.5176 57.62 11.9223 57.3418 12.3017C57.0635 12.6812 56.6841 12.9594 56.2035 13.1617C55.7229 13.3641 55.1665 13.4653 54.5088 13.4653C53.5982 13.4653 52.8394 13.2629 52.2071 12.8582C51.5747 12.4535 51.2206 11.8212 51.0941 10.9359H53.5729C53.5982 11.1382 53.6994 11.3153 53.8765 11.4418C54.0535 11.5682 54.2812 11.6188 54.5594 11.6188C54.7871 11.6188 54.9641 11.5935 55.0906 11.5176C55.1918 11.4417 55.2676 11.3406 55.2676 11.1888C55.2676 11.037 55.1918 10.9359 55.04 10.86C54.8882 10.7841 54.7112 10.7335 54.4582 10.6829C54.2053 10.6323 53.9524 10.5817 53.6741 10.5312C53.3959 10.4806 53.0924 10.43 52.8141 10.3288C52.5359 10.2529 52.2576 10.1265 52.03 9.97469C51.7771 9.82293 51.6 9.62057 51.4482 9.36763C51.2965 9.11469 51.2206 8.78587 51.2206 8.40646C51.2206 8.00175 51.3218 7.62234 51.5494 7.24293C51.7771 6.88881 52.1059 6.58528 52.5359 6.35763C52.9659 6.12999 53.5224 6.02881 54.18 6.02881C54.7618 6.02881 55.2929 6.12999 55.7735 6.30704C56.2541 6.4841 56.6335 6.76234 56.9371 7.14175C57.2406 7.52116 57.4176 8.00175 57.4682 8.58351H54.9894C54.9388 8.35587 54.8629 8.17881 54.7112 8.05234C54.5594 7.92587 54.3571 7.87528 54.1041 7.87528C53.9524 7.87528 53.8259 7.90057 53.7247 7.97646C53.6235 8.05234 53.5729 8.15351 53.5729 8.25469C53.5729 8.40646 53.6488 8.50763 53.8006 8.58351C53.9524 8.6594 54.1547 8.73528 54.3824 8.78587C54.6353 8.83646 54.9135 8.88704 55.1918 8.93763C55.4953 8.98822 55.7988 9.03881 56.0771 9.13998C56.3806 9.21587 56.6335 9.34234 56.8865 9.4941C57.1394 9.64587 57.3418 9.84822 57.4682 10.0759C57.6706 10.3288 57.7465 10.6576 57.7465 11.037Z" fill="#27AAE1"/>
<path d="M61.4141 8.15319V10.4297C61.4141 10.7079 61.4647 10.9355 61.5912 11.1126C61.6924 11.2897 61.9453 11.3655 62.3247 11.3655H62.78V13.2373C62.6283 13.2879 62.4512 13.3638 62.1983 13.4144C61.9453 13.465 61.6671 13.4902 61.3383 13.4902C60.5288 13.4902 59.9471 13.2626 59.5424 12.8073C59.1377 12.352 58.9606 11.6944 58.9606 10.8344V8.15319H58.2018V6.28142H58.9606V4.6626H61.4394V6.28142H62.8053V8.15319H61.4141Z" fill="#27AAE1"/>
<path d="M70.2419 12.58C70.2166 12.327 70.1913 11.9476 70.1913 11.467V8.86175C70.1913 8.33057 70.0648 7.84999 69.8372 7.41998C69.5842 6.98998 69.2301 6.66116 68.7748 6.40822C68.2942 6.15528 67.7377 6.02881 67.0295 6.02881C66.4224 6.02881 65.8913 6.12999 65.4107 6.33234C64.9301 6.53469 64.5507 6.83822 64.2472 7.21763C63.9436 7.59704 63.7666 8.05234 63.6907 8.58351H66.1695C66.1948 8.40646 66.2707 8.27998 66.4225 8.17881C66.5489 8.07763 66.726 8.00175 66.9536 8.00175C67.2066 8.00175 67.3836 8.07763 67.5354 8.2041C67.6619 8.33057 67.7377 8.53293 67.7377 8.81116V8.98822C67.333 8.98822 66.9283 9.01351 66.5489 9.03881C66.0936 9.0894 65.613 9.19057 65.1324 9.36763C64.576 9.56999 64.146 9.84822 63.8677 10.2023C63.5895 10.5565 63.4377 10.9612 63.4377 11.4418C63.4377 11.897 63.5389 12.2512 63.7413 12.5547C63.9436 12.8582 64.1966 13.0859 64.5507 13.2376C64.9048 13.3894 65.2589 13.4653 65.6636 13.4653C66.0177 13.4653 66.3466 13.4147 66.6501 13.2882C66.9536 13.187 67.2572 13.01 67.4848 12.7823C67.586 12.6812 67.6619 12.58 67.7377 12.4788C67.7377 12.5041 67.7377 12.5294 67.7377 12.5547C67.763 12.8076 67.7883 13.0353 67.8136 13.2123H70.343C70.3177 13.0606 70.2672 12.8329 70.2419 12.58ZM67.6872 11.2647C67.6872 11.6188 67.4089 11.897 67.0548 11.897H66.4477C66.0936 11.897 65.8154 11.6188 65.8154 11.2647V10.9106C65.8154 10.5565 66.0936 10.2782 66.4477 10.2782H67.6619V11.2647H67.6872Z" fill="#27AAE1"/>
<path d="M77.8806 8.86175H75.4018C75.3512 8.53293 75.2753 8.30528 75.1235 8.2041C74.9718 8.10293 74.82 8.02704 74.643 8.02704C74.3394 8.02704 74.0865 8.17881 73.9347 8.45704C73.783 8.76057 73.7071 9.19057 73.7071 9.74704C73.7071 10.3035 73.783 10.7335 73.96 11.037C74.1371 11.3406 74.39 11.467 74.7188 11.467C74.8959 11.467 75.073 11.4165 75.1741 11.29C75.3006 11.1635 75.3765 11.0117 75.4271 10.7841H77.9059C77.7541 11.6694 77.4 12.327 76.793 12.7823C76.1859 13.2376 75.4777 13.4653 74.643 13.4653C73.9347 13.4653 73.3024 13.3135 72.7712 13.01C72.24 12.7065 71.8353 12.2765 71.5571 11.72C71.2788 11.1635 71.1271 10.5059 71.1271 9.74704C71.1271 8.96293 71.2788 8.27999 71.5571 7.72351C71.8353 7.16704 72.2653 6.73704 72.7712 6.45881C73.3024 6.18057 73.9094 6.02881 74.6177 6.02881C75.1741 6.02881 75.68 6.12999 76.1353 6.33234C76.5906 6.53469 76.97 6.83822 77.2735 7.26822C77.6024 7.69822 77.8047 8.2294 77.8806 8.86175Z" fill="#27AAE1"/>
<path d="M86 13.2373H83.0406L81.2447 10.2526V13.2373H78.7659V5.26969C78.7659 4.58674 79.3223 4.03027 80.0053 4.03027H81.2447V8.96263L83.0153 6.30674H85.7976L83.597 9.34204L86 13.2373Z" fill="#27AAE1"/>
</g>
</g>
<defs>
<clipPath id="clip0_4425_14446">
<rect width="86.2" height="15.3" fill="white"/>
</clipPath>
<clipPath id="clip1_4425_14446">
<rect width="86" height="15.2776" fill="white" transform="translate(0 0.26123)"/>
</clipPath>
</defs>
</svg>
