<svg width="30" height="44" viewBox="0 0 30 44" fill="none" xmlns="http://www.w3.org/2000/svg">
<path d="M21.1089 25.4788C22.1624 25.4551 24.3395 23.2306 25.0465 22.564C26.2552 21.4398 27.2588 20.1704 28.0242 18.7974C32.2755 11.0432 26.5822 0.654363 15.9821 0.0272456C15.232 -0.00908187 14.4801 -0.00908187 13.73 0.0272456C6.77256 0.299391 1.47252 6.13671 0.831087 11.6506C0.559067 14.4315 1.13776 17.2248 2.51193 19.7637C3.17375 20.9706 4.06402 22.0789 5.14791 23.0452C5.90171 23.7157 8.16312 25.7785 9.32894 25.7549L21.1089 25.4788Z" fill="#FBB03B"/>
<path d="M16.1973 0.0388184C23.548 6.34944 22.9581 16.9158 19.6947 25.5061L21.0993 25.4746C22.1528 25.4509 24.3299 23.2264 25.0369 22.5598C26.2457 21.4356 27.2492 20.1661 28.0147 18.7932C32.2613 11.0903 26.6616 0.776372 16.1973 0.0388184Z" fill="#E29127"/>
<path d="M17.757 26.0585L18.7683 14.2615C18.8994 12.7785 18.67 11.0628 19.7469 9.74944C21.6806 7.38296 25.0469 9.97426 23.1929 11.9187C21.3388 13.8632 16.7504 13.737 14.1097 13.6423C6.79175 13.378 5.45737 10.4633 7.05862 9.3432C7.99503 8.69636 9.28258 8.94878 10.2237 9.42603C11.6283 10.1478 11.5768 11.5756 11.7079 12.7904C11.839 14.0052 11.9607 15.1332 12.0824 16.3046C12.3477 18.8078 12.6099 21.3058 12.869 23.7985L13.1031 26.0427" stroke="#F2F2F2" stroke-width="1.18324" stroke-miterlimit="10"/>
<path d="M8.25132 28.7915H21.9462C23.115 28.7915 24.0625 27.9942 24.0625 27.0107C24.0625 26.0272 23.115 25.2299 21.9462 25.2299H8.25132C7.08254 25.2299 6.13506 26.0272 6.13506 27.0107C6.13506 27.9942 7.08254 28.7915 8.25132 28.7915Z" fill="#CCCCCC"/>
<path d="M8.25132 32.3569H21.9462C23.115 32.3569 24.0625 31.5597 24.0625 30.5762C24.0625 29.5927 23.115 28.7954 21.9462 28.7954H8.25132C7.08254 28.7954 6.13506 29.5927 6.13506 30.5762C6.13506 31.5597 7.08254 32.3569 8.25132 32.3569Z" fill="#CCCCCC"/>
<path d="M21.9514 25.2334H19.7696C20.2378 26.4166 19.4185 28.3887 18.2386 29.1775C14.8202 29.612 11.3315 29.4359 7.99905 28.6609C7.9683 28.6539 7.93622 28.652 7.90464 28.6555C7.87307 28.6589 7.84261 28.6676 7.815 28.681C7.78739 28.6943 7.76318 28.7121 7.74374 28.7334C7.72431 28.7546 7.71004 28.7789 7.70173 28.8048C7.69343 28.8307 7.69128 28.8577 7.69538 28.8843C7.69947 28.9109 7.70974 28.9366 7.72561 28.9599C7.74148 28.9831 7.76262 29.0035 7.78785 29.0199C7.81308 29.0363 7.8419 29.0483 7.87264 29.0553C12.3603 30.1059 17.1061 30.0868 21.5816 29.0001C21.6256 28.991 21.6652 28.9706 21.6946 28.9415C21.724 28.9125 21.7418 28.8764 21.7454 28.8383L21.9514 28.8107C22.476 28.769 22.9631 28.564 23.3177 28.2358C23.6723 27.9075 23.8689 27.4797 23.8689 27.0359C23.8689 26.5921 23.6723 26.1642 23.3177 25.836C22.9631 25.5077 22.476 25.3027 21.9514 25.261V25.2334Z" fill="#B2AFAB"/>
<path d="M9.7168 30.8391C9.7168 30.8391 13.0738 32.4799 18.2427 32.3892C23.4117 32.2984 25.6029 30.8391 25.6029 30.8391" fill="#CCCCCC"/>
<path d="M24.5086 27.534H21.4793C22.6217 28.4254 21.6385 31.0837 20.8145 32.2117L21.4372 32.1683C22.603 32.1683 26.5874 31.344 26.6202 29.3167C26.6226 29.0824 26.5698 28.8499 26.4646 28.6329C26.3594 28.416 26.204 28.2188 26.0075 28.0529C25.811 27.8869 25.5773 27.7556 25.3199 27.6665C25.0626 27.5775 24.7868 27.5324 24.5086 27.534Z" fill="#B2AFAB"/>
<path d="M15.1103 43.1487C20.3931 43.1487 24.6756 41.909 24.6756 40.3799C24.6756 38.8507 20.3931 37.6111 15.1103 37.6111C9.82748 37.6111 5.54492 38.8507 5.54492 40.3799C5.54492 41.909 9.82748 43.1487 15.1103 43.1487Z" fill="#0D1735"/>
</svg>
