<svg width="193" height="40" viewBox="0 0 193 40" fill="none" xmlns="http://www.w3.org/2000/svg">
<g opacity="0.5">
<path d="M19.9375 9.03915H2.0625C1.65693 9.03483 1.26628 9.1989 0.976282 9.49534C0.686281 9.79179 0.520611 10.1964 0.515625 10.6204V29.3834C0.521513 29.8067 0.687579 30.2104 0.977482 30.5061C1.26739 30.8018 1.65752 30.9653 2.0625 30.961H19.9375C20.3431 30.9644 20.7335 30.7998 21.0233 30.5031C21.3132 30.2065 21.4789 29.802 21.4844 29.378V10.615C21.4771 10.1923 21.3106 9.78957 21.0209 9.49448C20.7313 9.1994 20.3419 9.03576 19.9375 9.03915Z" fill="#0076B2"/>
<path d="M3.61957 17.2561H6.73223V27.7265H3.61957V17.2561ZM5.17676 12.0452C5.53377 12.0452 5.88275 12.1559 6.17957 12.3633C6.47638 12.5707 6.70769 12.8654 6.84424 13.2103C6.98078 13.5551 7.01642 13.9346 6.94664 14.3006C6.87687 14.6667 6.70482 15.0028 6.45226 15.2666C6.19969 15.5304 5.87797 15.71 5.52778 15.7826C5.17759 15.8552 4.81468 15.8175 4.48494 15.6745C4.15521 15.5314 3.87347 15.2893 3.67538 14.9788C3.47729 14.6683 3.37173 14.3033 3.37207 13.9301C3.37253 13.43 3.56286 12.9506 3.90126 12.5971C4.23965 12.2437 4.69842 12.0452 5.17676 12.0452ZM8.68473 17.2561H11.6685V18.6936H11.7097C12.1257 17.8706 13.1397 17.0027 14.6539 17.0027C17.8061 16.9956 18.3905 19.1644 18.3905 21.9765V27.7265H15.2779V22.6324C15.2779 21.4195 15.2572 19.858 13.6605 19.858C12.0638 19.858 11.7922 21.1805 11.7922 22.5533V27.7265H8.68473V17.2561Z" fill="white"/>
<path d="M46.0273 22.3271C46.0273 23.1976 45.7129 23.8835 45.084 24.3848C44.4551 24.8861 43.5801 25.1367 42.459 25.1367C41.2741 25.1367 40.3581 24.9795 39.7109 24.665V23.4619C40.1348 23.6442 40.5973 23.7878 41.0986 23.8926C41.6045 23.9974 42.0762 24.0498 42.5137 24.0498C43.2611 24.0498 43.8239 23.9062 44.2021 23.6191C44.5804 23.332 44.7695 22.9378 44.7695 22.4365C44.7695 22.1038 44.7012 21.8304 44.5645 21.6162C44.4277 21.402 44.1976 21.2015 43.874 21.0146C43.555 20.8278 43.0697 20.6159 42.418 20.3789C41.4928 20.0417 40.832 19.6452 40.4355 19.1895C40.0391 18.7292 39.8408 18.1367 39.8408 17.4121C39.8408 16.6328 40.1325 16.013 40.7158 15.5527C41.3037 15.0924 42.0762 14.8623 43.0332 14.8623C44.0312 14.8623 44.9495 15.0492 45.7881 15.4229L45.3984 16.5029C44.5417 16.1475 43.7441 15.9697 43.0059 15.9697C42.4134 15.9697 41.9486 16.0973 41.6113 16.3525C41.2786 16.6077 41.1123 16.9655 41.1123 17.4258C41.1123 17.7539 41.1761 18.0273 41.3037 18.2461C41.4359 18.4603 41.6455 18.6562 41.9326 18.834C42.2243 19.0117 42.68 19.2145 43.2998 19.4424C44.0426 19.7158 44.5964 19.9824 44.9609 20.2422C45.3255 20.4974 45.5944 20.7936 45.7676 21.1309C45.9408 21.4635 46.0273 21.8623 46.0273 22.3271ZM49.1035 25H47.873V17.4941H49.1035V25ZM47.7773 15.4639C47.7773 15.1904 47.8457 14.9922 47.9824 14.8691C48.1237 14.7461 48.2969 14.6846 48.502 14.6846C48.6934 14.6846 48.8597 14.7461 49.001 14.8691C49.1468 14.9922 49.2197 15.1904 49.2197 15.4639C49.2197 15.7327 49.1468 15.931 49.001 16.0586C48.8597 16.1862 48.6934 16.25 48.502 16.25C48.2969 16.25 48.1237 16.1862 47.9824 16.0586C47.8457 15.931 47.7773 15.7327 47.7773 15.4639ZM54.3398 24.1318C55.0964 24.1318 55.6455 23.929 55.9873 23.5234C56.3337 23.1133 56.5068 22.457 56.5068 21.5547V21.2607C56.5068 20.2581 56.3337 19.529 55.9873 19.0732C55.641 18.6175 55.0827 18.3896 54.3125 18.3896C53.6836 18.3896 53.196 18.6403 52.8496 19.1416C52.5078 19.6383 52.3369 20.3493 52.3369 21.2744C52.3369 22.2041 52.5033 22.9128 52.8359 23.4004C53.1732 23.888 53.6745 24.1318 54.3398 24.1318ZM56.4932 24.9316L56.5342 24.0088H56.4795C55.9736 24.7607 55.1989 25.1367 54.1553 25.1367C53.1846 25.1367 52.4258 24.7995 51.8789 24.125C51.3366 23.446 51.0654 22.4912 51.0654 21.2607C51.0654 20.0531 51.3389 19.1006 51.8857 18.4033C52.4372 17.7061 53.1891 17.3574 54.1416 17.3574C55.1579 17.3574 55.9417 17.7357 56.4932 18.4922H56.5684L56.7324 17.4941H57.71V25.123C57.71 26.1986 57.4365 27.0075 56.8896 27.5498C56.3473 28.0921 55.502 28.3633 54.3535 28.3633C53.2598 28.3633 52.3597 28.2038 51.6533 27.8848V26.75C52.3825 27.1419 53.3053 27.3379 54.4219 27.3379C55.0599 27.3379 55.5635 27.151 55.9326 26.7773C56.3063 26.4036 56.4932 25.8864 56.4932 25.2256V24.9316ZM65.209 25V20.2012C65.209 19.5905 65.0723 19.137 64.7988 18.8408C64.5299 18.54 64.1061 18.3896 63.5273 18.3896C62.7572 18.3896 62.1966 18.6038 61.8457 19.0322C61.4993 19.4561 61.3262 20.1488 61.3262 21.1104V25H60.0957V17.4941H61.0869L61.2715 18.5195H61.3398C61.5723 18.1504 61.8981 17.8656 62.3174 17.665C62.7367 17.46 63.1992 17.3574 63.7051 17.3574C64.6257 17.3574 65.3092 17.5807 65.7559 18.0273C66.2025 18.474 66.4258 19.1689 66.4258 20.1123V25H65.209ZM80.1592 15.0059V21.4727C80.1592 22.612 79.8151 23.5075 79.127 24.1592C78.4388 24.8109 77.484 25.1367 76.2627 25.1367C75.055 25.1367 74.1185 24.8086 73.4531 24.1523C72.7878 23.4915 72.4551 22.5892 72.4551 21.4453V15.0059H73.7197V21.4863C73.7197 22.3021 73.9362 22.9333 74.3691 23.3799C74.8066 23.8265 75.4629 24.0498 76.3379 24.0498C77.1628 24.0498 77.7962 23.8288 78.2383 23.3867C78.6849 22.9447 78.9082 22.3066 78.9082 21.4727V15.0059H80.1592ZM86.1816 25.1367C85.1745 25.1367 84.3997 24.7744 83.8574 24.0498H83.7754L83.8027 24.3301C83.8392 24.6855 83.8574 25.0023 83.8574 25.2803V28.3633H82.627V17.4941H83.6387L83.8027 18.5195H83.8574C84.1491 18.1094 84.4863 17.8132 84.8691 17.6309C85.252 17.4486 85.694 17.3574 86.1953 17.3574C87.1706 17.3574 87.9271 17.6969 88.4648 18.376C89.0072 19.0505 89.2783 20.0029 89.2783 21.2334C89.2783 22.4593 89.0072 23.4163 88.4648 24.1045C87.9225 24.7926 87.1615 25.1367 86.1816 25.1367ZM85.9766 18.3896C85.2337 18.3896 84.696 18.5993 84.3633 19.0186C84.0352 19.4378 83.8665 20.0964 83.8574 20.9941V21.2334C83.8574 22.2497 84.026 22.9857 84.3633 23.4414C84.7005 23.8926 85.2474 24.1182 86.0039 24.1182C86.6328 24.1182 87.1227 23.863 87.4736 23.3525C87.8291 22.8421 88.0068 22.1312 88.0068 21.2197C88.0068 20.3037 87.8291 19.6042 87.4736 19.1211C87.1227 18.6335 86.6237 18.3896 85.9766 18.3896ZM101.009 25L99.7236 20.7754C99.6051 20.4245 99.432 19.7614 99.2041 18.7861H99.1494C98.958 19.6748 98.7894 20.3424 98.6436 20.7891L97.2969 25H95.9023L93.8447 17.4941H95.1162C95.5902 19.3398 95.9502 20.7435 96.1963 21.7051C96.4469 22.6667 96.5951 23.3457 96.6406 23.7422H96.6953L96.791 23.3184C96.9323 22.6667 97.069 22.1357 97.2012 21.7256L98.5342 17.4941H99.874L101.166 21.7256C101.212 21.8851 101.259 22.056 101.31 22.2383C101.364 22.416 101.414 22.5938 101.46 22.7715C101.506 22.9447 101.547 23.1156 101.583 23.2842C101.619 23.4482 101.647 23.5964 101.665 23.7285H101.727C101.768 23.3822 101.934 22.6393 102.226 21.5L103.278 17.4941H104.536L102.451 25H101.009ZM107.113 25H105.883V17.4941H107.113V25ZM105.787 15.4639C105.787 15.1904 105.855 14.9922 105.992 14.8691C106.133 14.7461 106.307 14.6846 106.512 14.6846C106.703 14.6846 106.869 14.7461 107.011 14.8691C107.157 14.9922 107.229 15.1904 107.229 15.4639C107.229 15.7327 107.157 15.931 107.011 16.0586C106.869 16.1862 106.703 16.25 106.512 16.25C106.307 16.25 106.133 16.1862 105.992 16.0586C105.855 15.931 105.787 15.7327 105.787 15.4639ZM112.001 24.1318C112.16 24.1318 112.347 24.1159 112.562 24.084C112.776 24.0521 112.938 24.0156 113.047 23.9746V24.918C112.933 24.9681 112.755 25.016 112.514 25.0615C112.277 25.1117 112.035 25.1367 111.789 25.1367C110.322 25.1367 109.588 24.3643 109.588 22.8193V18.4512H108.528V17.8633L109.602 17.3711L110.094 15.7715H110.825V17.4941H112.992V18.4512H110.825V22.7852C110.825 23.2181 110.928 23.5508 111.133 23.7832C111.342 24.0156 111.632 24.1318 112.001 24.1318ZM119.664 25V20.2012C119.664 19.5905 119.527 19.137 119.254 18.8408C118.985 18.54 118.561 18.3896 117.982 18.3896C117.221 18.3896 116.663 18.6016 116.308 19.0254C115.957 19.4492 115.781 20.1488 115.781 21.124V25H114.551V14.3633H115.781V17.4805C115.781 17.8906 115.758 18.2415 115.713 18.5332H115.795C116.018 18.1686 116.335 17.8838 116.745 17.6787C117.155 17.4736 117.618 17.3711 118.133 17.3711C119.044 17.3711 119.73 17.5898 120.19 18.0273C120.651 18.4603 120.881 19.1553 120.881 20.1123V25H119.664ZM127.013 25V15.0059H128.271V23.8789H132.639V25H127.013ZM135.414 25H134.184V17.4941H135.414V25ZM134.088 15.4639C134.088 15.1904 134.156 14.9922 134.293 14.8691C134.434 14.7461 134.607 14.6846 134.812 14.6846C135.004 14.6846 135.17 14.7461 135.312 14.8691C135.457 14.9922 135.53 15.1904 135.53 15.4639C135.53 15.7327 135.457 15.931 135.312 16.0586C135.17 16.1862 135.004 16.25 134.812 16.25C134.607 16.25 134.434 16.1862 134.293 16.0586C134.156 15.931 134.088 15.7327 134.088 15.4639ZM142.906 25V20.2012C142.906 19.5905 142.77 19.137 142.496 18.8408C142.227 18.54 141.803 18.3896 141.225 18.3896C140.454 18.3896 139.894 18.6038 139.543 19.0322C139.197 19.4561 139.023 20.1488 139.023 21.1104V25H137.793V17.4941H138.784L138.969 18.5195H139.037C139.27 18.1504 139.595 17.8656 140.015 17.665C140.434 17.46 140.896 17.3574 141.402 17.3574C142.323 17.3574 143.007 17.5807 143.453 18.0273C143.9 18.474 144.123 19.1689 144.123 20.1123V25H142.906ZM147.664 21.1377L148.081 20.6045L148.56 20.0303L150.959 17.4941H152.395L149.359 20.7002L152.606 25H151.123L148.519 21.5L147.664 22.2451V25H146.447V14.3633H147.664V19.9209L147.609 21.1377H147.664ZM156.981 25.1367C155.856 25.1367 154.972 24.7972 154.329 24.1182C153.691 23.4346 153.372 22.4958 153.372 21.3018C153.372 20.0986 153.671 19.1416 154.268 18.4307C154.865 17.7152 155.671 17.3574 156.688 17.3574C157.631 17.3574 158.383 17.6628 158.943 18.2734C159.504 18.8796 159.784 19.7021 159.784 20.7412V21.4863H154.644C154.666 22.3385 154.883 22.9857 155.293 23.4277C155.703 23.8698 156.284 24.0908 157.036 24.0908C157.437 24.0908 157.818 24.0566 158.178 23.9883C158.538 23.9154 158.959 23.7764 159.442 23.5713V24.6514C159.028 24.8291 158.638 24.9544 158.273 25.0273C157.909 25.1003 157.478 25.1367 156.981 25.1367ZM156.674 18.3623C156.086 18.3623 155.621 18.5514 155.279 18.9297C154.938 19.3079 154.735 19.8343 154.671 20.5088H158.492C158.483 19.807 158.321 19.2738 158.007 18.9092C157.692 18.5446 157.248 18.3623 156.674 18.3623ZM164.351 25.1367C163.375 25.1367 162.619 24.7995 162.081 24.125C161.543 23.4505 161.274 22.4958 161.274 21.2607C161.274 20.0348 161.543 19.0778 162.081 18.3896C162.623 17.7015 163.384 17.3574 164.364 17.3574C165.371 17.3574 166.146 17.7266 166.688 18.4648H166.777C166.764 18.3737 166.745 18.1914 166.723 17.918C166.7 17.64 166.688 17.4531 166.688 17.3574V14.3633H167.919V25H166.928L166.743 23.9951H166.688C166.164 24.7562 165.385 25.1367 164.351 25.1367ZM164.549 24.1182C165.296 24.1182 165.841 23.9154 166.183 23.5098C166.529 23.0996 166.702 22.4297 166.702 21.5V21.2744C166.702 20.2308 166.527 19.488 166.176 19.0459C165.829 18.5993 165.283 18.376 164.535 18.376C163.902 18.376 163.412 18.6289 163.065 19.1348C162.719 19.6361 162.546 20.3538 162.546 21.2881C162.546 22.2178 162.717 22.9219 163.059 23.4004C163.405 23.8789 163.902 24.1182 164.549 24.1182ZM173.285 25H169.676V24.2754L170.852 24.0088V16.0107L169.676 15.7305V15.0059H173.285V15.7305L172.109 16.0107V24.0088L173.285 24.2754V25ZM180.162 25V20.2012C180.162 19.5905 180.025 19.137 179.752 18.8408C179.483 18.54 179.059 18.3896 178.48 18.3896C177.71 18.3896 177.15 18.6038 176.799 19.0322C176.452 19.4561 176.279 20.1488 176.279 21.1104V25H175.049V17.4941H176.04L176.225 18.5195H176.293C176.525 18.1504 176.851 17.8656 177.271 17.665C177.69 17.46 178.152 17.3574 178.658 17.3574C179.579 17.3574 180.262 17.5807 180.709 18.0273C181.156 18.474 181.379 19.1689 181.379 20.1123V25H180.162Z" fill="#737171"/>
</g>
</svg>
