<svg width="200" height="37" viewBox="0 0 200 37" fill="none" xmlns="http://www.w3.org/2000/svg">
<g clip-path="url(#clip0_2041_4314)">
<path d="M41.1396 0.620605V31.0397C41.1396 34.286 38.5574 36.9311 35.3883 36.9311H26.7613V24.3066C26.7613 22.6834 25.4702 21.3609 23.8856 21.3609H14.3783V36.9311H5.75133C2.58223 36.9311 0 34.286 0 31.0397V6.51205C0 3.26574 2.58223 0.620605 5.75133 0.620605H41.1396Z" fill="#2A2D7C"/>
<path d="M23.8877 18.2953H17.256C15.6715 18.2953 14.3804 16.9727 14.3804 15.3495V10.2997C14.3804 8.67657 15.6715 7.354 17.256 7.354H26.7633V15.3495C26.7633 16.9727 25.4722 18.2953 23.8877 18.2953Z" fill="#27AAE1"/>
<path d="M62.7971 26.4114V31.401H48.7122V13.7267C48.7122 12.1036 50.0033 10.781 51.5878 10.781H54.7569V26.4114H62.7971Z" fill="#2A2D7C"/>
<path d="M74.7678 25.9905C74.533 26.4715 74.2983 26.8923 73.9462 27.0726C73.594 27.3131 73.1832 27.4333 72.655 27.4333C71.7747 27.4333 71.1292 27.0726 70.7184 26.3512C70.4249 25.8703 70.2489 25.209 70.1315 24.4275H80.6365V23.165C80.6365 21.3615 80.2843 19.7985 79.6388 18.4759C78.9932 17.1534 77.9956 16.1314 76.8218 15.41C75.5894 14.6886 74.1222 14.3279 72.479 14.3279C70.8357 14.3279 69.3686 14.6886 68.1361 15.3499C66.9037 16.0111 65.906 17.0331 65.2605 18.3557C64.5562 19.6783 64.2041 21.2413 64.2041 23.165C64.2041 24.9685 64.5562 26.5316 65.2605 27.8541C65.9647 29.1767 66.9037 30.1987 68.1948 30.9201C69.4272 31.6415 70.9531 32.0022 72.655 32.0022C74.7091 32.0022 76.5284 31.4611 77.9956 30.379C79.4627 29.2969 80.4017 27.8541 80.8125 25.9304H74.7678V25.9905ZM70.7184 20.039C71.1292 19.3176 71.716 18.9569 72.5377 18.9569C73.3006 18.9569 73.9461 19.3176 74.357 20.039C74.533 20.3997 74.7091 20.8205 74.8265 21.3615H70.3076C70.3662 20.8205 70.5423 20.3997 70.7184 20.039Z" fill="#2A2D7C"/>
<path d="M98.1252 29.8981C98.0078 29.2969 98.0078 28.3952 98.0078 27.253V21.061C98.0078 19.7985 97.7144 18.6563 97.1862 17.6343C96.5993 16.6123 95.7777 15.8308 94.7213 15.2296C93.6063 14.6285 92.3152 14.3279 90.6719 14.3279C89.2634 14.3279 88.031 14.5683 86.916 15.0493C85.8009 15.5302 84.9206 16.2516 84.2164 17.1534C83.5121 18.0551 83.1013 19.1372 82.9252 20.3997H88.6766C88.7353 19.9789 88.97 19.6783 89.2635 19.4378C89.5569 19.1973 89.9677 19.017 90.4959 19.017C91.0827 19.017 91.4936 19.1973 91.8457 19.4979C92.1391 19.7985 92.3152 20.2794 92.3152 20.9407V21.3615C91.3762 21.3615 90.4372 21.4217 89.5569 21.4818C88.4418 21.602 87.3855 21.8425 86.2704 22.2633C84.9206 22.7442 83.9229 23.4055 83.3361 24.2471C82.6905 25.0888 82.3384 26.0506 82.3384 27.1929C82.3384 28.275 82.5731 29.1166 83.0426 29.838C83.5121 30.5594 84.099 31.1004 84.9206 31.4611C85.6835 31.8218 86.5638 32.0022 87.5028 32.0022C88.2658 32.0022 89.0287 31.882 89.7916 31.5814C90.4959 31.3409 91.2001 30.9201 91.7283 30.379C91.9631 30.1386 92.1391 29.8981 92.3152 29.6576V29.838C92.3739 30.4392 92.4326 30.9802 92.4912 31.401H98.3599C98.2426 31.0403 98.1839 30.4993 98.1252 29.8981ZM92.2565 26.772C92.2565 27.6137 91.6109 28.275 90.7893 28.275H89.3808C89.0874 28.275 88.8526 28.2148 88.6179 28.0345C88.5592 27.9744 88.5005 27.9143 88.4418 27.9143C88.2658 27.794 88.1484 27.6137 88.0897 27.3732C88.031 27.1929 87.9723 27.0125 87.9723 26.772V25.9304C87.9723 25.0888 88.6179 24.4275 89.4395 24.4275H92.2565V26.772Z" fill="#2A2D7C"/>
<path d="M110.627 9.57861V16.3718C109.688 15.0492 108.455 14.388 106.871 14.388C104.875 14.388 103.232 15.1695 102.058 16.6724C100.826 18.2354 100.239 20.3996 100.239 23.2251C100.239 25.0286 100.533 26.5917 101.061 27.9142C101.589 29.2368 102.352 30.2588 103.408 30.9802C104.406 31.7016 105.521 32.0623 106.812 32.0623C107.692 32.0623 108.573 31.8819 109.336 31.3409C109.864 30.9802 110.333 30.5594 110.685 29.9582V31.4611H116.437V9.57861H110.627ZM110.099 26.2911C109.688 27.0125 109.16 27.3732 108.397 27.3732C107.692 27.3732 107.106 27.0125 106.695 26.2911C106.284 25.5697 106.108 24.5477 106.108 23.2251C106.108 21.9025 106.284 20.8204 106.695 20.1592C107.106 19.4378 107.634 19.0771 108.397 19.0771C109.16 19.0771 109.688 19.4378 110.099 20.1592C110.509 20.8806 110.685 21.9025 110.685 23.2251C110.627 24.5477 110.451 25.5697 110.099 26.2911Z" fill="#2A2D7C"/>
<path d="M133.986 26.231C133.986 27.3732 133.693 28.3351 133.047 29.2368C132.402 30.1386 131.521 30.7999 130.406 31.2808C129.291 31.7617 128 32.0022 126.474 32.0022C124.362 32.0022 122.601 31.5213 121.134 30.5594C119.667 29.5975 118.845 28.0946 118.552 25.9905H124.303C124.362 26.4715 124.596 26.8923 125.007 27.1929C125.418 27.4934 125.946 27.6137 126.592 27.6137C127.12 27.6137 127.531 27.5536 127.824 27.3732C128.059 27.1929 128.235 26.9524 128.235 26.5917C128.235 26.231 128.059 25.9905 127.707 25.8102C127.355 25.6298 126.944 25.5096 126.357 25.3894C125.77 25.2691 125.183 25.1489 124.538 25.0287C123.892 24.9084 123.188 24.7882 122.542 24.5477C121.897 24.3674 121.251 24.0668 120.723 23.7061C120.136 23.3454 119.725 22.8645 119.373 22.2633C119.021 21.6621 118.845 20.8806 118.845 19.9789C118.845 19.017 119.08 18.1152 119.608 17.2135C120.136 16.3719 120.899 15.6504 121.897 15.1094C122.894 14.5683 124.186 14.3279 125.711 14.3279C127.061 14.3279 128.294 14.5683 129.409 14.9892C130.524 15.41 131.404 16.0713 132.108 16.973C132.813 17.8748 133.223 19.017 133.341 20.3997H127.589C127.472 19.8586 127.296 19.4378 126.944 19.1372C126.592 18.8366 126.122 18.7164 125.535 18.7164C125.183 18.7164 124.89 18.7765 124.655 18.9569C124.42 19.1372 124.303 19.3777 124.303 19.6182C124.303 19.9789 124.479 20.2193 124.831 20.3997C125.183 20.58 125.653 20.7604 126.181 20.8806C126.768 21.0008 127.413 21.1211 128.059 21.2413C128.763 21.3615 129.467 21.4818 130.113 21.7222C130.817 21.9026 131.404 22.2032 131.991 22.5639C132.578 22.9246 133.047 23.4055 133.341 23.9466C133.81 24.5477 133.986 25.3292 133.986 26.231Z" fill="#27AAE1"/>
<path d="M142.492 19.3777V24.7882C142.492 25.4494 142.61 25.9905 142.903 26.4113C143.138 26.8321 143.725 27.0125 144.605 27.0125H145.661V31.4611C145.309 31.5814 144.898 31.7617 144.312 31.8819C143.725 32.0022 143.079 32.0623 142.316 32.0623C140.438 32.0623 139.088 31.5212 138.149 30.4391C137.21 29.357 136.8 27.794 136.8 25.75V19.3777H135.039V14.929H136.8V11.0815H142.551V14.929H145.72V19.3777H142.492Z" fill="#27AAE1"/>
<path d="M162.975 29.8981C162.916 29.2969 162.857 28.3952 162.857 27.253V21.061C162.857 19.7985 162.564 18.6563 162.036 17.6343C161.449 16.6123 160.627 15.8308 159.571 15.2296C158.456 14.6285 157.165 14.3279 155.522 14.3279C154.113 14.3279 152.881 14.5683 151.766 15.0493C150.651 15.5302 149.77 16.2516 149.066 17.1534C148.362 18.0551 147.951 19.1372 147.775 20.3997H153.526C153.585 19.9789 153.761 19.6783 154.113 19.4378C154.406 19.1973 154.817 19.017 155.345 19.017C155.932 19.017 156.343 19.1973 156.695 19.4979C156.989 19.7985 157.165 20.2794 157.165 20.9407V21.3615C156.226 21.3615 155.287 21.4217 154.406 21.4818C153.35 21.602 152.235 21.8425 151.12 22.2633C149.829 22.7442 148.831 23.4055 148.186 24.2471C147.54 25.0888 147.188 26.0506 147.188 27.1929C147.188 28.275 147.423 29.1166 147.892 29.838C148.362 30.5594 148.949 31.1004 149.77 31.4611C150.592 31.8218 151.413 32.0022 152.352 32.0022C153.174 32.0022 153.937 31.882 154.641 31.5814C155.345 31.3409 156.05 30.9201 156.578 30.379C156.813 30.1386 156.989 29.8981 157.165 29.6576C157.165 29.7178 157.165 29.7779 157.165 29.838C157.223 30.4392 157.282 30.9802 157.341 31.401H163.21C163.151 31.0403 163.033 30.4993 162.975 29.8981ZM157.047 26.772C157.047 27.6137 156.402 28.275 155.58 28.275H154.172C153.35 28.275 152.705 27.6137 152.705 26.772V25.9304C152.705 25.0888 153.35 24.4275 154.172 24.4275H156.989V26.772H157.047Z" fill="#27AAE1"/>
<path d="M180.697 21.061H174.945C174.828 20.2794 174.652 19.7384 174.3 19.4979C173.948 19.2575 173.596 19.0771 173.185 19.0771C172.481 19.0771 171.894 19.4378 171.542 20.0991C171.189 20.8205 171.013 21.8425 171.013 23.165C171.013 24.4876 171.189 25.5096 171.6 26.231C172.011 26.9524 172.598 27.253 173.361 27.253C173.772 27.253 174.183 27.1327 174.417 26.8322C174.711 26.5316 174.887 26.1709 175.004 25.6298H180.755C180.403 27.7339 179.582 29.2969 178.173 30.379C176.765 31.4611 175.122 32.0022 173.185 32.0022C171.542 32.0022 170.074 31.6415 168.842 30.9201C167.61 30.1987 166.671 29.1767 166.025 27.8541C165.379 26.5316 165.027 24.9685 165.027 23.165C165.027 21.3014 165.379 19.6783 166.025 18.3557C166.671 17.0331 167.668 16.0111 168.842 15.3499C170.074 14.6886 171.483 14.3279 173.126 14.3279C174.417 14.3279 175.591 14.5683 176.647 15.0493C177.704 15.5302 178.584 16.2516 179.288 17.2736C180.051 18.2956 180.521 19.558 180.697 21.061Z" fill="#27AAE1"/>
<path d="M199.541 31.4611H192.674L188.507 24.3673V31.4611H182.756V12.5243C182.756 10.9012 184.047 9.57861 185.632 9.57861H188.507V21.3014L192.616 14.9891H199.071L193.965 22.2031L199.541 31.4611Z" fill="#27AAE1"/>
</g>
<defs>
<clipPath id="clip0_2041_4314">
<rect width="199.536" height="36.3105" fill="white" transform="translate(0 0.620605)"/>
</clipPath>
</defs>
</svg>
