<svg width="87" height="16" viewBox="0 0 87 16" fill="none" xmlns="http://www.w3.org/2000/svg">
<g clip-path="url(#clip0_4206_25472)">
<path d="M18.3996 0V12.8C18.3996 14.2 17.2996 15.3 15.8996 15.3H12.1996V10C12.1996 9.3 11.5996 8.8 10.9996 8.8H6.79961V15.4H3.09961C1.69961 15.4 0.599609 14.3 0.599609 12.9V2.5C0.599609 1.1 1.69961 0 3.09961 0H18.3996Z" fill="white"/>
<path d="M10.8994 7.3999H8.09941C7.39941 7.3999 6.89941 6.7999 6.89941 6.1999V4.0999C6.89941 3.3999 7.49941 2.8999 8.09941 2.8999H12.1994V6.2999C12.1994 6.8999 11.5994 7.3999 10.8994 7.3999Z" fill="#27AAE1"/>
<path d="M27.4994 9.9501V12.0501H21.3994V4.5501C21.3994 3.8501 21.9994 3.3501 22.5994 3.3501H23.9994V9.9501H27.4994Z" fill="white"/>
<path d="M32.6992 9.7501C32.5992 9.9501 32.4992 10.1501 32.2992 10.2501C32.1992 10.3501 31.9992 10.3501 31.6992 10.3501C31.2992 10.3501 31.0992 10.1501 30.8992 9.8501C30.7992 9.6501 30.6992 9.3501 30.6992 9.0501H35.1992V8.5501C35.1992 7.7501 35.0992 7.1501 34.7992 6.5501C34.4992 5.9501 34.0992 5.5501 33.5992 5.2501C33.0992 5.0501 32.3992 4.8501 31.6992 4.8501C30.9992 4.8501 30.3992 4.9501 29.7992 5.2501C29.2992 5.5501 28.7992 5.9501 28.5992 6.5501C28.2992 7.1501 28.1992 7.7501 28.1992 8.5501C28.1992 9.3501 28.2992 9.9501 28.5992 10.5501C28.8992 11.1501 29.2992 11.5501 29.8992 11.8501C30.3992 12.1501 31.0992 12.3501 31.7992 12.3501C32.6992 12.3501 33.4992 12.1501 34.0992 11.6501C34.6992 11.2501 35.0992 10.5501 35.2992 9.7501H32.6992ZM30.8992 7.2501C31.0992 6.9501 31.2992 6.7501 31.6992 6.7501C31.9992 6.7501 32.2992 6.9501 32.4992 7.2501C32.5992 7.4501 32.6992 7.5501 32.6992 7.8501H30.7992C30.7992 7.5501 30.8992 7.3501 30.8992 7.2501Z" fill="white"/>
<path d="M42.7998 11.4501C42.7998 11.1501 42.6998 10.8501 42.6998 10.3501V7.6501C42.6998 7.1501 42.5998 6.6501 42.2998 6.2501C42.0998 5.8501 41.6998 5.4501 41.1998 5.2501C40.6998 5.0501 40.0998 4.8501 39.4998 4.8501C38.8998 4.8501 38.3998 4.9501 37.8998 5.1501C37.3998 5.3501 36.9998 5.6501 36.6998 6.0501C36.3998 6.4501 36.1998 6.8501 36.0998 7.4501H38.5998C38.5998 7.2501 38.6998 7.1501 38.7998 7.0501C38.8998 6.9501 39.0998 6.8501 39.2998 6.8501C39.4998 6.8501 39.6998 6.9501 39.8998 7.0501C39.9998 7.1501 40.0998 7.3501 40.0998 7.6501V7.8501C39.6998 7.8501 39.2998 7.8501 38.8998 7.9501C38.3998 7.9501 37.9998 8.1501 37.4998 8.2501C36.8998 8.4501 36.4998 8.7501 36.1998 9.0501C35.8998 9.4501 35.7998 9.8501 35.7998 10.2501C35.7998 10.6501 35.8998 11.0501 36.0998 11.3501C36.2998 11.6501 36.5998 11.8501 36.8998 12.0501C37.1998 12.1501 37.5998 12.2501 37.9998 12.2501C38.2998 12.2501 38.6998 12.1501 38.9998 12.0501C39.2998 11.9501 39.5998 11.7501 39.7998 11.5501C39.8998 11.4501 39.9998 11.3501 40.0998 11.2501V11.3501C40.0998 11.6501 40.0998 11.8501 40.1998 12.0501H42.6998C42.8998 11.8501 42.7998 11.6501 42.7998 11.4501ZM40.1998 10.0501C40.1998 10.3501 39.8998 10.6501 39.5998 10.6501H38.9998C38.8998 10.6501 38.7998 10.6501 38.6998 10.5501C38.6998 10.5501 38.5998 10.5501 38.5998 10.4501C38.4998 10.3501 38.4998 10.3501 38.3998 10.2501C38.3998 10.1501 38.3998 10.0501 38.3998 10.0501V9.7501C38.3998 9.4501 38.6998 9.1501 38.9998 9.1501H40.1998V10.0501Z" fill="white"/>
<path d="M48.1992 2.8501V5.7501C47.7992 5.1501 47.2992 4.9501 46.5992 4.9501C45.6992 4.9501 44.9992 5.2501 44.4992 5.9501C43.9992 6.6501 43.6992 7.5501 43.6992 8.7501C43.6992 9.5501 43.7992 10.1501 44.0992 10.7501C44.2992 11.3501 44.6992 11.7501 45.0992 12.0501C45.4992 12.3501 45.9992 12.4501 46.5992 12.5501C46.9992 12.5501 47.3992 12.4501 47.6992 12.2501C47.8992 12.0501 48.0992 11.9501 48.2992 11.6501V12.0501H50.7992V2.8501H48.1992ZM47.8992 9.8501C47.6992 10.1501 47.4992 10.2501 47.1992 10.2501C46.8992 10.2501 46.5992 10.0501 46.4992 9.8501C46.2992 9.5501 46.1992 9.1501 46.1992 8.5501C46.1992 7.9501 46.2992 7.5501 46.4992 7.2501C46.6992 6.9501 46.8992 6.8501 47.1992 6.8501C47.4992 6.8501 47.7992 6.9501 47.8992 7.2501C48.0992 7.5501 48.1992 7.9501 48.1992 8.5501C48.1992 9.1501 48.0992 9.5501 47.8992 9.8501Z" fill="white"/>
<path d="M58.2992 9.85029C58.2992 10.3503 58.1992 10.7503 57.8992 11.1503C57.5992 11.5503 57.1992 11.8503 56.7992 12.0503C56.2992 12.2503 55.7992 12.3503 55.0992 12.3503C54.1992 12.3503 53.3992 12.1503 52.7992 11.7503C52.1992 11.3503 51.7992 10.7503 51.6992 9.85029H54.1992C54.1992 10.0503 54.2992 10.2503 54.4992 10.3503C54.6992 10.4503 54.8992 10.5503 55.1992 10.5503C55.3992 10.5503 55.5992 10.5503 55.6992 10.4503C55.7992 10.3503 55.8992 10.2503 55.8992 10.1503C55.8992 10.0503 55.7992 9.85029 55.6992 9.85029C55.5992 9.75029 55.3992 9.75029 55.0992 9.65029C54.8992 9.65029 54.5992 9.55029 54.2992 9.55029C53.9992 9.55029 53.6992 9.45029 53.3992 9.35029C53.0992 9.25029 52.8992 9.15029 52.5992 9.05029C52.3992 8.95029 52.1992 8.75029 51.9992 8.45029C51.8992 8.15029 51.7992 7.85029 51.7992 7.45029C51.7992 7.05029 51.8992 6.65029 52.0992 6.25029C52.2992 5.85029 52.6992 5.55029 53.0992 5.35029C53.4992 5.15029 54.0992 5.05029 54.6992 5.05029C55.2992 5.05029 55.7992 5.15029 56.2992 5.35029C56.7992 5.55029 57.1992 5.85029 57.4992 6.15029C57.7992 6.55029 57.9992 7.05029 57.9992 7.55029H55.4992C55.4992 7.35029 55.3992 7.15029 55.1992 7.05029C54.9992 6.95029 54.7992 6.85029 54.5992 6.85029C54.3992 6.85029 54.2992 6.85029 54.1992 6.95029C54.0992 7.05029 53.9992 7.15029 53.9992 7.25029C53.9992 7.35029 54.0992 7.55029 54.1992 7.55029C54.3992 7.65029 54.4992 7.65029 54.7992 7.75029C54.9992 7.75029 55.2992 7.85029 55.5992 7.85029C55.8992 7.85029 56.1992 7.95029 56.4992 8.05029C56.7992 8.15029 57.0992 8.25029 57.2992 8.35029C57.4992 8.45029 57.6992 8.65029 57.8992 8.95029C58.1992 9.15029 58.2992 9.45029 58.2992 9.85029Z" fill="#27AAE1"/>
<path d="M61.8996 6.9502V9.2502C61.8996 9.5502 61.9996 9.7502 62.0996 9.95019C62.1996 10.1502 62.4996 10.2502 62.7996 10.2502H63.2996V12.0502C63.1996 12.1502 62.9996 12.1502 62.6996 12.2502C62.3996 12.3502 62.1996 12.3502 61.7996 12.3502C60.9996 12.3502 60.3996 12.1502 59.9996 11.6502C59.5996 11.1502 59.3996 10.5502 59.3996 9.6502V6.9502H58.5996V5.0502H59.3996V3.4502H61.8996V5.0502H63.2996V6.9502H61.8996Z" fill="#27AAE1"/>
<path d="M70.7994 11.4501C70.7994 11.1501 70.6994 10.8501 70.6994 10.3501V7.6501C70.6994 7.1501 70.5994 6.6501 70.2994 6.2501C70.0994 5.8501 69.6994 5.4501 69.1994 5.2501C68.6994 5.0501 68.0994 4.8501 67.4994 4.8501C66.8994 4.8501 66.3994 4.9501 65.8994 5.1501C65.3994 5.3501 65.0994 5.6501 64.7994 6.0501C64.4994 6.4501 64.2994 6.8501 64.1994 7.4501H66.6994C66.6994 7.2501 66.7994 7.1501 66.8994 7.0501C66.9994 6.9501 67.1994 6.8501 67.3994 6.8501C67.5994 6.8501 67.7994 6.9501 67.9994 7.0501C68.0994 7.1501 68.1994 7.3501 68.1994 7.6501V7.8501C67.7994 7.8501 67.3994 7.8501 66.9994 7.9501C66.4994 7.9501 66.0994 8.1501 65.5994 8.2501C64.9994 8.4501 64.5994 8.7501 64.2994 9.0501C63.9994 9.4501 63.8994 9.8501 63.8994 10.2501C63.8994 10.6501 63.9994 11.0501 64.1994 11.3501C64.3994 11.6501 64.6994 11.8501 64.9994 12.0501C65.2994 12.2501 65.6994 12.2501 66.0994 12.2501C66.3994 12.2501 66.7994 12.1501 67.0994 12.0501C67.3994 11.9501 67.6994 11.7501 67.8994 11.5501C67.9994 11.4501 68.0994 11.3501 68.1994 11.2501C68.1994 11.2501 68.1994 11.2501 68.1994 11.3501C68.1994 11.6501 68.1994 11.8501 68.2994 12.0501H70.7994C70.8994 11.8501 70.7994 11.6501 70.7994 11.4501ZM68.1994 10.0501C68.1994 10.3501 67.8994 10.6501 67.5994 10.6501H66.9994C66.6994 10.6501 66.3994 10.3501 66.3994 10.0501V9.7501C66.3994 9.4501 66.6994 9.1501 66.9994 9.1501H68.1994V10.0501Z" fill="#27AAE1"/>
<path d="M78.3992 7.6499H75.8992C75.8992 7.3499 75.7992 7.0499 75.5992 6.9499C75.4992 6.8499 75.2992 6.7499 75.0992 6.7499C74.7992 6.7499 74.4992 6.8499 74.3992 7.1499C74.1992 7.4499 74.1992 7.8499 74.1992 8.4499C74.1992 9.0499 74.2992 9.4499 74.3992 9.7499C74.5992 10.0499 74.7992 10.1499 75.1992 10.1499C75.3992 10.1499 75.4992 10.0499 75.6992 9.9499C75.7992 9.8499 75.8992 9.6499 75.9992 9.4499H78.4992C78.3992 10.3499 77.9992 10.9499 77.3992 11.4499C76.7992 11.8499 76.0992 12.1499 75.1992 12.1499C74.4992 12.1499 73.8992 11.9499 73.2992 11.6499C72.7992 11.3499 72.3992 10.9499 72.0992 10.3499C71.7992 9.7499 71.6992 9.1499 71.6992 8.3499C71.6992 7.5499 71.7992 6.8499 72.0992 6.3499C72.3992 5.7499 72.7992 5.3499 73.2992 5.0499C73.7992 4.7499 74.3992 4.6499 75.0992 4.6499C75.6992 4.6499 76.1992 4.7499 76.5992 4.9499C77.0992 5.1499 77.3992 5.4499 77.6992 5.8499C78.1992 6.5499 78.3992 7.0499 78.3992 7.6499Z" fill="#27AAE1"/>
<path d="M86.5998 12.0501H83.5998L81.7998 9.0501V12.0501H79.2998V4.0501C79.2998 3.3501 79.8998 2.8501 80.4998 2.8501H81.6998V7.7501L83.5998 5.0501H86.3998L84.1998 8.0501L86.5998 12.0501Z" fill="#27AAE1"/>
</g>
<defs>
<clipPath id="clip0_4206_25472">
<rect width="86" height="15.4" fill="white" transform="translate(0.599609)"/>
</clipPath>
</defs>
</svg>
