<svg width="20" height="21" viewBox="0 0 20 21" fill="none" xmlns="http://www.w3.org/2000/svg">
<path opacity="0.4" d="M1.66797 11.4581V6.47474C1.66797 4.17474 3.53464 2.31641 5.83464 2.31641H14.168C16.468 2.31641 18.3346 4.17474 18.3346 6.47474V12.2914C18.3346 14.5831 16.468 16.4414 14.168 16.4414H12.918C12.6596 16.4414 12.4096 16.5664 12.2513 16.7747L11.0013 18.4331C10.4513 19.1664 9.5513 19.1664 9.0013 18.4331L7.7513 16.7747C7.61797 16.5914 7.31797 16.4414 7.08464 16.4414H5.83464C3.53464 16.4414 1.66797 14.5831 1.66797 12.2914V11.4581Z" fill="#292D32"/>
<path d="M10.0013 10.6501C9.53464 10.6501 9.16797 10.2751 9.16797 9.81673C9.16797 9.3584 9.54297 8.9834 10.0013 8.9834C10.4596 8.9834 10.8346 9.3584 10.8346 9.81673C10.8346 10.2751 10.468 10.6501 10.0013 10.6501Z" fill="#292D32"/>
<path d="M13.3333 10.6501C12.8667 10.6501 12.5 10.2751 12.5 9.81673C12.5 9.3584 12.875 8.9834 13.3333 8.9834C13.7917 8.9834 14.1667 9.3584 14.1667 9.81673C14.1667 10.2751 13.8 10.6501 13.3333 10.6501Z" fill="#292D32"/>
<path d="M6.66536 10.6501C6.1987 10.6501 5.83203 10.2751 5.83203 9.81673C5.83203 9.3584 6.20703 8.9834 6.66536 8.9834C7.1237 8.9834 7.4987 9.3584 7.4987 9.81673C7.4987 10.2751 7.13203 10.6501 6.66536 10.6501Z" fill="#292D32"/>
</svg>
