<svg width="199" height="215" viewBox="0 0 199 215" fill="none" xmlns="http://www.w3.org/2000/svg">
<circle cx="99.2501" cy="82.2662" r="58.5518" fill="url(#paint0_linear_632_34175)"/>
<rect x="75.4976" y="80.2188" width="58.9613" height="81.8907" rx="6.55126" transform="rotate(2.5 75.4976 80.2188)" fill="#DCE1EA"/>
<rect x="42.2013" y="76.272" width="60.5991" height="83.5285" rx="7.37016" transform="rotate(-7.5 42.2013 76.272)" fill="#F7F9FC" stroke="white" stroke-width="1.63781"/>
<rect x="114.29" y="71.7373" width="2.45672" height="8.18907" rx="1.22836" transform="rotate(82.5 114.29 71.7373)" fill="#DEDFEC"/>
<rect x="91.855" y="58.1714" width="2.45672" height="8.18907" rx="1.22836" transform="rotate(-7.5 91.855 58.1714)" fill="#DEDFEC"/>
<rect x="106.25" y="60.4062" width="2.45672" height="8.18907" rx="1.22836" transform="rotate(37.5 106.25 60.4062)" fill="#DEDFEC"/>
<rect x="51.6895" y="98.1504" width="47.4966" height="3.27563" rx="1.63781" transform="rotate(-7.5 51.6895 98.1504)" fill="#DEDFEC"/>
<rect x="53.8271" y="114.388" width="47.4966" height="3.27563" rx="1.63781" transform="rotate(-7.5 53.8271 114.388)" fill="#DEDFEC"/>
<rect x="55.9648" y="130.626" width="47.4966" height="3.27563" rx="1.63781" transform="rotate(-7.5 55.9648 130.626)" fill="#DEDFEC"/>
<rect x="52.5444" y="104.646" width="17.197" height="3.27563" rx="1.63781" transform="rotate(-7.5 52.5444 104.646)" fill="#272848" fill-opacity="0.05"/>
<rect x="54.6826" y="120.883" width="17.197" height="3.27563" rx="1.63781" transform="rotate(-7.5 54.6826 120.883)" fill="#272848" fill-opacity="0.05"/>
<rect x="56.8203" y="137.122" width="17.197" height="3.27563" rx="1.63781" transform="rotate(-7.5 56.8203 137.122)" fill="#272848" fill-opacity="0.05"/>
<path d="M37.4441 212.175H35.6367L30.1988 203.947V212.175H28.3914V201.141H30.1988L35.6367 209.353V201.141H37.4441V212.175ZM43.6066 212.318C42.7822 212.318 42.0371 212.133 41.3712 211.763C40.7053 211.383 40.1821 210.854 39.8016 210.178C39.4211 209.491 39.2309 208.698 39.2309 207.8C39.2309 206.912 39.4264 206.124 39.8175 205.437C40.2086 204.75 40.7423 204.222 41.4187 203.852C42.0952 203.482 42.8509 203.297 43.6859 203.297C44.5209 203.297 45.2766 203.482 45.953 203.852C46.6294 204.222 47.1632 204.75 47.5543 205.437C47.9453 206.124 48.1409 206.912 48.1409 207.8C48.1409 208.687 47.94 209.475 47.5384 210.162C47.1368 210.849 46.5872 211.383 45.8896 211.763C45.2026 212.133 44.4416 212.318 43.6066 212.318ZM43.6066 210.748C44.0717 210.748 44.505 210.637 44.9066 210.415C45.3188 210.194 45.6518 209.861 45.9054 209.417C46.1591 208.973 46.2859 208.434 46.2859 207.8C46.2859 207.165 46.1644 206.632 45.9213 206.198C45.6782 205.754 45.3558 205.421 44.9542 205.2C44.5526 204.978 44.1192 204.867 43.6542 204.867C43.1891 204.867 42.7558 204.978 42.3541 205.2C41.9631 205.421 41.6513 205.754 41.4187 206.198C41.1862 206.632 41.07 207.165 41.07 207.8C41.07 208.74 41.3078 209.47 41.7834 209.987C42.2696 210.495 42.8773 210.748 43.6066 210.748ZM59.7692 212.175L57.2325 207.768H55.8532V212.175H54.0459V201.157H57.8508C58.6964 201.157 59.4098 201.305 59.9911 201.601C60.583 201.897 61.0216 202.293 61.307 202.79C61.603 203.286 61.7509 203.841 61.7509 204.454C61.7509 205.173 61.5395 205.828 61.1168 206.42C60.7046 207.002 60.0651 207.398 59.1984 207.609L61.9253 212.175H59.7692ZM55.8532 206.325H57.8508C58.5273 206.325 59.0346 206.156 59.3728 205.818C59.7216 205.48 59.896 205.025 59.896 204.454C59.896 203.884 59.7269 203.44 59.3887 203.123C59.0505 202.795 58.5378 202.631 57.8508 202.631H55.8532V206.325ZM72.0693 207.593C72.0693 207.921 72.0482 208.217 72.0059 208.481H65.3313C65.3842 209.179 65.6431 209.739 66.1082 210.162C66.5732 210.585 67.144 210.796 67.8204 210.796C68.7928 210.796 69.4798 210.389 69.8815 209.575H71.8315C71.5673 210.379 71.0864 211.039 70.3888 211.557C69.7018 212.064 68.8457 212.318 67.8204 212.318C66.9854 212.318 66.235 212.133 65.5692 211.763C64.9139 211.383 64.396 210.854 64.0155 210.178C63.6455 209.491 63.4606 208.698 63.4606 207.8C63.4606 206.901 63.6402 206.114 63.9996 205.437C64.3695 204.75 64.8821 204.222 65.5374 203.852C66.2033 203.482 66.9643 203.297 67.8204 203.297C68.6448 203.297 69.3794 203.477 70.0241 203.836C70.6689 204.195 71.1709 204.703 71.5303 205.358C71.8896 206.003 72.0693 206.748 72.0693 207.593ZM70.1827 207.023C70.1721 206.357 69.9343 205.823 69.4692 205.421C69.0042 205.02 68.4282 204.819 67.7412 204.819C67.1176 204.819 66.5838 205.02 66.1399 205.421C65.696 205.813 65.4318 206.346 65.3472 207.023H70.1827ZM73.2455 207.8C73.2455 206.901 73.4252 206.114 73.7845 205.437C74.1544 204.75 74.6618 204.222 75.3065 203.852C75.9512 203.482 76.6911 203.297 77.5261 203.297C78.583 203.297 79.455 203.551 80.142 204.058C80.8396 204.555 81.3099 205.268 81.553 206.198H79.603C79.4444 205.765 79.1907 205.427 78.842 205.184C78.4932 204.941 78.0545 204.819 77.5261 204.819C76.7862 204.819 76.1943 205.083 75.7504 205.612C75.3171 206.13 75.1004 206.859 75.1004 207.8C75.1004 208.74 75.3171 209.475 75.7504 210.003C76.1943 210.532 76.7862 210.796 77.5261 210.796C78.5724 210.796 79.2647 210.336 79.603 209.417H81.553C81.2993 210.305 80.8237 211.013 80.1261 211.541C79.4286 212.059 78.5619 212.318 77.5261 212.318C76.6911 212.318 75.9512 212.133 75.3065 211.763C74.6618 211.383 74.1544 210.854 73.7845 210.178C73.4252 209.491 73.2455 208.698 73.2455 207.8ZM87.1433 212.318C86.3189 212.318 85.5737 212.133 84.9079 211.763C84.242 211.383 83.7188 210.854 83.3383 210.178C82.9578 209.491 82.7676 208.698 82.7676 207.8C82.7676 206.912 82.9631 206.124 83.3542 205.437C83.7452 204.75 84.279 204.222 84.9554 203.852C85.6319 203.482 86.3876 203.297 87.2225 203.297C88.0575 203.297 88.8132 203.482 89.4897 203.852C90.1661 204.222 90.6999 204.75 91.0909 205.437C91.482 206.124 91.6775 206.912 91.6775 207.8C91.6775 208.687 91.4767 209.475 91.0751 210.162C90.6734 210.849 90.1238 211.383 89.4263 211.763C88.7392 212.133 87.9783 212.318 87.1433 212.318ZM87.1433 210.748C87.6083 210.748 88.0417 210.637 88.4433 210.415C88.8555 210.194 89.1884 209.861 89.4421 209.417C89.6958 208.973 89.8226 208.434 89.8226 207.8C89.8226 207.165 89.7011 206.632 89.458 206.198C89.2149 205.754 88.8925 205.421 88.4909 205.2C88.0892 204.978 87.6559 204.867 87.1908 204.867C86.7258 204.867 86.2924 204.978 85.8908 205.2C85.4997 205.421 85.1879 205.754 84.9554 206.198C84.7229 206.632 84.6066 207.165 84.6066 207.8C84.6066 208.74 84.8444 209.47 85.3201 209.987C85.8063 210.495 86.414 210.748 87.1433 210.748ZM95.2716 204.708C95.5358 204.264 95.8846 203.921 96.3179 203.678C96.7618 203.424 97.285 203.297 97.8875 203.297V205.168H97.4277C96.7196 205.168 96.1805 205.347 95.8106 205.707C95.4512 206.066 95.2716 206.69 95.2716 207.578V212.175H93.4642V203.44H95.2716V204.708ZM98.9464 207.768C98.9464 206.891 99.126 206.114 99.4854 205.437C99.8553 204.761 100.352 204.238 100.976 203.868C101.61 203.487 102.313 203.297 103.084 203.297C103.655 203.297 104.215 203.424 104.765 203.678C105.325 203.921 105.769 204.248 106.097 204.66V200.443H107.92V212.175H106.097V210.859C105.801 211.282 105.388 211.631 104.86 211.906C104.342 212.181 103.745 212.318 103.068 212.318C102.307 212.318 101.61 212.128 100.976 211.747C100.352 211.356 99.8553 210.817 99.4854 210.13C99.126 209.433 98.9464 208.645 98.9464 207.768ZM106.097 207.8C106.097 207.197 105.97 206.674 105.716 206.23C105.473 205.786 105.151 205.448 104.749 205.215C104.347 204.983 103.914 204.867 103.449 204.867C102.984 204.867 102.551 204.983 102.149 205.215C101.747 205.437 101.42 205.77 101.166 206.214C100.923 206.648 100.801 207.165 100.801 207.768C100.801 208.37 100.923 208.899 101.166 209.353C101.42 209.808 101.747 210.157 102.149 210.4C102.561 210.632 102.994 210.748 103.449 210.748C103.914 210.748 104.347 210.632 104.749 210.4C105.151 210.167 105.473 209.829 105.716 209.385C105.97 208.931 106.097 208.402 106.097 207.8ZM113.464 212.318C112.777 212.318 112.159 212.196 111.61 211.953C111.07 211.7 110.642 211.361 110.325 210.939C110.008 210.505 109.839 210.024 109.818 209.496H111.689C111.72 209.866 111.895 210.178 112.212 210.431C112.54 210.674 112.947 210.796 113.433 210.796C113.94 210.796 114.331 210.701 114.606 210.511C114.891 210.31 115.034 210.056 115.034 209.75C115.034 209.422 114.875 209.179 114.558 209.02C114.252 208.862 113.76 208.687 113.084 208.497C112.429 208.317 111.895 208.143 111.483 207.974C111.07 207.805 110.711 207.546 110.405 207.197C110.109 206.848 109.961 206.389 109.961 205.818C109.961 205.353 110.098 204.93 110.373 204.55C110.648 204.158 111.039 203.852 111.546 203.63C112.064 203.408 112.656 203.297 113.322 203.297C114.315 203.297 115.113 203.551 115.716 204.058C116.329 204.555 116.656 205.237 116.699 206.103H114.891C114.86 205.712 114.701 205.4 114.416 205.168C114.13 204.935 113.745 204.819 113.258 204.819C112.783 204.819 112.418 204.909 112.164 205.089C111.911 205.268 111.784 205.506 111.784 205.802C111.784 206.034 111.868 206.23 112.038 206.389C112.207 206.547 112.413 206.674 112.656 206.769C112.899 206.854 113.258 206.965 113.734 207.102C114.368 207.271 114.886 207.446 115.288 207.625C115.7 207.794 116.054 208.048 116.35 208.386C116.646 208.724 116.799 209.174 116.81 209.734C116.81 210.231 116.672 210.674 116.397 211.066C116.123 211.457 115.732 211.763 115.224 211.985C114.727 212.207 114.141 212.318 113.464 212.318ZM129.365 201.157V202.631H124.688V205.881H128.335V207.356H124.688V212.175H122.881V201.157H129.365ZM134.829 212.318C134.005 212.318 133.26 212.133 132.594 211.763C131.928 211.383 131.405 210.854 131.024 210.178C130.644 209.491 130.454 208.698 130.454 207.8C130.454 206.912 130.649 206.124 131.04 205.437C131.431 204.75 131.965 204.222 132.641 203.852C133.318 203.482 134.074 203.297 134.909 203.297C135.743 203.297 136.499 203.482 137.176 203.852C137.852 204.222 138.386 204.75 138.777 205.437C139.168 206.124 139.363 206.912 139.363 207.8C139.363 208.687 139.163 209.475 138.761 210.162C138.359 210.849 137.81 211.383 137.112 211.763C136.425 212.133 135.664 212.318 134.829 212.318ZM134.829 210.748C135.294 210.748 135.728 210.637 136.129 210.415C136.541 210.194 136.874 209.861 137.128 209.417C137.382 208.973 137.509 208.434 137.509 207.8C137.509 207.165 137.387 206.632 137.144 206.198C136.901 205.754 136.578 205.421 136.177 205.2C135.775 204.978 135.342 204.867 134.877 204.867C134.412 204.867 133.978 204.978 133.577 205.2C133.186 205.421 132.874 205.754 132.641 206.198C132.409 206.632 132.293 207.165 132.293 207.8C132.293 208.74 132.53 209.47 133.006 209.987C133.492 210.495 134.1 210.748 134.829 210.748ZM149.061 203.44V212.175H147.254V211.145C146.969 211.504 146.593 211.79 146.128 212.001C145.674 212.202 145.188 212.302 144.67 212.302C143.983 212.302 143.364 212.159 142.815 211.874C142.276 211.589 141.848 211.166 141.531 210.606C141.224 210.046 141.071 209.369 141.071 208.576V203.44H142.862V208.307C142.862 209.089 143.058 209.691 143.449 210.114C143.84 210.526 144.374 210.733 145.05 210.733C145.727 210.733 146.26 210.526 146.652 210.114C147.053 209.691 147.254 209.089 147.254 208.307V203.44H149.061ZM155.853 203.297C156.54 203.297 157.153 203.44 157.693 203.725C158.242 204.01 158.67 204.433 158.977 204.993C159.283 205.554 159.436 206.23 159.436 207.023V212.175H157.645V207.292C157.645 206.51 157.449 205.913 157.058 205.501C156.667 205.078 156.134 204.867 155.457 204.867C154.781 204.867 154.242 205.078 153.84 205.501C153.449 205.913 153.253 206.51 153.253 207.292V212.175H151.446V203.44H153.253V204.439C153.549 204.079 153.925 203.799 154.379 203.598C154.844 203.397 155.336 203.297 155.853 203.297ZM161.139 207.768C161.139 206.891 161.319 206.114 161.678 205.437C162.048 204.761 162.545 204.238 163.169 203.868C163.803 203.487 164.506 203.297 165.277 203.297C165.848 203.297 166.408 203.424 166.958 203.678C167.518 203.921 167.962 204.248 168.29 204.66V200.443H170.113V212.175H168.29V210.859C167.994 211.282 167.581 211.631 167.053 211.906C166.535 212.181 165.938 212.318 165.261 212.318C164.5 212.318 163.803 212.128 163.169 211.747C162.545 211.356 162.048 210.817 161.678 210.13C161.319 209.433 161.139 208.645 161.139 207.768ZM168.29 207.8C168.29 207.197 168.163 206.674 167.909 206.23C167.666 205.786 167.344 205.448 166.942 205.215C166.54 204.983 166.107 204.867 165.642 204.867C165.177 204.867 164.744 204.983 164.342 205.215C163.94 205.437 163.613 205.77 163.359 206.214C163.116 206.648 162.994 207.165 162.994 207.768C162.994 208.37 163.116 208.899 163.359 209.353C163.613 209.808 163.94 210.157 164.342 210.4C164.754 210.632 165.187 210.748 165.642 210.748C166.107 210.748 166.54 210.632 166.942 210.4C167.344 210.167 167.666 209.829 167.909 209.385C168.163 208.931 168.29 208.402 168.29 207.8Z" fill="#130F49"/>
<defs>
<linearGradient id="paint0_linear_632_34175" x1="104.982" y1="26.2051" x2="99.2501" y2="140.818" gradientUnits="userSpaceOnUse">
<stop stop-color="#EEF2F8"/>
<stop offset="0.755218" stop-color="#EEF2F8" stop-opacity="0"/>
</linearGradient>
</defs>
</svg>
