<svg width="45" height="45" viewBox="0 0 45 45" fill="none" xmlns="http://www.w3.org/2000/svg">
<rect width="45" height="45" rx="22.5" fill="#FAFAFA"/>
<path opacity="0.4" d="M13.6667 23.8082V18.8248C13.6667 16.5248 15.5334 14.6665 17.8334 14.6665H26.1667C28.4667 14.6665 30.3334 16.5248 30.3334 18.8248V24.6415C30.3334 26.9332 28.4667 28.7915 26.1667 28.7915H24.9167C24.6584 28.7915 24.4084 28.9165 24.2501 29.1248L23.0001 30.7832C22.4501 31.5165 21.5501 31.5165 21.0001 30.7832L19.7501 29.1248C19.6167 28.9415 19.3167 28.7915 19.0834 28.7915H17.8334C15.5334 28.7915 13.6667 26.9332 13.6667 24.6415V23.8082Z" fill="#292D32"/>
<path d="M22.0001 23.0002C21.5334 23.0002 21.1667 22.6252 21.1667 22.1668C21.1667 21.7085 21.5417 21.3335 22.0001 21.3335C22.4584 21.3335 22.8334 21.7085 22.8334 22.1668C22.8334 22.6252 22.4667 23.0002 22.0001 23.0002Z" fill="#292D32"/>
<path d="M25.3333 23.0002C24.8667 23.0002 24.5 22.6252 24.5 22.1668C24.5 21.7085 24.875 21.3335 25.3333 21.3335C25.7917 21.3335 26.1667 21.7085 26.1667 22.1668C26.1667 22.6252 25.8 23.0002 25.3333 23.0002Z" fill="#292D32"/>
<path d="M18.6666 23.0002C18.1999 23.0002 17.8333 22.6252 17.8333 22.1668C17.8333 21.7085 18.2083 21.3335 18.6666 21.3335C19.1249 21.3335 19.4999 21.7085 19.4999 22.1668C19.4999 22.6252 19.1333 23.0002 18.6666 23.0002Z" fill="#292D32"/>
<circle cx="29" cy="15" r="2" fill="#FF4D4F"/>
</svg>
