<svg width="45" height="45" viewBox="0 0 45 45" fill="none" xmlns="http://www.w3.org/2000/svg">
<rect width="45" height="45" rx="22.5" fill="#DBF1FA"/>
<path opacity="0.4" d="M28.1168 25.0748L27.2834 23.6915C27.1084 23.3832 26.9501 22.7998 26.9501 22.4582V20.3498C26.9501 17.6332 24.7418 15.4165 22.0168 15.4165C19.2918 15.4165 17.0834 17.6332 17.0834 20.3498V22.4582C17.0834 22.7998 16.9251 23.3832 16.7501 23.6832L15.9084 25.0748C15.5751 25.6332 15.5001 26.2498 15.7084 26.8165C15.9084 27.3748 16.3834 27.8082 17.0001 28.0165C18.6168 28.5665 20.3168 28.8332 22.0168 28.8332C23.7168 28.8332 25.4168 28.5665 27.0335 28.0248C27.6168 27.8332 28.0668 27.3915 28.2835 26.8165C28.5001 26.2415 28.4418 25.6082 28.1168 25.0748Z" fill="#1D8EE6"/>
<path d="M23.8751 15.7665C23.3001 15.5415 22.6751 15.4165 22.0167 15.4165C21.3667 15.4165 20.7417 15.5332 20.1667 15.7665C20.5251 15.0915 21.2334 14.6665 22.0167 14.6665C22.8084 14.6665 23.5084 15.0915 23.8751 15.7665Z" fill="#1D8EE6"/>
<path d="M24.3582 29.6748C24.0082 30.6415 23.0832 31.3332 21.9999 31.3332C21.3416 31.3332 20.6916 31.0665 20.2332 30.5915C19.9666 30.3415 19.7666 30.0082 19.6499 29.6665C19.7582 29.6832 19.8666 29.6915 19.9832 29.7082C20.1749 29.7332 20.3749 29.7582 20.5749 29.7748C21.0499 29.8165 21.5332 29.8415 22.0166 29.8415C22.4916 29.8415 22.9666 29.8165 23.4332 29.7748C23.6082 29.7582 23.7832 29.7498 23.9499 29.7248C24.0832 29.7082 24.2166 29.6915 24.3582 29.6748Z" fill="#1D8EE6"/>
<circle cx="26" cy="16" r="2" fill="#FF4D4F"/>
</svg>
