<svg width="179" height="32" viewBox="0 0 179 32" fill="none" xmlns="http://www.w3.org/2000/svg">
<g clip-path="url(#clip0_1794_210485)">
<path d="M36.9629 0V26.58C36.9629 29.4872 34.6787 31.7715 31.7715 31.7715H24.0882V20.7657C24.0882 19.3121 22.8422 18.2738 21.5963 18.2738H12.8747V31.9791H5.19142C2.28422 31.9791 0 29.6949 0 26.7877V5.19142C0 2.28422 2.28422 0 5.19142 0H36.9629Z" fill="white"/>
<path d="M21.3902 15.3665H15.5759C14.1223 15.3665 13.084 14.1206 13.084 12.8746V8.51385C13.084 7.06026 14.3299 6.02197 15.5759 6.02197H24.0898V13.0823C24.0898 14.3282 22.8438 15.3665 21.3902 15.3665Z" fill="#27AAE1"/>
<path d="M55.8604 20.6614V25.0222H43.1934V9.44793C43.1934 7.99434 44.4393 6.95605 45.6852 6.95605H48.5924V20.6614H55.8604Z" fill="white"/>
<path d="M66.661 20.2465C66.4533 20.6618 66.2456 21.0771 65.8303 21.2847C65.6227 21.4924 65.2074 21.4924 64.5844 21.4924C63.7538 21.4924 63.3384 21.0771 62.9231 20.4541C62.7155 20.0388 62.5078 19.4158 62.5078 18.7929H71.8524V17.7546C71.8524 16.0933 71.6447 14.8474 71.0217 13.6015C70.3988 12.3555 69.5682 11.5249 68.5299 10.9019C67.4916 10.4866 66.038 10.0713 64.5844 10.0713C63.1308 10.0713 61.8849 10.2789 60.6389 10.9019C59.6006 11.5249 58.5623 12.3555 58.147 13.6015C57.5241 14.8474 57.3164 16.0933 57.3164 17.7546C57.3164 19.4158 57.5241 20.6618 58.147 21.9077C58.77 23.1537 59.6006 23.9843 60.8466 24.6073C61.8849 25.2302 63.3384 25.6455 64.792 25.6455C66.661 25.6455 68.3222 25.2302 69.5682 24.1919C70.8141 23.3613 71.6447 21.9077 72.06 20.2465H66.661ZM62.9231 15.055C63.3384 14.4321 63.7538 14.0168 64.5844 14.0168C65.2074 14.0168 65.8303 14.4321 66.2456 15.055C66.4533 15.4704 66.661 15.678 66.661 16.301H62.7155C62.7155 15.678 62.9231 15.2627 62.9231 15.055Z" fill="white"/>
<path d="M87.6336 23.7766C87.6336 23.1537 87.426 22.5307 87.426 21.4924V15.8857C87.426 14.8474 87.2183 13.8091 86.5953 12.9785C86.18 12.1479 85.3494 11.3172 84.3111 10.9019C83.2728 10.4866 82.0269 10.0713 80.7809 10.0713C79.535 10.0713 78.4967 10.2789 77.4584 10.6943C76.4202 11.1096 75.5895 11.7325 74.9666 12.5632C74.3436 13.3938 73.9283 14.2244 73.7206 15.4704H78.912C78.912 15.055 79.1197 14.8474 79.3274 14.6397C79.535 14.4321 79.9503 14.2244 80.3656 14.2244C80.781 14.2244 81.1963 14.4321 81.6116 14.6397C81.8192 14.8474 82.0269 15.2627 82.0269 15.8857V16.301C81.1963 16.301 80.3656 16.301 79.535 16.5086C78.4967 16.5086 77.6661 16.924 76.6278 17.1316C75.3819 17.5469 74.5512 18.1699 73.9283 18.7929C73.3053 19.6235 73.0977 20.4541 73.0977 21.2847C73.0977 22.1154 73.3053 22.946 73.7206 23.569C74.1359 24.1919 74.7589 24.6073 75.3819 25.0226C76.0048 25.2302 76.8355 25.4379 77.6661 25.4379C78.2891 25.4379 79.1197 25.2302 79.7427 25.0226C80.3656 24.8149 80.9886 24.3996 81.4039 23.9843C81.6116 23.7766 81.8192 23.569 82.0269 23.3613V23.569C82.0269 24.1919 82.0269 24.6073 82.2345 25.0226H87.426C87.8413 24.6073 87.6336 24.1919 87.6336 23.7766ZM82.2345 20.8694C82.2345 21.4924 81.6116 22.1154 80.9886 22.1154H79.7427C79.535 22.1154 79.3274 22.1154 79.1197 21.9077C79.1197 21.9077 78.912 21.9077 78.912 21.7001C78.7044 21.4924 78.7044 21.4924 78.4967 21.2847C78.4967 21.0771 78.4967 20.8694 78.4967 20.8694V20.2465C78.4967 19.6235 79.1197 19.0005 79.7427 19.0005H82.2345V20.8694Z" fill="white"/>
<path d="M98.8465 5.91797V11.94C98.0159 10.6941 96.9776 10.2788 95.524 10.2788C93.6551 10.2788 92.2015 10.9017 91.1632 12.3553C90.1249 13.8089 89.502 15.6778 89.502 18.1697C89.502 19.831 89.7096 21.0769 90.3326 22.3228C90.7479 23.5688 91.5785 24.3994 92.4091 25.0224C93.2398 25.6453 94.2781 25.853 95.524 26.0607C96.3546 26.0607 97.1852 25.853 97.8082 25.4377C98.2235 25.0224 98.6388 24.8147 99.0542 24.1918V25.0224H104.246V5.91797H98.8465ZM98.2235 20.4539C97.8082 21.0769 97.3929 21.2846 96.7699 21.2846C96.147 21.2846 95.524 20.8692 95.3163 20.4539C94.901 19.831 94.6934 19.0003 94.6934 17.7544C94.6934 16.5085 94.901 15.6778 95.3163 15.0549C95.7317 14.4319 96.147 14.2242 96.7699 14.2242C97.3929 14.2242 98.0159 14.4319 98.2235 15.0549C98.6388 15.6778 98.8465 16.5085 98.8465 17.7544C98.8465 19.0003 98.6388 19.831 98.2235 20.4539Z" fill="white"/>
<path d="M119.821 20.4543C119.821 21.4926 119.613 22.3232 118.99 23.1539C118.367 23.9845 117.536 24.6075 116.706 25.0228C115.667 25.4381 114.629 25.6458 113.176 25.6458C111.307 25.6458 109.645 25.2304 108.399 24.3998C107.154 23.5692 106.323 22.3232 106.115 20.4543H111.307C111.307 20.8696 111.514 21.285 111.93 21.4926C112.345 21.7003 112.76 21.9079 113.383 21.9079C113.799 21.9079 114.214 21.9079 114.421 21.7003C114.629 21.4926 114.837 21.285 114.837 21.0773C114.837 20.8696 114.629 20.4543 114.421 20.4543C114.214 20.2467 113.799 20.2467 113.176 20.039C112.76 20.039 112.137 19.8314 111.514 19.8314C110.891 19.8314 110.268 19.6237 109.645 19.4161C109.022 19.2084 108.607 19.0007 107.984 18.7931C107.569 18.5854 107.154 18.1701 106.738 17.5471C106.531 16.9242 106.323 16.3012 106.323 15.4706C106.323 14.6399 106.531 13.8093 106.946 12.9787C107.361 12.1481 108.192 11.5251 109.022 11.1098C109.853 10.6945 111.099 10.4868 112.345 10.4868C113.591 10.4868 114.629 10.6945 115.667 11.1098C116.706 11.5251 117.536 12.1481 118.159 12.771C118.782 13.6017 119.198 14.6399 119.198 15.6782H114.006C114.006 15.2629 113.799 14.8476 113.383 14.6399C112.968 14.4323 112.553 14.2246 112.137 14.2246C111.722 14.2246 111.514 14.2246 111.307 14.4323C111.099 14.6399 110.891 14.8476 110.891 15.0553C110.891 15.2629 111.099 15.6782 111.307 15.6782C111.722 15.8859 111.93 15.8859 112.553 16.0935C112.968 16.0935 113.591 16.3012 114.214 16.3012C114.837 16.3012 115.46 16.5089 116.083 16.7165C116.706 16.9242 117.329 17.1318 117.744 17.3395C118.159 17.5471 118.575 17.9625 118.99 18.5854C119.613 19.0007 119.821 19.6237 119.821 20.4543Z" fill="#27AAE1"/>
<path d="M127.292 14.432V19.2081C127.292 19.8311 127.5 20.2464 127.707 20.6617C127.915 21.0771 128.538 21.2847 129.161 21.2847H130.199V25.0225C129.992 25.2302 129.576 25.2302 128.953 25.4378C128.33 25.6455 127.915 25.6455 127.084 25.6455C125.423 25.6455 124.177 25.2302 123.347 24.1919C122.516 23.1536 122.101 21.9077 122.101 20.0388V14.432H120.439V10.4866H122.101V7.16406H127.292V10.4866H130.199V14.432H127.292Z" fill="#27AAE1"/>
<path d="M145.776 23.7766C145.776 23.1537 145.568 22.5307 145.568 21.4924V15.8857C145.568 14.8474 145.36 13.8091 144.737 12.9785C144.322 12.1479 143.491 11.3172 142.453 10.9019C141.415 10.4866 140.169 10.0713 138.923 10.0713C137.677 10.0713 136.639 10.2789 135.6 10.6943C134.562 11.1096 133.939 11.7325 133.316 12.5632C132.693 13.3938 132.278 14.2244 132.07 15.4704H137.262C137.262 15.055 137.469 14.8474 137.677 14.6397C137.885 14.4321 138.3 14.2244 138.715 14.2244C139.131 14.2244 139.546 14.4321 139.961 14.6397C140.169 14.8474 140.377 15.2627 140.377 15.8857V16.301C139.546 16.301 138.715 16.301 137.885 16.5086C136.846 16.5086 136.016 16.924 134.977 17.1316C133.731 17.5469 132.901 18.1699 132.278 18.7929C131.655 19.6235 131.447 20.4541 131.447 21.2847C131.447 22.1154 131.655 22.946 132.07 23.569C132.486 24.1919 133.109 24.6073 133.731 25.0226C134.354 25.4379 135.185 25.4379 136.016 25.4379C136.639 25.4379 137.469 25.2302 138.092 25.0226C138.715 24.8149 139.338 24.3996 139.754 23.9843C139.961 23.7766 140.169 23.569 140.377 23.3613C140.377 23.3613 140.377 23.3613 140.377 23.569C140.377 24.1919 140.377 24.6073 140.584 25.0226H145.776C145.983 24.6073 145.776 24.1919 145.776 23.7766ZM140.377 20.8694C140.377 21.4924 139.754 22.1154 139.131 22.1154H137.885C137.262 22.1154 136.639 21.4924 136.639 20.8694V20.2465C136.639 19.6235 137.262 19.0005 137.885 19.0005H140.377V20.8694Z" fill="#27AAE1"/>
<path d="M161.559 15.885H156.368C156.368 15.262 156.16 14.639 155.745 14.4314C155.537 14.2237 155.122 14.0161 154.707 14.0161C154.084 14.0161 153.461 14.2237 153.253 14.8467C152.838 15.4697 152.838 16.3003 152.838 17.5462C152.838 18.7922 153.046 19.6228 153.253 20.2458C153.669 20.8687 154.084 21.0764 154.914 21.0764C155.33 21.0764 155.537 20.8687 155.953 20.6611C156.16 20.4534 156.368 20.0381 156.576 19.6228H161.767C161.559 21.4917 160.729 22.7376 159.483 23.7759C158.237 24.6065 156.783 25.2295 154.914 25.2295C153.461 25.2295 152.215 24.8142 150.969 24.1912C149.931 23.5683 149.1 22.7376 148.477 21.4917C147.854 20.2458 147.646 18.9998 147.646 17.3386C147.646 15.6773 147.854 14.2237 148.477 13.1854C149.1 11.9395 149.931 11.1089 150.969 10.4859C152.007 9.86293 153.253 9.65527 154.707 9.65527C155.953 9.65527 156.991 9.86293 157.822 10.2782C158.86 10.6936 159.483 11.3165 160.106 12.1472C161.144 13.6007 161.559 14.639 161.559 15.885Z" fill="#27AAE1"/>
<path d="M178.587 25.0224H172.357L168.619 18.7927V25.0224H163.428V8.40985C163.428 6.95625 164.674 5.91797 165.92 5.91797H168.411V16.0931L172.357 10.4864H178.171L173.603 16.7161L178.587 25.0224Z" fill="#27AAE1"/>
</g>
<defs>
<clipPath id="clip0_1794_210485">
<rect width="178.585" height="31.9791" fill="white"/>
</clipPath>
</defs>
</svg>
