<svg width="20" height="21" viewBox="0 0 20 21" fill="none" xmlns="http://www.w3.org/2000/svg">
<path opacity="0.3" d="M11.912 14.5725C11.5866 14.2471 11.5866 13.7194 11.912 13.394C12.2375 13.0685 12.7651 13.0685 13.0906 13.394L16.4239 16.7273C16.7493 17.0528 16.7493 17.5804 16.4239 17.9058C16.0985 18.2313 15.5708 18.2313 15.2454 17.9058L11.912 14.5725Z" fill="#1D8EE6"/>
<path fill-rule="evenodd" clip-rule="evenodd" d="M3.33203 9.81673C3.33203 13.0384 5.9437 15.6501 9.16537 15.6501C12.387 15.6501 14.9987 13.0384 14.9987 9.81673C14.9987 6.59507 12.387 3.9834 9.16537 3.9834C5.9437 3.9834 3.33203 6.59507 3.33203 9.81673ZM13.3333 9.81657C13.3333 12.1178 11.4679 13.9832 9.16667 13.9832C6.86548 13.9832 5 12.1178 5 9.81657C5 7.51538 6.86548 5.6499 9.16667 5.6499C11.4679 5.6499 13.3333 7.51538 13.3333 9.81657Z" fill="#1D8EE6"/>
</svg>
