<svg width="21" height="21" viewBox="0 0 21 21" fill="none" xmlns="http://www.w3.org/2000/svg">
<path opacity="0.3" d="M12.4106 14.4226C12.0851 14.0972 12.0851 13.5695 12.4106 13.2441C12.736 12.9186 13.2637 12.9186 13.5891 13.2441L16.9224 16.5774C17.2479 16.9028 17.2479 17.4305 16.9224 17.7559C16.597 18.0814 16.0694 18.0814 15.7439 17.7559L12.4106 14.4226Z" fill="#1D8EE6"/>
<path fill-rule="evenodd" clip-rule="evenodd" d="M3.8335 9.66732C3.8335 12.889 6.44517 15.5006 9.66683 15.5006C12.8885 15.5006 15.5002 12.889 15.5002 9.66732C15.5002 6.44566 12.8885 3.83398 9.66683 3.83398C6.44517 3.83398 3.8335 6.44566 3.8335 9.66732ZM13.8334 9.66735C13.8334 11.9685 11.968 13.834 9.66677 13.834C7.36558 13.834 5.5001 11.9685 5.5001 9.66735C5.5001 7.36616 7.36558 5.50068 9.66677 5.50068C11.968 5.50068 13.8334 7.36616 13.8334 9.66735Z" fill="#1D8EE6"/>
</svg>
