<svg width="22" height="22" viewBox="0 0 22 22" fill="none" xmlns="http://www.w3.org/2000/svg">
<circle cx="11" cy="11" r="3" stroke="#1D8EE6" stroke-width="1.5"/>
<path d="M6.49998 3.9375L6.12498 3.28798L6.49998 3.9375ZM6.49998 18.0621L6.87498 17.4126L6.49998 18.0621ZM15.5 18.0621L15.875 18.7117L15.875 18.7117L15.5 18.0621ZM15.5 3.9375L15.125 4.58702L15.125 4.58702L15.5 3.9375ZM17.6879 17.7401L17.86 17.0102L17.6879 17.7401ZM18.5967 17.5029L18.0271 17.0149L18.5967 17.5029ZM13.4608 20.6948L13.2768 19.9678L13.4608 20.6948ZM7.92299 19.9849L7.19228 20.1539L7.92299 19.9849ZM8.53927 20.6951L8.72321 19.968L8.53927 20.6951ZM3.40263 17.5031L2.8331 17.9911L3.40263 17.5031ZM4.31158 17.7403L4.13934 17.0103L4.31158 17.7403ZM1.55585 7.7029L0.847758 7.4557L1.55585 7.7029ZM1.90598 8.68353L1.42906 9.26236L1.90598 8.68353ZM20.0931 13.3165L20.5701 12.7376L20.0931 13.3165ZM4.31176 4.25943L4.13957 4.98939L4.31176 4.25943ZM3.4029 4.49659L3.97241 4.9846L3.4029 4.49659ZM18.5964 4.49678L19.1659 4.00878L18.5964 4.49678ZM17.6877 4.25955L17.8597 4.98955L17.6877 4.25955ZM1.90598 13.3165L2.3829 13.8953L1.90598 13.3165ZM1.55585 14.2971L2.26394 14.0499L1.55585 14.2971ZM7.92293 2.01501L8.65363 2.18406L7.92293 2.01501ZM8.53918 1.30493L8.72313 2.03203L8.53918 1.30493ZM8.65363 2.18406C8.42784 3.15998 7.81222 4.0459 6.87498 4.58702L6.12498 3.28798C6.68737 2.96328 7.05624 2.43376 7.19223 1.84596L8.65363 2.18406ZM6.87498 4.58702C6.01392 5.08415 5.03594 5.20084 4.13957 4.98939L4.48395 3.52946C5.02317 3.65666 5.60785 3.58655 6.12498 3.28798L6.87498 4.58702ZM0.847758 7.4557C1.29335 6.17932 1.97247 5.01327 2.83338 4.00858L3.97241 4.9846C3.23089 5.84995 2.64685 6.85324 2.26394 7.95009L0.847758 7.4557ZM2.24956 11C2.24956 10.3006 1.93137 9.67623 1.42906 9.26236L2.3829 8.1047C3.2162 8.79128 3.74956 9.83367 3.74956 11L2.24956 11ZM1.42906 12.7376C1.93137 12.3238 2.24956 11.6994 2.24956 11L3.74956 11C3.74956 12.1663 3.2162 13.2087 2.3829 13.8953L1.42906 12.7376ZM2.8331 17.9911C1.97232 16.9865 1.2933 15.8205 0.847759 14.5443L2.26394 14.0499C2.64681 15.1466 3.23077 16.1498 3.97216 17.0151L2.8331 17.9911ZM6.12498 18.7117C5.6078 18.4131 5.02307 18.343 4.48382 18.4702L4.13934 17.0103C5.03578 16.7988 6.01384 16.9155 6.87498 17.4126L6.12498 18.7117ZM7.19228 20.1539C7.05633 19.566 6.68744 19.0364 6.12498 18.7117L6.87498 17.4126C7.81234 17.9538 8.42799 18.8399 8.65371 19.8159L7.19228 20.1539ZM10.9996 21.75C10.0881 21.75 9.20204 21.6364 8.35532 21.4222L8.72321 19.968C9.45065 20.152 10.2131 20.25 10.9996 20.25L10.9996 21.75ZM13.6448 21.4219C12.7978 21.6363 11.9114 21.75 10.9996 21.75L10.9996 20.25C11.7863 20.25 12.5491 20.1519 13.2768 19.9678L13.6448 21.4219ZM15.875 18.7117C15.3126 19.0364 14.9437 19.5659 14.8077 20.1538L13.3463 19.8157C13.572 18.8398 14.1877 17.9538 15.125 17.4126L15.875 18.7117ZM17.5157 18.4701C16.9766 18.343 16.392 18.4131 15.875 18.7117L15.125 17.4126C15.9859 16.9156 16.9637 16.7989 17.86 17.0102L17.5157 18.4701ZM21.1514 14.5443C20.7058 15.8205 20.0269 16.9863 19.1662 17.9909L18.0271 17.0149C18.7684 16.1497 19.3523 15.1466 19.7352 14.0499L21.1514 14.5443ZM19.7496 11C19.7496 11.6994 20.0677 12.3238 20.5701 12.7376L19.6162 13.8953C18.7829 13.2087 18.2496 12.1663 18.2496 11L19.7496 11ZM20.5701 9.26236C20.0677 9.67623 19.7496 10.3006 19.7496 11L18.2496 11C18.2496 9.83367 18.7829 8.79128 19.6162 8.10469L20.5701 9.26236ZM19.1659 4.00878C20.0267 5.01343 20.7058 6.1794 21.1514 7.45569L19.7352 7.95009C19.3523 6.85331 18.7683 5.85009 18.0269 4.98478L19.1659 4.00878ZM15.875 3.28798C16.392 3.58647 16.9765 3.65662 17.5156 3.52955L17.8597 4.98955C16.9635 5.20078 15.9858 5.08403 15.125 4.58702L15.875 3.28798ZM14.8077 1.84608C14.9438 2.43383 15.3126 2.9633 15.875 3.28798L15.125 4.58702C14.1878 4.04594 13.5722 3.1601 13.3464 2.18426L14.8077 1.84608ZM10.9996 0.250001C11.9115 0.250001 12.7979 0.363712 13.6449 0.578105L13.2769 2.03225C12.5491 1.84806 11.7863 1.75 10.9996 1.75L10.9996 0.250001ZM8.35523 0.577842C9.20197 0.36362 10.088 0.250001 10.9996 0.250001L10.9996 1.75C10.2131 1.75 9.45059 1.84798 8.72313 2.03203L8.35523 0.577842ZM13.3464 2.18426C13.3308 2.1168 13.3043 2.06921 13.2838 2.04426C13.2662 2.02282 13.263 2.02875 13.2769 2.03225L13.6449 0.578105C14.3361 0.753031 14.6929 1.3499 14.8077 1.84608L13.3464 2.18426ZM19.6162 8.10469C19.6771 8.05453 19.7125 8.00026 19.7267 7.96396C19.7386 7.93343 19.7298 7.9348 19.7352 7.95009L21.1514 7.45569C21.4174 8.21767 21.0052 8.90381 20.5701 9.26236L19.6162 8.10469ZM17.86 17.0102C17.9272 17.026 17.9815 17.0234 18.0129 17.0161C18.04 17.0098 18.0362 17.0043 18.0271 17.0149L19.1662 17.9909C18.7032 18.5313 18.0113 18.587 17.5157 18.4701L17.86 17.0102ZM13.2768 19.9678C13.2629 19.9713 13.2661 19.9772 13.2837 19.9558C13.3042 19.9308 13.3307 19.8832 13.3463 19.8157L14.8077 20.1538C14.6929 20.65 14.336 21.247 13.6448 21.4219L13.2768 19.9678ZM8.65371 19.8159C8.66932 19.8834 8.69577 19.931 8.71629 19.956C8.73392 19.9774 8.73706 19.9715 8.72321 19.968L8.35532 21.4222C7.66399 21.2473 7.30705 20.6502 7.19228 20.1539L8.65371 19.8159ZM3.97216 17.0151C3.96303 17.0045 3.9593 17.01 3.98637 17.0163C4.01783 17.0236 4.07211 17.0262 4.13934 17.0103L4.48382 18.4702C3.98822 18.5872 3.29619 18.5316 2.8331 17.9911L3.97216 17.0151ZM2.26394 7.95009C2.26928 7.9348 2.26049 7.93344 2.27243 7.96396C2.28663 8.00026 2.32202 8.05453 2.3829 8.1047L1.42906 9.26236C0.993897 8.90382 0.58175 8.21768 0.847758 7.4557L2.26394 7.95009ZM19.7352 14.0499C19.7298 14.0652 19.7386 14.0666 19.7267 14.036C19.7125 13.9997 19.6771 13.9455 19.6162 13.8953L20.5701 12.7376C21.0052 13.0962 21.4174 13.7823 21.1514 14.5443L19.7352 14.0499ZM4.13957 4.98939C4.07234 4.97353 4.01807 4.97614 3.98661 4.98346C3.95955 4.98976 3.96327 4.99526 3.97241 4.9846L2.83338 4.00858C3.29645 3.46817 3.9884 3.41257 4.48395 3.52946L4.13957 4.98939ZM18.0269 4.98478C18.036 4.99544 18.0397 4.98994 18.0127 4.98364C17.9812 4.97631 17.927 4.9737 17.8597 4.98955L17.5156 3.52955C18.0111 3.41276 18.7029 3.46845 19.1659 4.00878L18.0269 4.98478ZM2.3829 13.8953C2.32202 13.9455 2.28663 13.9997 2.27243 14.036C2.26049 14.0666 2.26928 14.0652 2.26394 14.0499L0.847759 14.5443C0.58175 13.7823 0.993898 13.0962 1.42906 12.7376L2.3829 13.8953ZM7.19223 1.84596C7.30704 1.34971 7.66397 0.752727 8.35523 0.577842L8.72313 2.03203C8.73698 2.02852 8.73384 2.02259 8.71621 2.04403C8.69569 2.06899 8.66924 2.11659 8.65363 2.18406L7.19223 1.84596Z" fill="#1D8EE6"/>
</svg>
