<svg width="20" height="20" viewBox="0 0 20 20" fill="none" xmlns="http://www.w3.org/2000/svg">
<path d="M15 6.66602C16.3807 6.66602 17.5 5.54673 17.5 4.16602C17.5 2.7853 16.3807 1.66602 15 1.66602C13.6193 1.66602 12.5 2.7853 12.5 4.16602C12.5 5.54673 13.6193 6.66602 15 6.66602Z" stroke="#61646B" stroke-width="1.5" stroke-linecap="round" stroke-linejoin="round" />
<path d="M5 12.5C6.38071 12.5 7.5 11.3807 7.5 10C7.5 8.61929 6.38071 7.5 5 7.5C3.61929 7.5 2.5 8.61929 2.5 10C2.5 11.3807 3.61929 12.5 5 12.5Z" stroke="#61646B" stroke-width="1.5" stroke-linecap="round" stroke-linejoin="round" />
<path d="M15 18.334C16.3807 18.334 17.5 17.2147 17.5 15.834C17.5 14.4533 16.3807 13.334 15 13.334C13.6193 13.334 12.5 14.4533 12.5 15.834C12.5 17.2147 13.6193 18.334 15 18.334Z" stroke="#61646B" stroke-width="1.5" stroke-linecap="round" stroke-linejoin="round" />
<path d="M7.15845 11.2578L12.8501 14.5745" stroke="#61646B" stroke-width="1.5" stroke-linecap="round" stroke-linejoin="round" />
<path d="M12.8418 5.42578L7.15845 8.74245" stroke="#61646B" stroke-width="1.5" stroke-linecap="round" stroke-linejoin="round" />
</svg>