<svg width="20" height="20" viewBox="0 0 20 20" fill="none" xmlns="http://www.w3.org/2000/svg">
<path opacity="0.3" d="M11.6674 5.83398C11.6674 6.29422 12.0403 6.66732 12.5004 6.66732C12.9604 6.66732 13.3333 6.29422 13.3333 5.83398V5.00065C13.3333 3.1597 11.8416 1.66732 10.0014 1.66732H5.00433C3.16418 1.66732 1.67244 3.1597 1.67244 5.00065V15.0007C1.67244 16.8416 3.16418 18.334 5.00433 18.334H10.0072C11.8474 18.334 13.3391 16.8416 13.3391 15.0007V14.1673C13.3391 13.7071 12.9662 13.334 12.5061 13.334C12.0461 13.334 11.6732 13.7071 11.6732 14.1673V15.0007C11.6732 15.9211 10.9273 16.6673 10.0072 16.6673H5.00433C4.08426 16.6673 3.33839 15.9211 3.33839 15.0007V5.00065C3.33839 4.08018 4.08426 3.33398 5.00433 3.33398H10.0014C10.9215 3.33398 11.6674 4.08018 11.6674 5.00065V5.83398Z" fill="#535768"/>
<rect opacity="0.3" x="16.6666" y="9.16602" width="1.66667" height="10" rx="0.833333" transform="rotate(90 16.6666 9.16602)" fill="#535768"/>
<path d="M14.4107 8.08991C14.0853 7.76447 14.0853 7.23683 14.4107 6.9114C14.7361 6.58596 15.2638 6.58596 15.5892 6.9114L18.0892 9.4114C18.4147 9.73683 18.4147 10.2645 18.0892 10.5899L15.5892 13.0899C15.2638 13.4153 14.7361 13.4153 14.4107 13.0899C14.0853 12.7645 14.0853 12.2368 14.4107 11.9114L16.3214 10.0007L14.4107 8.08991Z" fill="#535768"/>
</svg>
