<svg width="24" height="24" viewBox="0 0 24 24" fill="none" xmlns="http://www.w3.org/2000/svg">
<path fill-rule="evenodd" clip-rule="evenodd" d="M5 2C3.34315 2 2 3.34315 2 5V19C2 20.6569 3.34315 22 5 22H9C10.6569 22 12 20.6569 12 19V5C12 3.34315 10.6569 2 9 2H5ZM7 19C7.55228 19 8 18.5523 8 18C8 17.4477 7.55228 17 7 17C6.44772 17 6 17.4477 6 18C6 18.5523 6.44772 19 7 19Z" fill="#2A2D7C"/>
<path opacity="0.3" d="M13.5 15.6602C13.5 15.997 13.8908 16.183 14.1522 15.9707L20.0347 11.1923C21.2332 10.0256 21.2461 8.10407 20.0634 6.92135L17.2219 4.07985C16.4882 3.34614 15.4672 3.07098 14.5181 3.25792C13.8451 3.3905 13.5 4.07909 13.5 4.76512V15.6602Z" fill="#2A2D7C"/>
<path opacity="0.3" d="M13.8695 18.1324C13.6357 18.3223 13.5 18.6074 13.5 18.9086V21.0001C13.5 21.5524 13.9477 22.0001 14.5 22.0001H19C20.6569 22.0001 22 20.657 22 19.0002V14.2027C22 13.4251 21.597 12.7415 20.9884 12.3496L13.8695 18.1324Z" fill="#2A2D7C"/>
</svg>
