<svg width="48" height="48" viewBox="0 0 48 48" fill="none" xmlns="http://www.w3.org/2000/svg">
<path d="M36 36.4006C40.4918 35.9546 44 32.1648 44 27.5556C44 22.2098 39.0904 18.005 33.8395 18.7569C33.831 18.7582 33.8225 18.7538 33.8187 18.7461C31.8103 14.7455 27.6702 12 22.8889 12C16.5195 12 11.288 16.8722 10.7181 23.0929C10.7172 23.1033 10.7084 23.1113 10.698 23.1113C7.05413 23.1081 4 26.1211 4 29.7778C4 33.4597 6.98477 36.4444 10.6667 36.4444H12" stroke="#272848" stroke-width="3" stroke-linecap="round"/>
<g opacity="0.3">
<path d="M19 33L23.2929 28.7071C23.6834 28.3166 24.3166 28.3166 24.7071 28.7071L28.9999 33" stroke="#272848" stroke-width="3" stroke-linecap="round"/>
<path d="M24 30L24 42" stroke="#272848" stroke-width="3" stroke-linecap="round"/>
</g>
</svg>
