<svg width="30" height="30" viewBox="0 0 30 30" fill="none" xmlns="http://www.w3.org/2000/svg">
<path d="M7.5 0C6.46875 0 5.625 0.84375 5.625 1.875V28.125C5.625 29.1562 6.46875 30 7.5 30H26.25C27.2812 30 28.125 29.1562 28.125 28.125V7.5L20.625 0H7.5Z" fill="#E2E5E7"/>
<path d="M22.5 7.5H28.125L20.625 0V5.625C20.625 6.65625 21.4688 7.5 22.5 7.5Z" fill="#B0B7BD"/>
<path d="M28.125 13.125L22.5 7.5H28.125V13.125Z" fill="#CAD1D8"/>
<path d="M17 24.0833C17 24.5875 16.7188 25 16.375 25H2.625C2.28125 25 2 24.5875 2 24.0833V14.9167C2 14.4125 2.28125 14 2.625 14H16.375C16.7188 14 17 14.4125 17 14.9167V24.0833Z" fill="#3A8F60"/>
<path d="M11.5985 16.2897C11.6554 16.2201 11.7407 16.1797 11.8307 16.1797H12.233C12.4868 16.1797 12.6259 16.4752 12.4643 16.6708L10.3081 19.2798C10.2166 19.3906 10.2165 19.5508 10.3079 19.6618L12.6559 22.5102C12.8173 22.7058 12.6781 23.001 12.4245 23.001H12.0207C11.9309 23.001 11.8459 22.9608 11.7889 22.8914L9.78989 20.459C9.67036 20.3135 9.44795 20.3128 9.32752 20.4576L7.3009 22.8929C7.2439 22.9614 7.15941 23.001 7.0703 23.001H6.6597C6.40541 23.001 6.26644 22.7044 6.42916 22.509L8.79946 19.6623C8.89193 19.5512 8.89209 19.39 8.79983 19.2788L6.63714 16.6712C6.47498 16.4757 6.61404 16.1797 6.86806 16.1797H7.27913C7.36888 16.1797 7.45392 16.2199 7.51091 16.2892L9.32726 18.4995C9.44745 18.6458 9.67139 18.6455 9.79125 18.499L11.5985 16.2897Z" fill="white"/>
<path d="M16.45 25H6V26H16.45C16.7525 26 17 25.55 17 25V24C17 24.55 16.7525 25 16.45 25Z" fill="#CAD1D8"/>
</svg>
