<svg width="44" height="34" viewBox="0 0 44 34" fill="none" xmlns="http://www.w3.org/2000/svg">
    <path d="M34 26.4006C38.4918 25.9546 42 22.1648 42 17.5556C42 12.2098 37.0904 8.00498 31.8395 8.75695C31.831 8.75817 31.8225 8.7538 31.8187 8.74609C29.8103 4.74554 25.6702 2 20.8889 2C14.5195 2 9.28804 6.87218 8.71814 13.0929C8.7172 13.1033 8.70842 13.1113 8.69804 13.1113C5.05413 13.1081 2 16.1211 2 19.7778C2 23.4597 4.98477 26.4444 8.66667 26.4444H10" stroke="#272848" stroke-width="3" stroke-linecap="round" />
    <g opacity="0.3">
        <path d="M17 23L21.2929 18.7071C21.6834 18.3166 22.3166 18.3166 22.7071 18.7071L26.9999 23" stroke="#272848" stroke-width="3" stroke-linecap="round" />
        <path d="M22 20L22 32" stroke="#272848" stroke-width="3" stroke-linecap="round" />
    </g>
</svg>