  <svg className='cursor-pointer' width="504" height="258" viewBox="0 0 504 258" fill="none" xmlns="http://www.w3.org/2000/svg">
                    <path d="M1.908 4.54V9.616C1.908 10.448 2.092 11.064 2.46 11.464C2.828 11.856 3.336 12.052 3.984 12.052C4.624 12.052 5.124 11.852 5.484 11.452C5.844 11.052 6.024 10.44 6.024 9.616V4.54H7.116V9.616C7.116 10.768 6.828 11.636 6.252 12.22C5.684 12.796 4.92 13.084 3.96 13.084C3.008 13.084 2.244 12.796 1.668 12.22C1.1 11.636 0.816 10.768 0.816 9.616V4.54H1.908ZM12.4456 6.328C13.0296 6.328 13.5496 6.464 14.0056 6.736C14.4616 7.008 14.8176 7.4 15.0736 7.912C15.3376 8.424 15.4696 9.024 15.4696 9.712C15.4696 10.4 15.3376 11 15.0736 11.512C14.8176 12.016 14.4616 12.404 14.0056 12.676C13.5496 12.948 13.0296 13.084 12.4456 13.084C11.8056 13.084 11.2616 12.924 10.8136 12.604C10.3736 12.276 10.0696 11.848 9.90159 11.32V16.12H8.80959V6.412H9.90159V8.092C10.0696 7.564 10.3736 7.14 10.8136 6.82C11.2616 6.492 11.8056 6.328 12.4456 6.328ZM12.1336 7.3C11.7096 7.3 11.3256 7.4 10.9816 7.6C10.6376 7.792 10.3696 8.072 10.1776 8.44C9.98559 8.808 9.88959 9.232 9.88959 9.712C9.88959 10.192 9.98559 10.616 10.1776 10.984C10.3696 11.344 10.6376 11.624 10.9816 11.824C11.3256 12.024 11.7096 12.124 12.1336 12.124C12.8136 12.124 13.3536 11.912 13.7536 11.488C14.1616 11.056 14.3656 10.464 14.3656 9.712C14.3656 8.96 14.1616 8.372 13.7536 7.948C13.3536 7.516 12.8136 7.3 12.1336 7.3ZM17.9875 4.12V13H16.8955V4.12H17.9875ZM22.7312 6.328C23.3632 6.328 23.9272 6.464 24.4232 6.736C24.9272 7.008 25.3192 7.4 25.5992 7.912C25.8872 8.424 26.0312 9.024 26.0312 9.712C26.0312 10.4 25.8872 11 25.5992 11.512C25.3192 12.016 24.9272 12.404 24.4232 12.676C23.9272 12.948 23.3632 13.084 22.7312 13.084C22.0992 13.084 21.5312 12.948 21.0272 12.676C20.5312 12.404 20.1392 12.016 19.8512 11.512C19.5632 11 19.4192 10.4 19.4192 9.712C19.4192 9.024 19.5632 8.424 19.8512 7.912C20.1392 7.4 20.5312 7.008 21.0272 6.736C21.5312 6.464 22.0992 6.328 22.7312 6.328ZM22.7312 7.288C22.3392 7.288 21.9752 7.376 21.6392 7.552C21.3112 7.728 21.0432 8 20.8352 8.368C20.6352 8.728 20.5352 9.176 20.5352 9.712C20.5352 10.24 20.6352 10.688 20.8352 11.056C21.0432 11.416 21.3112 11.684 21.6392 11.86C21.9752 12.036 22.3392 12.124 22.7312 12.124C23.1232 12.124 23.4832 12.036 23.8112 11.86C24.1472 11.684 24.4152 11.416 24.6152 11.056C24.8232 10.688 24.9272 10.24 24.9272 9.712C24.9272 9.176 24.8232 8.728 24.6152 8.368C24.4152 8 24.1472 7.728 23.8112 7.552C23.4832 7.376 23.1232 7.288 22.7312 7.288ZM30.1541 6.328C30.7941 6.328 31.3341 6.488 31.7741 6.808C32.2221 7.128 32.5341 7.556 32.7101 8.092V6.412H33.8021V13H32.7101V11.32C32.5341 11.856 32.2221 12.284 31.7741 12.604C31.3341 12.924 30.7941 13.084 30.1541 13.084C29.5701 13.084 29.0501 12.948 28.5941 12.676C28.1381 12.404 27.7781 12.016 27.5141 11.512C27.2581 11 27.1301 10.4 27.1301 9.712C27.1301 9.024 27.2581 8.424 27.5141 7.912C27.7781 7.4 28.1381 7.008 28.5941 6.736C29.0501 6.464 29.5701 6.328 30.1541 6.328ZM30.4661 7.3C29.7941 7.3 29.2541 7.516 28.8461 7.948C28.4461 8.372 28.2461 8.96 28.2461 9.712C28.2461 10.464 28.4461 11.056 28.8461 11.488C29.2541 11.912 29.7941 12.124 30.4661 12.124C30.8981 12.124 31.2821 12.024 31.6181 11.824C31.9621 11.624 32.2301 11.344 32.4221 10.984C32.6141 10.616 32.7101 10.192 32.7101 9.712C32.7101 9.232 32.6141 8.808 32.4221 8.44C32.2301 8.072 31.9621 7.792 31.6181 7.6C31.2821 7.4 30.8981 7.3 30.4661 7.3ZM38.2401 6.328C38.8801 6.328 39.4201 6.488 39.8601 6.808C40.3081 7.128 40.6201 7.556 40.7961 8.092V4.12H41.8881V13H40.7961V11.32C40.6201 11.856 40.3081 12.284 39.8601 12.604C39.4201 12.924 38.8801 13.084 38.2401 13.084C37.6561 13.084 37.1361 12.948 36.6801 12.676C36.2241 12.404 35.8641 12.016 35.6001 11.512C35.3441 11 35.2161 10.4 35.2161 9.712C35.2161 9.024 35.3441 8.424 35.6001 7.912C35.8641 7.4 36.2241 7.008 36.6801 6.736C37.1361 6.464 37.6561 6.328 38.2401 6.328ZM38.5521 7.3C37.8801 7.3 37.3401 7.516 36.9321 7.948C36.5321 8.372 36.3321 8.96 36.3321 9.712C36.3321 10.464 36.5321 11.056 36.9321 11.488C37.3401 11.912 37.8801 12.124 38.5521 12.124C38.9841 12.124 39.3681 12.024 39.7041 11.824C40.0481 11.624 40.3161 11.344 40.5081 10.984C40.7001 10.616 40.7961 10.192 40.7961 9.712C40.7961 9.232 40.7001 8.808 40.5081 8.44C40.3161 8.072 40.0481 7.792 39.7041 7.6C39.3681 7.4 38.9841 7.3 38.5521 7.3ZM50.3348 4.456C51.3668 4.456 52.2188 4.712 52.8908 5.224C53.5628 5.728 54.0268 6.42 54.2828 7.3H53.1308C52.9148 6.74 52.5668 6.296 52.0868 5.968C51.6068 5.632 51.0188 5.464 50.3228 5.464C49.7708 5.464 49.2748 5.6 48.8348 5.872C48.4028 6.136 48.0588 6.52 47.8028 7.024C47.5548 7.52 47.4308 8.104 47.4308 8.776C47.4308 9.44 47.5548 10.02 47.8028 10.516C48.0588 11.012 48.4028 11.396 48.8348 11.668C49.2748 11.932 49.7708 12.064 50.3228 12.064C51.0188 12.064 51.6068 11.9 52.0868 11.572C52.5668 11.236 52.9148 10.788 53.1308 10.228H54.2828C54.0268 11.108 53.5628 11.804 52.8908 12.316C52.2188 12.82 51.3668 13.072 50.3348 13.072C49.5428 13.072 48.8428 12.892 48.2348 12.532C47.6268 12.164 47.1508 11.656 46.8068 11.008C46.4708 10.352 46.3028 9.608 46.3028 8.776C46.3028 7.936 46.4708 7.188 46.8068 6.532C47.1508 5.876 47.6268 5.368 48.2348 5.008C48.8428 4.64 49.5428 4.456 50.3348 4.456ZM56.5472 11.716V13H55.2272V11.716H56.5472ZM62.75 11.044H59.03L58.322 13H57.146L60.278 4.696H61.514L64.634 13H63.458L62.75 11.044ZM62.438 10.192L60.89 5.92L59.342 10.192H62.438ZM66.5433 11.716V13H65.2233V11.716H66.5433ZM71.5341 4.456C72.5661 4.456 73.4181 4.712 74.0901 5.224C74.7621 5.728 75.2261 6.42 75.4821 7.3H74.3301C74.1141 6.74 73.7661 6.296 73.2861 5.968C72.8061 5.632 72.2181 5.464 71.5221 5.464C70.9701 5.464 70.4741 5.6 70.0341 5.872C69.6021 6.136 69.2581 6.52 69.0021 7.024C68.7541 7.52 68.6301 8.104 68.6301 8.776C68.6301 9.44 68.7541 10.02 69.0021 10.516C69.2581 11.012 69.6021 11.396 70.0341 11.668C70.4741 11.932 70.9701 12.064 71.5221 12.064C72.2181 12.064 72.8061 11.9 73.2861 11.572C73.7661 11.236 74.1141 10.788 74.3301 10.228H75.4821C75.2261 11.108 74.7621 11.804 74.0901 12.316C73.4181 12.82 72.5661 13.072 71.5341 13.072C70.7421 13.072 70.0421 12.892 69.4341 12.532C68.8261 12.164 68.3501 11.656 68.0061 11.008C67.6701 10.352 67.5021 9.608 67.5021 8.776C67.5021 7.936 67.6701 7.188 68.0061 6.532C68.3501 5.876 68.8261 5.368 69.4341 5.008C70.0421 4.64 70.7421 4.456 71.5341 4.456ZM83.6513 4.456C84.6833 4.456 85.5353 4.712 86.2073 5.224C86.8793 5.728 87.3433 6.42 87.5993 7.3H86.4473C86.2313 6.74 85.8833 6.296 85.4033 5.968C84.9233 5.632 84.3353 5.464 83.6393 5.464C83.0873 5.464 82.5913 5.6 82.1513 5.872C81.7193 6.136 81.3753 6.52 81.1193 7.024C80.8713 7.52 80.7473 8.104 80.7473 8.776C80.7473 9.44 80.8713 10.02 81.1193 10.516C81.3753 11.012 81.7193 11.396 82.1513 11.668C82.5913 11.932 83.0873 12.064 83.6393 12.064C84.3353 12.064 84.9233 11.9 85.4033 11.572C85.8833 11.236 86.2313 10.788 86.4473 10.228H87.5993C87.3433 11.108 86.8793 11.804 86.2073 12.316C85.5353 12.82 84.6833 13.072 83.6513 13.072C82.8593 13.072 82.1593 12.892 81.5513 12.532C80.9433 12.164 80.4673 11.656 80.1233 11.008C79.7873 10.352 79.6193 9.608 79.6193 8.776C79.6193 7.936 79.7873 7.188 80.1233 6.532C80.4673 5.876 80.9433 5.368 81.5513 5.008C82.1593 4.64 82.8593 4.456 83.6513 4.456ZM95.1196 9.34C95.1196 9.572 95.1036 9.772 95.0716 9.94H89.8036C89.8276 10.692 90.0396 11.256 90.4396 11.632C90.8476 12.008 91.3436 12.196 91.9276 12.196C92.4556 12.196 92.8956 12.064 93.2476 11.8C93.6076 11.528 93.8276 11.168 93.9076 10.72H95.0716C94.9916 11.176 94.8116 11.584 94.5316 11.944C94.2596 12.304 93.9036 12.584 93.4636 12.784C93.0236 12.984 92.5276 13.084 91.9756 13.084C91.3436 13.084 90.7836 12.948 90.2956 12.676C89.8076 12.404 89.4236 12.016 89.1436 11.512C88.8716 11 88.7356 10.4 88.7356 9.712C88.7356 9.024 88.8716 8.424 89.1436 7.912C89.4236 7.4 89.8076 7.008 90.2956 6.736C90.7836 6.464 91.3436 6.328 91.9756 6.328C92.6156 6.328 93.1716 6.464 93.6436 6.736C94.1236 7.008 94.4876 7.372 94.7356 7.828C94.9916 8.284 95.1196 8.788 95.1196 9.34ZM94.0156 9.412C94.0396 8.924 93.9596 8.516 93.7756 8.188C93.5916 7.86 93.3396 7.616 93.0196 7.456C92.6996 7.296 92.3516 7.216 91.9756 7.216C91.3756 7.216 90.8716 7.404 90.4636 7.78C90.0556 8.148 89.8356 8.692 89.8036 9.412H94.0156ZM97.6399 7.744C97.8559 7.288 98.1719 6.936 98.5879 6.688C99.0039 6.432 99.4999 6.304 100.076 6.304V7.492H99.7399C99.1239 7.492 98.6199 7.652 98.2279 7.972C97.8359 8.284 97.6399 8.804 97.6399 9.532V13H96.5479V6.412H97.6399V7.744ZM104.297 12.04V13H103.481C102.809 13 102.305 12.84 101.969 12.52C101.641 12.2 101.477 11.664 101.477 10.912V7.36H100.493V6.412H101.477V4.768H102.581V6.412H104.285V7.36H102.581V10.936C102.581 11.36 102.657 11.652 102.809 11.812C102.969 11.964 103.241 12.04 103.625 12.04H104.297ZM105.438 4.48C105.438 4.28 105.506 4.12 105.642 4C105.778 3.872 105.958 3.808 106.182 3.808C106.406 3.808 106.586 3.872 106.722 4C106.858 4.12 106.926 4.28 106.926 4.48C106.926 4.68 106.858 4.844 106.722 4.972C106.586 5.092 106.406 5.152 106.182 5.152C105.958 5.152 105.778 5.092 105.642 4.972C105.506 4.844 105.438 4.68 105.438 4.48ZM106.722 6.412V13H105.63V6.412H106.722ZM111.394 4.852C110.81 4.844 110.402 4.944 110.17 5.152C109.946 5.36 109.834 5.72 109.834 6.232V6.412H111.394V7.372H109.834V13H108.742V7.372H107.794V6.412H108.742V6.148C108.742 4.572 109.626 3.82 111.394 3.892V4.852ZM112.387 4.48C112.387 4.28 112.455 4.12 112.591 4C112.727 3.872 112.907 3.808 113.131 3.808C113.355 3.808 113.535 3.872 113.671 4C113.807 4.12 113.875 4.28 113.875 4.48C113.875 4.68 113.807 4.844 113.671 4.972C113.535 5.092 113.355 5.152 113.131 5.152C112.907 5.152 112.727 5.092 112.591 4.972C112.455 4.844 112.387 4.68 112.387 4.48ZM113.671 6.412V13H112.579V6.412H113.671ZM118.343 6.328C119.183 6.328 119.879 6.552 120.431 7C120.983 7.448 121.323 8.048 121.451 8.8H120.299C120.219 8.328 119.999 7.96 119.639 7.696C119.287 7.424 118.847 7.288 118.319 7.288C117.935 7.288 117.583 7.376 117.263 7.552C116.951 7.728 116.699 8 116.507 8.368C116.315 8.728 116.219 9.176 116.219 9.712C116.219 10.248 116.315 10.7 116.507 11.068C116.699 11.428 116.951 11.696 117.263 11.872C117.583 12.048 117.935 12.136 118.319 12.136C118.847 12.136 119.287 12 119.639 11.728C119.999 11.456 120.219 11.084 120.299 10.612H121.451C121.323 11.372 120.983 11.976 120.431 12.424C119.879 12.864 119.183 13.084 118.343 13.084C117.711 13.084 117.151 12.948 116.663 12.676C116.175 12.404 115.791 12.016 115.511 11.512C115.239 11 115.103 10.4 115.103 9.712C115.103 9.024 115.239 8.424 115.511 7.912C115.791 7.4 116.175 7.008 116.663 6.736C117.151 6.464 117.711 6.328 118.343 6.328ZM125.58 6.328C126.22 6.328 126.76 6.488 127.2 6.808C127.648 7.128 127.96 7.556 128.136 8.092V6.412H129.228V13H128.136V11.32C127.96 11.856 127.648 12.284 127.2 12.604C126.76 12.924 126.22 13.084 125.58 13.084C124.996 13.084 124.476 12.948 124.02 12.676C123.564 12.404 123.204 12.016 122.94 11.512C122.684 11 122.556 10.4 122.556 9.712C122.556 9.024 122.684 8.424 122.94 7.912C123.204 7.4 123.564 7.008 124.02 6.736C124.476 6.464 124.996 6.328 125.58 6.328ZM125.892 7.3C125.22 7.3 124.68 7.516 124.272 7.948C123.872 8.372 123.672 8.96 123.672 9.712C123.672 10.464 123.872 11.056 124.272 11.488C124.68 11.912 125.22 12.124 125.892 12.124C126.324 12.124 126.708 12.024 127.044 11.824C127.388 11.624 127.656 11.344 127.848 10.984C128.04 10.616 128.136 10.192 128.136 9.712C128.136 9.232 128.04 8.808 127.848 8.44C127.656 8.072 127.388 7.792 127.044 7.6C126.708 7.4 126.324 7.3 125.892 7.3ZM134.11 12.04V13H133.294C132.622 13 132.118 12.84 131.782 12.52C131.454 12.2 131.29 11.664 131.29 10.912V7.36H130.306V6.412H131.29V4.768H132.394V6.412H134.098V7.36H132.394V10.936C132.394 11.36 132.47 11.652 132.622 11.812C132.782 11.964 133.054 12.04 133.438 12.04H134.11ZM135.25 4.48C135.25 4.28 135.318 4.12 135.454 4C135.59 3.872 135.77 3.808 135.994 3.808C136.218 3.808 136.398 3.872 136.534 4C136.67 4.12 136.738 4.28 136.738 4.48C136.738 4.68 136.67 4.844 136.534 4.972C136.398 5.092 136.218 5.152 135.994 5.152C135.77 5.152 135.59 5.092 135.454 4.972C135.318 4.844 135.25 4.68 135.25 4.48ZM136.534 6.412V13H135.442V6.412H136.534ZM141.278 6.328C141.91 6.328 142.474 6.464 142.97 6.736C143.474 7.008 143.866 7.4 144.146 7.912C144.434 8.424 144.578 9.024 144.578 9.712C144.578 10.4 144.434 11 144.146 11.512C143.866 12.016 143.474 12.404 142.97 12.676C142.474 12.948 141.91 13.084 141.278 13.084C140.646 13.084 140.078 12.948 139.574 12.676C139.078 12.404 138.686 12.016 138.398 11.512C138.11 11 137.966 10.4 137.966 9.712C137.966 9.024 138.11 8.424 138.398 7.912C138.686 7.4 139.078 7.008 139.574 6.736C140.078 6.464 140.646 6.328 141.278 6.328ZM141.278 7.288C140.886 7.288 140.522 7.376 140.186 7.552C139.858 7.728 139.59 8 139.382 8.368C139.182 8.728 139.082 9.176 139.082 9.712C139.082 10.24 139.182 10.688 139.382 11.056C139.59 11.416 139.858 11.684 140.186 11.86C140.522 12.036 140.886 12.124 141.278 12.124C141.67 12.124 142.03 12.036 142.358 11.86C142.694 11.684 142.962 11.416 143.162 11.056C143.37 10.688 143.474 10.24 143.474 9.712C143.474 9.176 143.37 8.728 143.162 8.368C142.962 8 142.694 7.728 142.358 7.552C142.03 7.376 141.67 7.288 141.278 7.288ZM149.469 6.304C150.237 6.304 150.857 6.552 151.329 7.048C151.801 7.536 152.037 8.244 152.037 9.172V13H150.945V9.268C150.945 8.612 150.777 8.108 150.441 7.756C150.105 7.404 149.649 7.228 149.073 7.228C148.473 7.228 147.993 7.424 147.633 7.816C147.273 8.2 147.093 8.764 147.093 9.508V13H146.001V6.412H147.093V7.972C147.261 7.436 147.557 7.024 147.981 6.736C148.413 6.448 148.909 6.304 149.469 6.304Z" fill="#464E5F" />
                    <path fill-rule="evenodd" clip-rule="evenodd" d="M16.5 35C16.5 39.1392 13.14 42.5 9 42.5C4.8525 42.5 1.5 39.1392 1.5 35C1.5 30.8592 4.8525 27.5 9 27.5C13.14 27.5 16.5 30.8592 16.5 35ZM9.66 37.8424C9.66 38.2017 9.36 38.5024 9 38.5024C8.64 38.5024 8.3475 38.2017 8.3475 37.8424L8.3475 34.5274C8.3475 34.1667 8.64 33.8749 9 33.8749C9.36 33.8749 9.66 34.1667 9.66 34.5274V37.8424ZM8.99259 31.4891C9.36009 31.4891 9.65259 31.7891 9.65259 32.1491C9.65259 32.5091 9.36009 32.8016 9.00009 32.8016C8.63259 32.8016 8.34009 32.5091 8.34009 32.1491C8.34009 31.7891 8.63259 31.4891 8.99259 31.4891Z" fill="#FFAD0D" />
                    <path opacity="0.8" d="M24.728 34.084L28.27 38H27.038L23.804 34.381V38H22.803V30.245H23.804V33.842L27.049 30.245H28.27L24.728 34.084ZM29.0831 30.19C29.0831 30.0067 29.1454 29.86 29.2701 29.75C29.3947 29.6327 29.5597 29.574 29.7651 29.574C29.9704 29.574 30.1354 29.6327 30.2601 29.75C30.3847 29.86 30.4471 30.0067 30.4471 30.19C30.4471 30.3733 30.3847 30.5237 30.2601 30.641C30.1354 30.751 29.9704 30.806 29.7651 30.806C29.5597 30.806 29.3947 30.751 29.2701 30.641C29.1454 30.5237 29.0831 30.3733 29.0831 30.19ZM30.2601 31.961V38H29.2591V31.961H30.2601ZM35.0484 31.862C35.7524 31.862 36.3207 32.0893 36.7534 32.544C37.1861 32.9913 37.4024 33.6403 37.4024 34.491V38H36.4014V34.579C36.4014 33.9777 36.2474 33.5157 35.9394 33.193C35.6314 32.8703 35.2134 32.709 34.6854 32.709C34.1354 32.709 33.6954 32.8887 33.3654 33.248C33.0354 33.6 32.8704 34.117 32.8704 34.799V38H31.8694V31.961H32.8704V33.391C33.0244 32.8997 33.2957 32.522 33.6844 32.258C34.0804 31.994 34.5351 31.862 35.0484 31.862ZM41.4128 31.884C41.9994 31.884 42.4944 32.0307 42.8978 32.324C43.3084 32.6173 43.5944 33.0097 43.7558 33.501V29.86H44.7568V38H43.7558V36.46C43.5944 36.9513 43.3084 37.3437 42.8978 37.637C42.4944 37.9303 41.9994 38.077 41.4128 38.077C40.8774 38.077 40.4008 37.9523 39.9828 37.703C39.5648 37.4537 39.2348 37.098 38.9928 36.636C38.7581 36.1667 38.6408 35.6167 38.6408 34.986C38.6408 34.3553 38.7581 33.8053 38.9928 33.336C39.2348 32.8667 39.5648 32.5073 39.9828 32.258C40.4008 32.0087 40.8774 31.884 41.4128 31.884ZM41.6988 32.775C41.0828 32.775 40.5878 32.973 40.2138 33.369C39.8471 33.7577 39.6638 34.2967 39.6638 34.986C39.6638 35.6753 39.8471 36.218 40.2138 36.614C40.5878 37.0027 41.0828 37.197 41.6988 37.197C42.0948 37.197 42.4468 37.1053 42.7548 36.922C43.0701 36.7387 43.3158 36.482 43.4918 36.152C43.6678 35.8147 43.7558 35.426 43.7558 34.986C43.7558 34.546 43.6678 34.1573 43.4918 33.82C43.3158 33.4827 43.0701 33.226 42.7548 33.05C42.4468 32.8667 42.0948 32.775 41.6988 32.775ZM47.3509 29.86V38H46.3499V29.86H47.3509ZM49.3782 31.961L51.3362 36.713L53.1512 31.961H54.2622L50.6762 40.86H49.5432L50.7972 37.901L48.2562 31.961H49.3782ZM63.2657 31.961V38H62.2647V36.581C62.1107 37.0723 61.8357 37.45 61.4397 37.714C61.0511 37.9707 60.5964 38.099 60.0757 38.099C59.3791 38.099 58.8144 37.8753 58.3817 37.428C57.9491 36.9733 57.7327 36.3243 57.7327 35.481V31.961H58.7337V35.382C58.7337 35.9833 58.8877 36.449 59.1957 36.779C59.5037 37.1017 59.9217 37.263 60.4497 37.263C60.9997 37.263 61.4397 37.087 61.7697 36.735C62.0997 36.3757 62.2647 35.855 62.2647 35.173V31.961H63.2657ZM68.2024 31.884C68.7377 31.884 69.2144 32.0087 69.6324 32.258C70.0504 32.5073 70.3767 32.8667 70.6114 33.336C70.8534 33.8053 70.9744 34.3553 70.9744 34.986C70.9744 35.6167 70.8534 36.1667 70.6114 36.636C70.3767 37.098 70.0504 37.4537 69.6324 37.703C69.2144 37.9523 68.7377 38.077 68.2024 38.077C67.6157 38.077 67.1171 37.9303 66.7064 37.637C66.3031 37.3363 66.0244 36.944 65.8704 36.46V40.86H64.8694V31.961H65.8704V33.501C66.0244 33.017 66.3031 32.6283 66.7064 32.335C67.1171 32.0343 67.6157 31.884 68.2024 31.884ZM67.9164 32.775C67.5277 32.775 67.1757 32.8667 66.8604 33.05C66.5451 33.226 66.2994 33.4827 66.1234 33.82C65.9474 34.1573 65.8594 34.546 65.8594 34.986C65.8594 35.426 65.9474 35.8147 66.1234 36.152C66.2994 36.482 66.5451 36.7387 66.8604 36.922C67.1757 37.1053 67.5277 37.197 67.9164 37.197C68.5397 37.197 69.0347 37.0027 69.4014 36.614C69.7754 36.218 69.9624 35.6753 69.9624 34.986C69.9624 34.2967 69.7754 33.7577 69.4014 33.369C69.0347 32.973 68.5397 32.775 67.9164 32.775ZM73.2825 29.86V38H72.2815V29.86H73.2825ZM77.6309 31.884C78.2102 31.884 78.7272 32.0087 79.1819 32.258C79.6439 32.5073 80.0032 32.8667 80.2599 33.336C80.5239 33.8053 80.6559 34.3553 80.6559 34.986C80.6559 35.6167 80.5239 36.1667 80.2599 36.636C80.0032 37.098 79.6439 37.4537 79.1819 37.703C78.7272 37.9523 78.2102 38.077 77.6309 38.077C77.0515 38.077 76.5309 37.9523 76.0689 37.703C75.6142 37.4537 75.2549 37.098 74.9909 36.636C74.7269 36.1667 74.5949 35.6167 74.5949 34.986C74.5949 34.3553 74.7269 33.8053 74.9909 33.336C75.2549 32.8667 75.6142 32.5073 76.0689 32.258C76.5309 32.0087 77.0515 31.884 77.6309 31.884ZM77.6309 32.764C77.2715 32.764 76.9379 32.8447 76.6299 33.006C76.3292 33.1673 76.0835 33.4167 75.8929 33.754C75.7095 34.084 75.6179 34.4947 75.6179 34.986C75.6179 35.47 75.7095 35.8807 75.8929 36.218C76.0835 36.548 76.3292 36.7937 76.6299 36.955C76.9379 37.1163 77.2715 37.197 77.6309 37.197C77.9902 37.197 78.3202 37.1163 78.6209 36.955C78.9289 36.7937 79.1745 36.548 79.3579 36.218C79.5485 35.8807 79.6439 35.47 79.6439 34.986C79.6439 34.4947 79.5485 34.084 79.3579 33.754C79.1745 33.4167 78.9289 33.1673 78.6209 33.006C78.3202 32.8447 77.9902 32.764 77.6309 32.764ZM84.4352 31.884C85.0219 31.884 85.5169 32.0307 85.9202 32.324C86.3309 32.6173 86.6169 33.0097 86.7782 33.501V31.961H87.7792V38H86.7782V36.46C86.6169 36.9513 86.3309 37.3437 85.9202 37.637C85.5169 37.9303 85.0219 38.077 84.4352 38.077C83.8999 38.077 83.4232 37.9523 83.0052 37.703C82.5872 37.4537 82.2572 37.098 82.0152 36.636C81.7806 36.1667 81.6632 35.6167 81.6632 34.986C81.6632 34.3553 81.7806 33.8053 82.0152 33.336C82.2572 32.8667 82.5872 32.5073 83.0052 32.258C83.4232 32.0087 83.8999 31.884 84.4352 31.884ZM84.7212 32.775C84.1052 32.775 83.6102 32.973 83.2362 33.369C82.8696 33.7577 82.6862 34.2967 82.6862 34.986C82.6862 35.6753 82.8696 36.218 83.2362 36.614C83.6102 37.0027 84.1052 37.197 84.7212 37.197C85.1172 37.197 85.4692 37.1053 85.7772 36.922C86.0926 36.7387 86.3382 36.482 86.5142 36.152C86.6902 35.8147 86.7782 35.426 86.7782 34.986C86.7782 34.546 86.6902 34.1573 86.5142 33.82C86.3382 33.4827 86.0926 33.226 85.7772 33.05C85.4692 32.8667 85.1172 32.775 84.7212 32.775ZM91.8473 31.884C92.434 31.884 92.929 32.0307 93.3323 32.324C93.743 32.6173 94.029 33.0097 94.1903 33.501V29.86H95.1913V38H94.1903V36.46C94.029 36.9513 93.743 37.3437 93.3323 37.637C92.929 37.9303 92.434 38.077 91.8473 38.077C91.312 38.077 90.8353 37.9523 90.4173 37.703C89.9993 37.4537 89.6693 37.098 89.4273 36.636C89.1927 36.1667 89.0753 35.6167 89.0753 34.986C89.0753 34.3553 89.1927 33.8053 89.4273 33.336C89.6693 32.8667 89.9993 32.5073 90.4173 32.258C90.8353 32.0087 91.312 31.884 91.8473 31.884ZM92.1333 32.775C91.5173 32.775 91.0223 32.973 90.6483 33.369C90.2817 33.7577 90.0983 34.2967 90.0983 34.986C90.0983 35.6753 90.2817 36.218 90.6483 36.614C91.0223 37.0027 91.5173 37.197 92.1333 37.197C92.5293 37.197 92.8813 37.1053 93.1893 36.922C93.5047 36.7387 93.7503 36.482 93.9263 36.152C94.1023 35.8147 94.1903 35.426 94.1903 34.986C94.1903 34.546 94.1023 34.1573 93.9263 33.82C93.7503 33.4827 93.5047 33.226 93.1893 33.05C92.8813 32.8667 92.5293 32.775 92.1333 32.775ZM99.9202 31.961L101.878 36.713L103.693 31.961H104.804L101.218 40.86H100.085L101.339 37.901L98.7982 31.961H99.9202ZM108.461 31.884C109.04 31.884 109.557 32.0087 110.012 32.258C110.474 32.5073 110.833 32.8667 111.09 33.336C111.354 33.8053 111.486 34.3553 111.486 34.986C111.486 35.6167 111.354 36.1667 111.09 36.636C110.833 37.098 110.474 37.4537 110.012 37.703C109.557 37.9523 109.04 38.077 108.461 38.077C107.882 38.077 107.361 37.9523 106.899 37.703C106.444 37.4537 106.085 37.098 105.821 36.636C105.557 36.1667 105.425 35.6167 105.425 34.986C105.425 34.3553 105.557 33.8053 105.821 33.336C106.085 32.8667 106.444 32.5073 106.899 32.258C107.361 32.0087 107.882 31.884 108.461 31.884ZM108.461 32.764C108.102 32.764 107.768 32.8447 107.46 33.006C107.159 33.1673 106.914 33.4167 106.723 33.754C106.54 34.084 106.448 34.4947 106.448 34.986C106.448 35.47 106.54 35.8807 106.723 36.218C106.914 36.548 107.159 36.7937 107.46 36.955C107.768 37.1163 108.102 37.197 108.461 37.197C108.82 37.197 109.15 37.1163 109.451 36.955C109.759 36.7937 110.005 36.548 110.188 36.218C110.379 35.8807 110.474 35.47 110.474 34.986C110.474 34.4947 110.379 34.084 110.188 33.754C110.005 33.4167 109.759 33.1673 109.451 33.006C109.15 32.8447 108.82 32.764 108.461 32.764ZM118.158 31.961V38H117.157V36.581C117.003 37.0723 116.728 37.45 116.332 37.714C115.944 37.9707 115.489 38.099 114.968 38.099C114.272 38.099 113.707 37.8753 113.274 37.428C112.842 36.9733 112.625 36.3243 112.625 35.481V31.961H113.626V35.382C113.626 35.9833 113.78 36.449 114.088 36.779C114.396 37.1017 114.814 37.263 115.342 37.263C115.892 37.263 116.332 37.087 116.662 36.735C116.992 36.3757 117.157 35.855 117.157 35.173V31.961H118.158ZM120.763 33.182C120.961 32.764 121.251 32.4413 121.632 32.214C122.013 31.9793 122.468 31.862 122.996 31.862V32.951H122.688C122.123 32.951 121.661 33.0977 121.302 33.391C120.943 33.677 120.763 34.1537 120.763 34.821V38H119.762V31.961H120.763V33.182ZM129.374 31.884C130.144 31.884 130.782 32.0893 131.288 32.5C131.794 32.9107 132.106 33.4607 132.223 34.15H131.167C131.094 33.7173 130.892 33.38 130.562 33.138C130.24 32.8887 129.836 32.764 129.352 32.764C129 32.764 128.678 32.8447 128.384 33.006C128.098 33.1673 127.867 33.4167 127.691 33.754C127.515 34.084 127.427 34.4947 127.427 34.986C127.427 35.4773 127.515 35.8917 127.691 36.229C127.867 36.559 128.098 36.8047 128.384 36.966C128.678 37.1273 129 37.208 129.352 37.208C129.836 37.208 130.24 37.0833 130.562 36.834C130.892 36.5847 131.094 36.2437 131.167 35.811H132.223C132.106 36.5077 131.794 37.0613 131.288 37.472C130.782 37.8753 130.144 38.077 129.374 38.077C128.795 38.077 128.282 37.9523 127.834 37.703C127.387 37.4537 127.035 37.098 126.778 36.636C126.529 36.1667 126.404 35.6167 126.404 34.986C126.404 34.3553 126.529 33.8053 126.778 33.336C127.035 32.8667 127.387 32.5073 127.834 32.258C128.282 32.0087 128.795 31.884 129.374 31.884ZM136.272 31.884C136.852 31.884 137.369 32.0087 137.823 32.258C138.285 32.5073 138.645 32.8667 138.901 33.336C139.165 33.8053 139.297 34.3553 139.297 34.986C139.297 35.6167 139.165 36.1667 138.901 36.636C138.645 37.098 138.285 37.4537 137.823 37.703C137.369 37.9523 136.852 38.077 136.272 38.077C135.693 38.077 135.172 37.9523 134.71 37.703C134.256 37.4537 133.896 37.098 133.632 36.636C133.368 36.1667 133.236 35.6167 133.236 34.986C133.236 34.3553 133.368 33.8053 133.632 33.336C133.896 32.8667 134.256 32.5073 134.71 32.258C135.172 32.0087 135.693 31.884 136.272 31.884ZM136.272 32.764C135.913 32.764 135.579 32.8447 135.271 33.006C134.971 33.1673 134.725 33.4167 134.534 33.754C134.351 34.084 134.259 34.4947 134.259 34.986C134.259 35.47 134.351 35.8807 134.534 36.218C134.725 36.548 134.971 36.7937 135.271 36.955C135.579 37.1163 135.913 37.197 136.272 37.197C136.632 37.197 136.962 37.1163 137.262 36.955C137.57 36.7937 137.816 36.548 137.999 36.218C138.19 35.8807 138.285 35.47 138.285 34.986C138.285 34.4947 138.19 34.084 137.999 33.754C137.816 33.4167 137.57 33.1673 137.262 33.006C136.962 32.8447 136.632 32.764 136.272 32.764ZM148.027 31.862C148.731 31.862 149.295 32.0893 149.721 32.544C150.153 32.9913 150.37 33.6403 150.37 34.491V38H149.369V34.579C149.369 33.985 149.222 33.5303 148.929 33.215C148.643 32.8997 148.247 32.742 147.741 32.742C147.213 32.742 146.787 32.918 146.465 33.27C146.149 33.6147 145.992 34.1243 145.992 34.799V38H144.991V34.579C144.991 33.985 144.844 33.5303 144.551 33.215C144.257 32.8997 143.861 32.742 143.363 32.742C142.827 32.742 142.398 32.918 142.076 33.27C141.76 33.6147 141.603 34.1243 141.603 34.799V38H140.602V31.961H141.603V33.336C141.749 32.8593 142.01 32.4963 142.384 32.247C142.765 31.9903 143.201 31.862 143.693 31.862C144.206 31.862 144.65 31.994 145.024 32.258C145.405 32.5147 145.676 32.896 145.838 33.402C146.006 32.9107 146.289 32.533 146.685 32.269C147.081 31.9977 147.528 31.862 148.027 31.862ZM155.257 31.884C155.792 31.884 156.269 32.0087 156.687 32.258C157.105 32.5073 157.431 32.8667 157.666 33.336C157.908 33.8053 158.029 34.3553 158.029 34.986C158.029 35.6167 157.908 36.1667 157.666 36.636C157.431 37.098 157.105 37.4537 156.687 37.703C156.269 37.9523 155.792 38.077 155.257 38.077C154.67 38.077 154.172 37.9303 153.761 37.637C153.358 37.3363 153.079 36.944 152.925 36.46V40.86H151.924V31.961H152.925V33.501C153.079 33.017 153.358 32.6283 153.761 32.335C154.172 32.0343 154.67 31.884 155.257 31.884ZM154.971 32.775C154.582 32.775 154.23 32.8667 153.915 33.05C153.6 33.226 153.354 33.4827 153.178 33.82C153.002 34.1573 152.914 34.546 152.914 34.986C152.914 35.426 153.002 35.8147 153.178 36.152C153.354 36.482 153.6 36.7387 153.915 36.922C154.23 37.1053 154.582 37.197 154.971 37.197C155.594 37.197 156.089 37.0027 156.456 36.614C156.83 36.218 157.017 35.6753 157.017 34.986C157.017 34.2967 156.83 33.7577 156.456 33.369C156.089 32.973 155.594 32.775 154.971 32.775ZM161.811 31.884C162.398 31.884 162.893 32.0307 163.296 32.324C163.707 32.6173 163.993 33.0097 164.154 33.501V31.961H165.155V38H164.154V36.46C163.993 36.9513 163.707 37.3437 163.296 37.637C162.893 37.9303 162.398 38.077 161.811 38.077C161.276 38.077 160.799 37.9523 160.381 37.703C159.963 37.4537 159.633 37.098 159.391 36.636C159.157 36.1667 159.039 35.6167 159.039 34.986C159.039 34.3553 159.157 33.8053 159.391 33.336C159.633 32.8667 159.963 32.5073 160.381 32.258C160.799 32.0087 161.276 31.884 161.811 31.884ZM162.097 32.775C161.481 32.775 160.986 32.973 160.612 33.369C160.246 33.7577 160.062 34.2967 160.062 34.986C160.062 35.6753 160.246 36.218 160.612 36.614C160.986 37.0027 161.481 37.197 162.097 37.197C162.493 37.197 162.845 37.1053 163.153 36.922C163.469 36.7387 163.714 36.482 163.89 36.152C164.066 35.8147 164.154 35.426 164.154 34.986C164.154 34.546 164.066 34.1573 163.89 33.82C163.714 33.4827 163.469 33.226 163.153 33.05C162.845 32.8667 162.493 32.775 162.097 32.775ZM169.927 31.862C170.631 31.862 171.2 32.0893 171.632 32.544C172.065 32.9913 172.281 33.6403 172.281 34.491V38H171.28V34.579C171.28 33.9777 171.126 33.5157 170.818 33.193C170.51 32.8703 170.092 32.709 169.564 32.709C169.014 32.709 168.574 32.8887 168.244 33.248C167.914 33.6 167.749 34.117 167.749 34.799V38H166.748V31.961H167.749V33.391C167.903 32.8997 168.175 32.522 168.563 32.258C168.959 31.994 169.414 31.862 169.927 31.862ZM174.235 31.961L176.193 36.713L178.008 31.961H179.119L175.533 40.86H174.4L175.654 37.901L173.113 31.961H174.235ZM183.755 33.182C183.953 32.764 184.243 32.4413 184.624 32.214C185.006 31.9793 185.46 31.862 185.988 31.862V32.951H185.68C185.116 32.951 184.654 33.0977 184.294 33.391C183.935 33.677 183.755 34.1537 183.755 34.821V38H182.754V31.961H183.755V33.182ZM192.531 34.645C192.531 34.8577 192.516 35.041 192.487 35.195H187.658C187.68 35.8843 187.874 36.4013 188.241 36.746C188.615 37.0907 189.07 37.263 189.605 37.263C190.089 37.263 190.492 37.142 190.815 36.9C191.145 36.6507 191.347 36.3207 191.42 35.91H192.487C192.414 36.328 192.249 36.702 191.992 37.032C191.743 37.362 191.416 37.6187 191.013 37.802C190.61 37.9853 190.155 38.077 189.649 38.077C189.07 38.077 188.556 37.9523 188.109 37.703C187.662 37.4537 187.31 37.098 187.053 36.636C186.804 36.1667 186.679 35.6167 186.679 34.986C186.679 34.3553 186.804 33.8053 187.053 33.336C187.31 32.8667 187.662 32.5073 188.109 32.258C188.556 32.0087 189.07 31.884 189.649 31.884C190.236 31.884 190.745 32.0087 191.178 32.258C191.618 32.5073 191.952 32.841 192.179 33.259C192.414 33.677 192.531 34.139 192.531 34.645ZM191.519 34.711C191.541 34.2637 191.468 33.8897 191.299 33.589C191.13 33.2883 190.899 33.0647 190.606 32.918C190.313 32.7713 189.994 32.698 189.649 32.698C189.099 32.698 188.637 32.8703 188.263 33.215C187.889 33.5523 187.687 34.051 187.658 34.711H191.519ZM196.315 31.884C196.902 31.884 197.397 32.0307 197.8 32.324C198.211 32.6173 198.497 33.0097 198.658 33.501V31.961H199.659V38.099C199.659 38.6563 199.542 39.1513 199.307 39.584C199.072 40.0167 198.742 40.354 198.317 40.596C197.892 40.838 197.397 40.959 196.832 40.959C196.018 40.959 195.354 40.761 194.841 40.365C194.328 39.9763 194.001 39.4483 193.862 38.781H194.852C194.969 39.1843 195.189 39.4997 195.512 39.727C195.842 39.9617 196.264 40.079 196.777 40.079C197.32 40.079 197.767 39.903 198.119 39.551C198.478 39.2063 198.658 38.7223 198.658 38.099V36.46C198.497 36.9513 198.211 37.3437 197.8 37.637C197.397 37.9303 196.902 38.077 196.315 38.077C195.78 38.077 195.303 37.9523 194.885 37.703C194.467 37.4537 194.137 37.098 193.895 36.636C193.66 36.1667 193.543 35.6167 193.543 34.986C193.543 34.3553 193.66 33.8053 193.895 33.336C194.137 32.8667 194.467 32.5073 194.885 32.258C195.303 32.0087 195.78 31.884 196.315 31.884ZM196.601 32.775C195.985 32.775 195.49 32.973 195.116 33.369C194.749 33.7577 194.566 34.2967 194.566 34.986C194.566 35.6753 194.749 36.218 195.116 36.614C195.49 37.0027 195.985 37.197 196.601 37.197C196.997 37.197 197.349 37.1053 197.657 36.922C197.972 36.7387 198.218 36.482 198.394 36.152C198.57 35.8147 198.658 35.426 198.658 34.986C198.658 34.546 198.57 34.1573 198.394 33.82C198.218 33.4827 197.972 33.226 197.657 33.05C197.349 32.8667 196.997 32.775 196.601 32.775ZM201.076 30.19C201.076 30.0067 201.139 29.86 201.263 29.75C201.388 29.6327 201.553 29.574 201.758 29.574C201.964 29.574 202.129 29.6327 202.253 29.75C202.378 29.86 202.44 30.0067 202.44 30.19C202.44 30.3733 202.378 30.5237 202.253 30.641C202.129 30.751 201.964 30.806 201.758 30.806C201.553 30.806 201.388 30.751 201.263 30.641C201.139 30.5237 201.076 30.3733 201.076 30.19ZM202.253 31.961V38H201.252V31.961H202.253ZM205.755 31.884C206.437 31.884 206.983 32.0637 207.394 32.423C207.812 32.775 208.065 33.2517 208.153 33.853H207.196C207.152 33.4937 207.001 33.2003 206.745 32.973C206.495 32.7383 206.158 32.621 205.733 32.621C205.373 32.621 205.091 32.709 204.886 32.885C204.688 33.0537 204.589 33.2847 204.589 33.578C204.589 33.798 204.655 33.9777 204.787 34.117C204.926 34.249 205.095 34.3517 205.293 34.425C205.498 34.491 205.777 34.5643 206.129 34.645C206.576 34.7477 206.935 34.854 207.207 34.964C207.485 35.0667 207.72 35.2353 207.911 35.47C208.109 35.7047 208.208 36.02 208.208 36.416C208.208 36.9073 208.021 37.307 207.647 37.615C207.28 37.923 206.789 38.077 206.173 38.077C205.454 38.077 204.867 37.9047 204.413 37.56C203.958 37.2153 203.69 36.735 203.61 36.119H204.578C204.614 36.4857 204.772 36.7827 205.051 37.01C205.337 37.2373 205.711 37.351 206.173 37.351C206.517 37.351 206.785 37.263 206.976 37.087C207.174 36.911 207.273 36.68 207.273 36.394C207.273 36.1593 207.203 35.9723 207.064 35.833C206.924 35.6937 206.752 35.5873 206.547 35.514C206.341 35.4407 206.059 35.3637 205.7 35.283C205.252 35.1803 204.893 35.0777 204.622 34.975C204.358 34.8723 204.13 34.711 203.94 34.491C203.756 34.2637 203.665 33.9593 203.665 33.578C203.665 33.072 203.852 32.665 204.226 32.357C204.6 32.0417 205.109 31.884 205.755 31.884ZM212.427 37.12V38H211.679C211.063 38 210.601 37.8533 210.293 37.56C209.993 37.2667 209.842 36.7753 209.842 36.086V32.83H208.94V31.961H209.842V30.454H210.854V31.961H212.416V32.83H210.854V36.108C210.854 36.4967 210.924 36.7643 211.063 36.911C211.21 37.0503 211.459 37.12 211.811 37.12H212.427ZM214.65 33.182C214.848 32.764 215.137 32.4413 215.519 32.214C215.9 31.9793 216.355 31.862 216.883 31.862V32.951H216.575C216.01 32.951 215.548 33.0977 215.189 33.391C214.829 33.677 214.65 34.1537 214.65 34.821V38H213.649V31.961H214.65V33.182ZM220.345 31.884C220.932 31.884 221.427 32.0307 221.83 32.324C222.241 32.6173 222.527 33.0097 222.688 33.501V31.961H223.689V38H222.688V36.46C222.527 36.9513 222.241 37.3437 221.83 37.637C221.427 37.9303 220.932 38.077 220.345 38.077C219.81 38.077 219.333 37.9523 218.915 37.703C218.497 37.4537 218.167 37.098 217.925 36.636C217.691 36.1667 217.573 35.6167 217.573 34.986C217.573 34.3553 217.691 33.8053 217.925 33.336C218.167 32.8667 218.497 32.5073 218.915 32.258C219.333 32.0087 219.81 31.884 220.345 31.884ZM220.631 32.775C220.015 32.775 219.52 32.973 219.146 33.369C218.78 33.7577 218.596 34.2967 218.596 34.986C218.596 35.6753 218.78 36.218 219.146 36.614C219.52 37.0027 220.015 37.197 220.631 37.197C221.027 37.197 221.379 37.1053 221.687 36.922C222.003 36.7387 222.248 36.482 222.424 36.152C222.6 35.8147 222.688 35.426 222.688 34.986C222.688 34.546 222.6 34.1573 222.424 33.82C222.248 33.4827 222.003 33.226 221.687 33.05C221.379 32.8667 221.027 32.775 220.631 32.775ZM228.164 37.12V38H227.416C226.8 38 226.338 37.8533 226.03 37.56C225.73 37.2667 225.579 36.7753 225.579 36.086V32.83H224.677V31.961H225.579V30.454H226.591V31.961H228.153V32.83H226.591V36.108C226.591 36.4967 226.661 36.7643 226.8 36.911C226.947 37.0503 227.196 37.12 227.548 37.12H228.164ZM229.21 30.19C229.21 30.0067 229.272 29.86 229.397 29.75C229.522 29.6327 229.687 29.574 229.892 29.574C230.097 29.574 230.262 29.6327 230.387 29.75C230.512 29.86 230.574 30.0067 230.574 30.19C230.574 30.3733 230.512 30.5237 230.387 30.641C230.262 30.751 230.097 30.806 229.892 30.806C229.687 30.806 229.522 30.751 229.397 30.641C229.272 30.5237 229.21 30.3733 229.21 30.19ZM230.387 31.961V38H229.386V31.961H230.387ZM234.735 31.884C235.315 31.884 235.832 32.0087 236.286 32.258C236.748 32.5073 237.108 32.8667 237.364 33.336C237.628 33.8053 237.76 34.3553 237.76 34.986C237.76 35.6167 237.628 36.1667 237.364 36.636C237.108 37.098 236.748 37.4537 236.286 37.703C235.832 37.9523 235.315 38.077 234.735 38.077C234.156 38.077 233.635 37.9523 233.173 37.703C232.719 37.4537 232.359 37.098 232.095 36.636C231.831 36.1667 231.699 35.6167 231.699 34.986C231.699 34.3553 231.831 33.8053 232.095 33.336C232.359 32.8667 232.719 32.5073 233.173 32.258C233.635 32.0087 234.156 31.884 234.735 31.884ZM234.735 32.764C234.376 32.764 234.042 32.8447 233.734 33.006C233.434 33.1673 233.188 33.4167 232.997 33.754C232.814 34.084 232.722 34.4947 232.722 34.986C232.722 35.47 232.814 35.8807 232.997 36.218C233.188 36.548 233.434 36.7937 233.734 36.955C234.042 37.1163 234.376 37.197 234.735 37.197C235.095 37.197 235.425 37.1163 235.725 36.955C236.033 36.7937 236.279 36.548 236.462 36.218C236.653 35.8807 236.748 35.47 236.748 34.986C236.748 34.4947 236.653 34.084 236.462 33.754C236.279 33.4167 236.033 33.1673 235.725 33.006C235.425 32.8447 235.095 32.764 234.735 32.764ZM242.244 31.862C242.948 31.862 243.516 32.0893 243.949 32.544C244.381 32.9913 244.598 33.6403 244.598 34.491V38H243.597V34.579C243.597 33.9777 243.443 33.5157 243.135 33.193C242.827 32.8703 242.409 32.709 241.881 32.709C241.331 32.709 240.891 32.8887 240.561 33.248C240.231 33.6 240.066 34.117 240.066 34.799V38H239.065V31.961H240.066V33.391C240.22 32.8997 240.491 32.522 240.88 32.258C241.276 31.994 241.73 31.862 242.244 31.862ZM251.524 31.884C252.294 31.884 252.932 32.0893 253.438 32.5C253.944 32.9107 254.256 33.4607 254.373 34.15H253.317C253.244 33.7173 253.042 33.38 252.712 33.138C252.389 32.8887 251.986 32.764 251.502 32.764C251.15 32.764 250.827 32.8447 250.534 33.006C250.248 33.1673 250.017 33.4167 249.841 33.754C249.665 34.084 249.577 34.4947 249.577 34.986C249.577 35.4773 249.665 35.8917 249.841 36.229C250.017 36.559 250.248 36.8047 250.534 36.966C250.827 37.1273 251.15 37.208 251.502 37.208C251.986 37.208 252.389 37.0833 252.712 36.834C253.042 36.5847 253.244 36.2437 253.317 35.811H254.373C254.256 36.5077 253.944 37.0613 253.438 37.472C252.932 37.8753 252.294 38.077 251.524 38.077C250.945 38.077 250.431 37.9523 249.984 37.703C249.537 37.4537 249.185 37.098 248.928 36.636C248.679 36.1667 248.554 35.6167 248.554 34.986C248.554 34.3553 248.679 33.8053 248.928 33.336C249.185 32.8667 249.537 32.5073 249.984 32.258C250.431 32.0087 250.945 31.884 251.524 31.884ZM261.238 34.645C261.238 34.8577 261.223 35.041 261.194 35.195H256.365C256.387 35.8843 256.581 36.4013 256.948 36.746C257.322 37.0907 257.777 37.263 258.312 37.263C258.796 37.263 259.199 37.142 259.522 36.9C259.852 36.6507 260.054 36.3207 260.127 35.91H261.194C261.121 36.328 260.956 36.702 260.699 37.032C260.45 37.362 260.123 37.6187 259.72 37.802C259.317 37.9853 258.862 38.077 258.356 38.077C257.777 38.077 257.263 37.9523 256.816 37.703C256.369 37.4537 256.017 37.098 255.76 36.636C255.511 36.1667 255.386 35.6167 255.386 34.986C255.386 34.3553 255.511 33.8053 255.76 33.336C256.017 32.8667 256.369 32.5073 256.816 32.258C257.263 32.0087 257.777 31.884 258.356 31.884C258.943 31.884 259.452 32.0087 259.885 32.258C260.325 32.5073 260.659 32.841 260.886 33.259C261.121 33.677 261.238 34.139 261.238 34.645ZM260.226 34.711C260.248 34.2637 260.175 33.8897 260.006 33.589C259.837 33.2883 259.606 33.0647 259.313 32.918C259.02 32.7713 258.701 32.698 258.356 32.698C257.806 32.698 257.344 32.8703 256.97 33.215C256.596 33.5523 256.394 34.051 256.365 34.711H260.226ZM263.548 33.182C263.746 32.764 264.036 32.4413 264.417 32.214C264.798 31.9793 265.253 31.862 265.781 31.862V32.951H265.473C264.908 32.951 264.446 33.0977 264.087 33.391C263.728 33.677 263.548 34.1537 263.548 34.821V38H262.547V31.961H263.548V33.182ZM269.651 37.12V38H268.903C268.287 38 267.825 37.8533 267.517 37.56C267.216 37.2667 267.066 36.7753 267.066 36.086V32.83H266.164V31.961H267.066V30.454H268.078V31.961H269.64V32.83H268.078V36.108C268.078 36.4967 268.147 36.7643 268.287 36.911C268.433 37.0503 268.683 37.12 269.035 37.12H269.651ZM270.696 30.19C270.696 30.0067 270.759 29.86 270.883 29.75C271.008 29.6327 271.173 29.574 271.378 29.574C271.584 29.574 271.749 29.6327 271.873 29.75C271.998 29.86 272.06 30.0067 272.06 30.19C272.06 30.3733 271.998 30.5237 271.873 30.641C271.749 30.751 271.584 30.806 271.378 30.806C271.173 30.806 271.008 30.751 270.883 30.641C270.759 30.5237 270.696 30.3733 270.696 30.19ZM271.873 31.961V38H270.872V31.961H271.873ZM276.156 30.531C275.62 30.5237 275.246 30.6153 275.034 30.806C274.828 30.9967 274.726 31.3267 274.726 31.796V31.961H276.156V32.841H274.726V38H273.725V32.841H272.856V31.961H273.725V31.719C273.725 30.2743 274.535 29.585 276.156 29.651V30.531ZM277.066 30.19C277.066 30.0067 277.129 29.86 277.253 29.75C277.378 29.6327 277.543 29.574 277.748 29.574C277.954 29.574 278.119 29.6327 278.243 29.75C278.368 29.86 278.43 30.0067 278.43 30.19C278.43 30.3733 278.368 30.5237 278.243 30.641C278.119 30.751 277.954 30.806 277.748 30.806C277.543 30.806 277.378 30.751 277.253 30.641C277.129 30.5237 277.066 30.3733 277.066 30.19ZM278.243 31.961V38H277.242V31.961H278.243ZM282.526 31.884C283.296 31.884 283.934 32.0893 284.44 32.5C284.946 32.9107 285.257 33.4607 285.375 34.15H284.319C284.245 33.7173 284.044 33.38 283.714 33.138C283.391 32.8887 282.988 32.764 282.504 32.764C282.152 32.764 281.829 32.8447 281.536 33.006C281.25 33.1673 281.019 33.4167 280.843 33.754C280.667 34.084 280.579 34.4947 280.579 34.986C280.579 35.4773 280.667 35.8917 280.843 36.229C281.019 36.559 281.25 36.8047 281.536 36.966C281.829 37.1273 282.152 37.208 282.504 37.208C282.988 37.208 283.391 37.0833 283.714 36.834C284.044 36.5847 284.245 36.2437 284.319 35.811H285.375C285.257 36.5077 284.946 37.0613 284.44 37.472C283.934 37.8753 283.296 38.077 282.526 38.077C281.946 38.077 281.433 37.9523 280.986 37.703C280.538 37.4537 280.186 37.098 279.93 36.636C279.68 36.1667 279.556 35.6167 279.556 34.986C279.556 34.3553 279.68 33.8053 279.93 33.336C280.186 32.8667 280.538 32.5073 280.986 32.258C281.433 32.0087 281.946 31.884 282.526 31.884ZM289.16 31.884C289.747 31.884 290.242 32.0307 290.645 32.324C291.056 32.6173 291.342 33.0097 291.503 33.501V31.961H292.504V38H291.503V36.46C291.342 36.9513 291.056 37.3437 290.645 37.637C290.242 37.9303 289.747 38.077 289.16 38.077C288.625 38.077 288.148 37.9523 287.73 37.703C287.312 37.4537 286.982 37.098 286.74 36.636C286.505 36.1667 286.388 35.6167 286.388 34.986C286.388 34.3553 286.505 33.8053 286.74 33.336C286.982 32.8667 287.312 32.5073 287.73 32.258C288.148 32.0087 288.625 31.884 289.16 31.884ZM289.446 32.775C288.83 32.775 288.335 32.973 287.961 33.369C287.594 33.7577 287.411 34.2967 287.411 34.986C287.411 35.6753 287.594 36.218 287.961 36.614C288.335 37.0027 288.83 37.197 289.446 37.197C289.842 37.197 290.194 37.1053 290.502 36.922C290.817 36.7387 291.063 36.482 291.239 36.152C291.415 35.8147 291.503 35.426 291.503 34.986C291.503 34.546 291.415 34.1573 291.239 33.82C291.063 33.4827 290.817 33.226 290.502 33.05C290.194 32.8667 289.842 32.775 289.446 32.775ZM296.979 37.12V38H296.231C295.615 38 295.153 37.8533 294.845 37.56C294.544 37.2667 294.394 36.7753 294.394 36.086V32.83H293.492V31.961H294.394V30.454H295.406V31.961H296.968V32.83H295.406V36.108C295.406 36.4967 295.476 36.7643 295.615 36.911C295.762 37.0503 296.011 37.12 296.363 37.12H296.979ZM303.755 34.645C303.755 34.8577 303.741 35.041 303.711 35.195H298.882C298.904 35.8843 299.099 36.4013 299.465 36.746C299.839 37.0907 300.294 37.263 300.829 37.263C301.313 37.263 301.717 37.142 302.039 36.9C302.369 36.6507 302.571 36.3207 302.644 35.91H303.711C303.638 36.328 303.473 36.702 303.216 37.032C302.967 37.362 302.641 37.6187 302.237 37.802C301.834 37.9853 301.379 38.077 300.873 38.077C300.294 38.077 299.781 37.9523 299.333 37.703C298.886 37.4537 298.534 37.098 298.277 36.636C298.028 36.1667 297.903 35.6167 297.903 34.986C297.903 34.3553 298.028 33.8053 298.277 33.336C298.534 32.8667 298.886 32.5073 299.333 32.258C299.781 32.0087 300.294 31.884 300.873 31.884C301.46 31.884 301.97 32.0087 302.402 32.258C302.842 32.5073 303.176 32.841 303.403 33.259C303.638 33.677 303.755 34.139 303.755 34.645ZM302.743 34.711C302.765 34.2637 302.692 33.8897 302.523 33.589C302.355 33.2883 302.124 33.0647 301.83 32.918C301.537 32.7713 301.218 32.698 300.873 32.698C300.323 32.698 299.861 32.8703 299.487 33.215C299.113 33.5523 298.912 34.051 298.882 34.711H302.743ZM310.961 31.862C311.665 31.862 312.234 32.0893 312.666 32.544C313.099 32.9913 313.315 33.6403 313.315 34.491V38H312.314V34.579C312.314 33.9777 312.16 33.5157 311.852 33.193C311.544 32.8703 311.126 32.709 310.598 32.709C310.048 32.709 309.608 32.8887 309.278 33.248C308.948 33.6 308.783 34.117 308.783 34.799V38H307.782V29.86H308.783V33.391C308.937 32.8997 309.209 32.522 309.597 32.258C309.993 31.994 310.448 31.862 310.961 31.862ZM320.406 34.645C320.406 34.8577 320.391 35.041 320.362 35.195H315.533C315.555 35.8843 315.749 36.4013 316.116 36.746C316.49 37.0907 316.945 37.263 317.48 37.263C317.964 37.263 318.367 37.142 318.69 36.9C319.02 36.6507 319.222 36.3207 319.295 35.91H320.362C320.289 36.328 320.124 36.702 319.867 37.032C319.618 37.362 319.291 37.6187 318.888 37.802C318.485 37.9853 318.03 38.077 317.524 38.077C316.945 38.077 316.431 37.9523 315.984 37.703C315.537 37.4537 315.185 37.098 314.928 36.636C314.679 36.1667 314.554 35.6167 314.554 34.986C314.554 34.3553 314.679 33.8053 314.928 33.336C315.185 32.8667 315.537 32.5073 315.984 32.258C316.431 32.0087 316.945 31.884 317.524 31.884C318.111 31.884 318.62 32.0087 319.053 32.258C319.493 32.5073 319.827 32.841 320.054 33.259C320.289 33.677 320.406 34.139 320.406 34.645ZM319.394 34.711C319.416 34.2637 319.343 33.8897 319.174 33.589C319.005 33.2883 318.774 33.0647 318.481 32.918C318.188 32.7713 317.869 32.698 317.524 32.698C316.974 32.698 316.512 32.8703 316.138 33.215C315.764 33.5523 315.562 34.051 315.533 34.711H319.394ZM322.716 33.182C322.914 32.764 323.204 32.4413 323.585 32.214C323.966 31.9793 324.421 31.862 324.949 31.862V32.951H324.641C324.076 32.951 323.614 33.0977 323.255 33.391C322.896 33.677 322.716 34.1537 322.716 34.821V38H321.715V31.961H322.716V33.182ZM331.492 34.645C331.492 34.8577 331.477 35.041 331.448 35.195H326.619C326.641 35.8843 326.835 36.4013 327.202 36.746C327.576 37.0907 328.03 37.263 328.566 37.263C329.05 37.263 329.453 37.142 329.776 36.9C330.106 36.6507 330.307 36.3207 330.381 35.91H331.448C331.374 36.328 331.209 36.702 330.953 37.032C330.703 37.362 330.377 37.6187 329.974 37.802C329.57 37.9853 329.116 38.077 328.61 38.077C328.03 38.077 327.517 37.9523 327.07 37.703C326.622 37.4537 326.27 37.098 326.014 36.636C325.764 36.1667 325.64 35.6167 325.64 34.986C325.64 34.3553 325.764 33.8053 326.014 33.336C326.27 32.8667 326.622 32.5073 327.07 32.258C327.517 32.0087 328.03 31.884 328.61 31.884C329.196 31.884 329.706 32.0087 330.139 32.258C330.579 32.5073 330.912 32.841 331.14 33.259C331.374 33.677 331.492 34.139 331.492 34.645ZM330.48 34.711C330.502 34.2637 330.428 33.8897 330.26 33.589C330.091 33.2883 329.86 33.0647 329.567 32.918C329.273 32.7713 328.954 32.698 328.61 32.698C328.06 32.698 327.598 32.8703 327.224 33.215C326.85 33.5523 326.648 34.051 326.619 34.711H330.48Z" fill="#60708F" />
                    <rect x="8" y="60" width="449" height="190" rx="8" fill="white" />
                    <rect x="8" y="60" width="449" height="190" rx="8" stroke="#DEDFEC" stroke-width="2" stroke-linecap="round" stroke-linejoin="round" stroke-dasharray="8 8" />
                    <g opacity="0.7">
                      <path d="M245 143.401C249.492 142.955 253 139.165 253 134.556C253 129.21 248.09 125.005 242.84 125.757C242.831 125.758 242.823 125.754 242.819 125.746C240.81 121.746 236.67 119 231.889 119C225.519 119 220.288 123.872 219.718 130.093C219.717 130.103 219.708 130.111 219.698 130.111C216.054 130.108 213 133.121 213 136.778C213 140.46 215.985 143.444 219.667 143.444H221" stroke="#272848" stroke-width="3" stroke-linecap="round" />
                      <g opacity="0.3">
                        <path d="M228 140L232.293 135.707C232.683 135.317 233.317 135.317 233.707 135.707L238 140" stroke="#272848" stroke-width="3" stroke-linecap="round" />
                        <path d="M233 137L233 149" stroke="#272848" stroke-width="3" stroke-linecap="round" />
                      </g>
                    </g>
                    <path d="M138.737 195.702C138.737 196.682 138.532 197.546 138.121 198.292C137.711 199.039 137.113 199.622 136.329 200.042C135.555 200.453 134.631 200.658 133.557 200.658H130.043V190.774H133.557C134.631 190.774 135.555 190.98 136.329 191.39C137.113 191.792 137.711 192.366 138.121 193.112C138.532 193.85 138.737 194.713 138.737 195.702ZM133.389 198.894C134.453 198.894 135.275 198.614 135.853 198.054C136.441 197.494 136.735 196.71 136.735 195.702C136.735 194.685 136.441 193.896 135.853 193.336C135.275 192.776 134.453 192.496 133.389 192.496H132.017V198.894H133.389ZM142.189 194.386C142.479 193.892 142.861 193.504 143.337 193.224C143.813 192.935 144.345 192.79 144.933 192.79V194.904H144.359C142.913 194.904 142.189 195.576 142.189 196.92V200.658H140.215V192.902H142.189V194.386ZM149.064 192.804C149.717 192.804 150.277 192.958 150.744 193.266C151.211 193.574 151.542 193.99 151.738 194.512V192.902H153.698V200.658H151.738V199.034C151.542 199.557 151.211 199.977 150.744 200.294C150.277 200.602 149.717 200.756 149.064 200.756C148.411 200.756 147.823 200.598 147.3 200.28C146.777 199.963 146.367 199.506 146.068 198.908C145.779 198.302 145.634 197.592 145.634 196.78C145.634 195.968 145.779 195.264 146.068 194.666C146.367 194.06 146.777 193.598 147.3 193.28C147.823 192.963 148.411 192.804 149.064 192.804ZM149.68 194.526C149.064 194.526 148.569 194.727 148.196 195.128C147.823 195.53 147.636 196.08 147.636 196.78C147.636 197.48 147.823 198.031 148.196 198.432C148.569 198.824 149.064 199.02 149.68 199.02C150.277 199.02 150.767 198.82 151.15 198.418C151.542 198.008 151.738 197.462 151.738 196.78C151.738 196.09 151.542 195.544 151.15 195.142C150.767 194.732 150.277 194.526 149.68 194.526ZM158.525 192.804C159.178 192.804 159.738 192.958 160.205 193.266C160.671 193.574 161.003 193.99 161.199 194.512V192.902H163.159V200.686C163.159 201.405 163.014 202.049 162.725 202.618C162.445 203.197 162.02 203.65 161.451 203.976C160.891 204.303 160.209 204.466 159.407 204.466C158.287 204.466 157.381 204.2 156.691 203.668C156 203.136 155.58 202.413 155.431 201.498H157.377C157.489 201.89 157.703 202.194 158.021 202.408C158.347 202.632 158.763 202.744 159.267 202.744C159.845 202.744 160.312 202.572 160.667 202.226C161.021 201.89 161.199 201.377 161.199 200.686V199.034C161.003 199.557 160.671 199.977 160.205 200.294C159.738 200.602 159.178 200.756 158.525 200.756C157.871 200.756 157.283 200.598 156.761 200.28C156.238 199.963 155.827 199.506 155.529 198.908C155.239 198.302 155.095 197.592 155.095 196.78C155.095 195.968 155.239 195.264 155.529 194.666C155.827 194.06 156.238 193.598 156.761 193.28C157.283 192.963 157.871 192.804 158.525 192.804ZM159.141 194.526C158.525 194.526 158.03 194.727 157.657 195.128C157.283 195.53 157.097 196.08 157.097 196.78C157.097 197.48 157.283 198.031 157.657 198.432C158.03 198.824 158.525 199.02 159.141 199.02C159.738 199.02 160.228 198.82 160.611 198.418C161.003 198.008 161.199 197.462 161.199 196.78C161.199 196.09 161.003 195.544 160.611 195.142C160.228 194.732 159.738 194.526 159.141 194.526ZM169.327 192.902L171.441 198.166L173.401 192.902H175.571L170.825 204.354H168.641L170.391 200.434L167.129 192.902H169.327ZM180.084 192.804C180.84 192.804 181.517 192.963 182.114 193.28C182.721 193.598 183.197 194.06 183.542 194.666C183.888 195.264 184.06 195.968 184.06 196.78C184.06 197.592 183.888 198.297 183.542 198.894C183.197 199.492 182.721 199.954 182.114 200.28C181.517 200.598 180.84 200.756 180.084 200.756C179.328 200.756 178.647 200.598 178.04 200.28C177.443 199.954 176.972 199.492 176.626 198.894C176.281 198.297 176.108 197.592 176.108 196.78C176.108 195.968 176.281 195.264 176.626 194.666C176.972 194.06 177.443 193.598 178.04 193.28C178.647 192.963 179.328 192.804 180.084 192.804ZM180.084 194.512C179.534 194.512 179.067 194.708 178.684 195.1C178.302 195.483 178.11 196.043 178.11 196.78C178.11 197.518 178.302 198.082 178.684 198.474C179.067 198.857 179.534 199.048 180.084 199.048C180.635 199.048 181.102 198.857 181.484 198.474C181.867 198.082 182.058 197.518 182.058 196.78C182.058 196.043 181.867 195.483 181.484 195.1C181.102 194.708 180.635 194.512 180.084 194.512ZM192.876 192.902V200.658H190.902V199.09C190.696 199.613 190.356 200.024 189.88 200.322C189.413 200.612 188.872 200.756 188.256 200.756C187.36 200.756 186.646 200.462 186.114 199.874C185.582 199.286 185.316 198.465 185.316 197.41V192.902H187.276V197.186C187.276 197.802 187.434 198.283 187.752 198.628C188.069 198.964 188.498 199.132 189.04 199.132C189.609 199.132 190.062 198.95 190.398 198.586C190.734 198.222 190.902 197.7 190.902 197.018V192.902H192.876ZM196.644 194.386C196.934 193.892 197.316 193.504 197.792 193.224C198.268 192.935 198.8 192.79 199.388 192.79V194.904H198.814C197.368 194.904 196.644 195.576 196.644 196.92V200.658H194.67V192.902H196.644V194.386ZM207.366 191.558C206.787 191.521 206.381 191.605 206.148 191.81C205.914 192.016 205.798 192.375 205.798 192.888V192.902H207.366V194.568H205.798V200.658H203.824V194.568H202.83V192.902H203.824V192.72C203.824 191.796 204.085 191.087 204.608 190.592C205.14 190.088 205.924 189.836 206.96 189.836C207.137 189.836 207.272 189.841 207.366 189.85V191.558ZM208.323 190.676C208.323 190.359 208.435 190.102 208.659 189.906C208.883 189.701 209.177 189.598 209.541 189.598C209.905 189.598 210.199 189.701 210.423 189.906C210.647 190.102 210.759 190.359 210.759 190.676C210.759 190.984 210.647 191.241 210.423 191.446C210.199 191.642 209.905 191.74 209.541 191.74C209.177 191.74 208.883 191.642 208.659 191.446C208.435 191.241 208.323 190.984 208.323 190.676ZM210.521 192.902V200.658H208.547V192.902H210.521ZM214.281 190.298V200.658H212.307V190.298H214.281ZM223.361 196.486C223.361 196.682 223.338 196.906 223.291 197.158H217.607C217.635 197.849 217.822 198.358 218.167 198.684C218.512 199.011 218.942 199.174 219.455 199.174C219.912 199.174 220.29 199.062 220.589 198.838C220.897 198.614 221.093 198.311 221.177 197.928H223.263C223.16 198.47 222.941 198.955 222.605 199.384C222.269 199.814 221.835 200.15 221.303 200.392C220.78 200.635 220.197 200.756 219.553 200.756C218.797 200.756 218.125 200.598 217.537 200.28C216.949 199.954 216.492 199.492 216.165 198.894C215.838 198.297 215.675 197.592 215.675 196.78C215.675 195.968 215.838 195.264 216.165 194.666C216.492 194.06 216.949 193.598 217.537 193.28C218.125 192.963 218.797 192.804 219.553 192.804C220.318 192.804 220.986 192.963 221.555 193.28C222.134 193.598 222.577 194.036 222.885 194.596C223.202 195.147 223.361 195.777 223.361 196.486ZM221.373 196.29C221.401 195.656 221.233 195.175 220.869 194.848C220.514 194.522 220.076 194.358 219.553 194.358C219.021 194.358 218.573 194.522 218.209 194.848C217.845 195.175 217.644 195.656 217.607 196.29H221.373ZM232.431 192.79C233.327 192.79 234.041 193.084 234.573 193.672C235.105 194.26 235.371 195.086 235.371 196.15V200.658H233.411V196.374C233.411 195.758 233.252 195.282 232.935 194.946C232.618 194.601 232.184 194.428 231.633 194.428C231.073 194.428 230.625 194.61 230.289 194.974C229.953 195.338 229.785 195.861 229.785 196.542V200.658H227.811V190.298H229.785V194.456C229.99 193.934 230.326 193.528 230.793 193.238C231.269 192.94 231.815 192.79 232.431 192.79ZM244.402 196.486C244.402 196.682 244.379 196.906 244.332 197.158H238.648C238.676 197.849 238.863 198.358 239.208 198.684C239.553 199.011 239.983 199.174 240.496 199.174C240.953 199.174 241.331 199.062 241.63 198.838C241.938 198.614 242.134 198.311 242.218 197.928H244.304C244.201 198.47 243.982 198.955 243.646 199.384C243.31 199.814 242.876 200.15 242.344 200.392C241.821 200.635 241.238 200.756 240.594 200.756C239.838 200.756 239.166 200.598 238.578 200.28C237.99 199.954 237.533 199.492 237.206 198.894C236.879 198.297 236.716 197.592 236.716 196.78C236.716 195.968 236.879 195.264 237.206 194.666C237.533 194.06 237.99 193.598 238.578 193.28C239.166 192.963 239.838 192.804 240.594 192.804C241.359 192.804 242.027 192.963 242.596 193.28C243.175 193.598 243.618 194.036 243.926 194.596C244.243 195.147 244.402 195.777 244.402 196.486ZM242.414 196.29C242.442 195.656 242.274 195.175 241.91 194.848C241.555 194.522 241.117 194.358 240.594 194.358C240.062 194.358 239.614 194.522 239.25 194.848C238.886 195.175 238.685 195.656 238.648 196.29H242.414ZM247.777 194.386C248.067 193.892 248.449 193.504 248.925 193.224C249.401 192.935 249.933 192.79 250.521 192.79V194.904H249.947C248.501 194.904 247.777 195.576 247.777 196.92V200.658H245.803V192.902H247.777V194.386ZM258.908 196.486C258.908 196.682 258.884 196.906 258.838 197.158H253.154C253.182 197.849 253.368 198.358 253.714 198.684C254.059 199.011 254.488 199.174 255.002 199.174C255.459 199.174 255.837 199.062 256.136 198.838C256.444 198.614 256.64 198.311 256.724 197.928H258.81C258.707 198.47 258.488 198.955 258.152 199.384C257.816 199.814 257.382 200.15 256.85 200.392C256.327 200.635 255.744 200.756 255.1 200.756C254.344 200.756 253.672 200.598 253.084 200.28C252.496 199.954 252.038 199.492 251.712 198.894C251.385 198.297 251.222 197.592 251.222 196.78C251.222 195.968 251.385 195.264 251.712 194.666C252.038 194.06 252.496 193.598 253.084 193.28C253.672 192.963 254.344 192.804 255.1 192.804C255.865 192.804 256.532 192.963 257.102 193.28C257.68 193.598 258.124 194.036 258.432 194.596C258.749 195.147 258.908 195.777 258.908 196.486ZM256.92 196.29C256.948 195.656 256.78 195.175 256.416 194.848C256.061 194.522 255.622 194.358 255.1 194.358C254.568 194.358 254.12 194.522 253.756 194.848C253.392 195.175 253.191 195.656 253.154 196.29H256.92ZM261.555 199.384C261.779 199.888 261.891 200.397 261.891 200.91C261.891 201.489 261.737 201.965 261.429 202.338C261.13 202.712 260.664 202.898 260.029 202.898V202.142C260.272 202.142 260.449 202.082 260.561 201.96C260.673 201.848 260.729 201.643 260.729 201.344V201.204H259.833V199.384H261.555ZM269.936 192.804C270.692 192.804 271.369 192.963 271.966 193.28C272.573 193.598 273.049 194.06 273.394 194.666C273.739 195.264 273.912 195.968 273.912 196.78C273.912 197.592 273.739 198.297 273.394 198.894C273.049 199.492 272.573 199.954 271.966 200.28C271.369 200.598 270.692 200.756 269.936 200.756C269.18 200.756 268.499 200.598 267.892 200.28C267.295 199.954 266.823 199.492 266.478 198.894C266.133 198.297 265.96 197.592 265.96 196.78C265.96 195.968 266.133 195.264 266.478 194.666C266.823 194.06 267.295 193.598 267.892 193.28C268.499 192.963 269.18 192.804 269.936 192.804ZM269.936 194.512C269.385 194.512 268.919 194.708 268.536 195.1C268.153 195.483 267.962 196.043 267.962 196.78C267.962 197.518 268.153 198.082 268.536 198.474C268.919 198.857 269.385 199.048 269.936 199.048C270.487 199.048 270.953 198.857 271.336 198.474C271.719 198.082 271.91 197.518 271.91 196.78C271.91 196.043 271.719 195.483 271.336 195.1C270.953 194.708 270.487 194.512 269.936 194.512ZM277.281 194.386C277.57 193.892 277.953 193.504 278.429 193.224C278.905 192.935 279.437 192.79 280.025 192.79V194.904H279.451C278.004 194.904 277.281 195.576 277.281 196.92V200.658H275.307V192.902H277.281V194.386Z" fill="#272848" />
                    <path d="M288.801 192.804C289.454 192.804 290.042 192.963 290.565 193.28C291.087 193.598 291.493 194.06 291.783 194.666C292.081 195.264 292.231 195.968 292.231 196.78C292.231 197.592 292.081 198.302 291.783 198.908C291.493 199.506 291.087 199.963 290.565 200.28C290.042 200.598 289.454 200.756 288.801 200.756C288.147 200.756 287.587 200.602 287.121 200.294C286.663 199.977 286.337 199.557 286.141 199.034V200.658H284.167V190.298H286.141V194.512C286.337 193.99 286.663 193.574 287.121 193.266C287.587 192.958 288.147 192.804 288.801 192.804ZM288.185 194.526C287.587 194.526 287.093 194.732 286.701 195.142C286.318 195.544 286.127 196.09 286.127 196.78C286.127 197.462 286.318 198.008 286.701 198.418C287.093 198.82 287.587 199.02 288.185 199.02C288.801 199.02 289.295 198.824 289.669 198.432C290.042 198.031 290.229 197.48 290.229 196.78C290.229 196.08 290.042 195.53 289.669 195.128C289.295 194.727 288.801 194.526 288.185 194.526ZM295.601 194.386C295.891 193.892 296.273 193.504 296.749 193.224C297.225 192.935 297.757 192.79 298.345 192.79V194.904H297.771C296.325 194.904 295.601 195.576 295.601 196.92V200.658H293.627V192.902H295.601V194.386ZM303.022 192.804C303.778 192.804 304.455 192.963 305.052 193.28C305.659 193.598 306.135 194.06 306.48 194.666C306.825 195.264 306.998 195.968 306.998 196.78C306.998 197.592 306.825 198.297 306.48 198.894C306.135 199.492 305.659 199.954 305.052 200.28C304.455 200.598 303.778 200.756 303.022 200.756C302.266 200.756 301.585 200.598 300.978 200.28C300.381 199.954 299.909 199.492 299.564 198.894C299.219 198.297 299.046 197.592 299.046 196.78C299.046 195.968 299.219 195.264 299.564 194.666C299.909 194.06 300.381 193.598 300.978 193.28C301.585 192.963 302.266 192.804 303.022 192.804ZM303.022 194.512C302.471 194.512 302.005 194.708 301.622 195.1C301.239 195.483 301.048 196.043 301.048 196.78C301.048 197.518 301.239 198.082 301.622 198.474C302.005 198.857 302.471 199.048 303.022 199.048C303.573 199.048 304.039 198.857 304.422 198.474C304.805 198.082 304.996 197.518 304.996 196.78C304.996 196.043 304.805 195.483 304.422 195.1C304.039 194.708 303.573 194.512 303.022 194.512ZM319.495 192.902L317.409 200.658H315.225L313.559 195.016L311.851 200.658H309.667L307.595 192.902H309.569L310.829 198.894L312.551 192.902H314.637L316.373 198.894L317.647 192.902H319.495ZM323.153 192.804C324.096 192.804 324.852 193.042 325.421 193.518C325.99 193.994 326.345 194.629 326.485 195.422H324.637C324.562 195.049 324.394 194.75 324.133 194.526C323.872 194.302 323.531 194.19 323.111 194.19C322.775 194.19 322.514 194.27 322.327 194.428C322.14 194.587 322.047 194.802 322.047 195.072C322.047 195.287 322.122 195.46 322.271 195.59C322.42 195.721 322.607 195.824 322.831 195.898C323.055 195.973 323.377 196.062 323.797 196.164C324.385 196.295 324.861 196.435 325.225 196.584C325.598 196.724 325.916 196.953 326.177 197.27C326.448 197.578 326.583 197.998 326.583 198.53C326.583 199.193 326.322 199.73 325.799 200.14C325.286 200.551 324.59 200.756 323.713 200.756C322.705 200.756 321.898 200.532 321.291 200.084C320.684 199.627 320.316 198.978 320.185 198.138H322.075C322.122 198.521 322.29 198.824 322.579 199.048C322.868 199.263 323.246 199.37 323.713 199.37C324.049 199.37 324.306 199.291 324.483 199.132C324.66 198.964 324.749 198.75 324.749 198.488C324.749 198.264 324.67 198.082 324.511 197.942C324.362 197.802 324.17 197.695 323.937 197.62C323.713 197.546 323.391 197.457 322.971 197.354C322.392 197.224 321.921 197.093 321.557 196.962C321.202 196.822 320.894 196.603 320.633 196.304C320.381 196.006 320.255 195.595 320.255 195.072C320.255 194.4 320.512 193.854 321.025 193.434C321.538 193.014 322.248 192.804 323.153 192.804ZM335.347 196.486C335.347 196.682 335.324 196.906 335.277 197.158H329.593C329.621 197.849 329.808 198.358 330.153 198.684C330.499 199.011 330.928 199.174 331.441 199.174C331.899 199.174 332.277 199.062 332.575 198.838C332.883 198.614 333.079 198.311 333.163 197.928H335.249C335.147 198.47 334.927 198.955 334.591 199.384C334.255 199.814 333.821 200.15 333.289 200.392C332.767 200.635 332.183 200.756 331.539 200.756C330.783 200.756 330.111 200.598 329.523 200.28C328.935 199.954 328.478 199.492 328.151 198.894C327.825 198.297 327.661 197.592 327.661 196.78C327.661 195.968 327.825 195.264 328.151 194.666C328.478 194.06 328.935 193.598 329.523 193.28C330.111 192.963 330.783 192.804 331.539 192.804C332.305 192.804 332.972 192.963 333.541 193.28C334.12 193.598 334.563 194.036 334.871 194.596C335.189 195.147 335.347 195.777 335.347 196.486ZM333.359 196.29C333.387 195.656 333.219 195.175 332.855 194.848C332.501 194.522 332.062 194.358 331.539 194.358C331.007 194.358 330.559 194.522 330.195 194.848C329.831 195.175 329.631 195.656 329.593 196.29H333.359Z" fill="#3699FF" />
                    <path d="M105.977 214.986C106.721 214.986 107.317 215.182 107.765 215.574C108.221 215.958 108.497 216.478 108.593 217.134H107.549C107.501 216.742 107.337 216.422 107.057 216.174C106.785 215.918 106.417 215.79 105.953 215.79C105.561 215.79 105.253 215.886 105.029 216.078C104.813 216.262 104.705 216.514 104.705 216.834C104.705 217.074 104.777 217.27 104.921 217.422C105.073 217.566 105.257 217.678 105.473 217.758C105.697 217.83 106.001 217.91 106.385 217.998C106.873 218.11 107.265 218.226 107.561 218.346C107.865 218.458 108.121 218.642 108.329 218.898C108.545 219.154 108.653 219.498 108.653 219.93C108.653 220.466 108.449 220.902 108.041 221.238C107.641 221.574 107.105 221.742 106.433 221.742C105.649 221.742 105.009 221.554 104.513 221.178C104.017 220.802 103.725 220.278 103.637 219.606H104.693C104.733 220.006 104.905 220.33 105.209 220.578C105.521 220.826 105.929 220.95 106.433 220.95C106.809 220.95 107.101 220.854 107.309 220.662C107.525 220.47 107.633 220.218 107.633 219.906C107.633 219.65 107.557 219.446 107.405 219.294C107.253 219.142 107.065 219.026 106.841 218.946C106.617 218.866 106.309 218.782 105.917 218.694C105.429 218.582 105.037 218.47 104.741 218.358C104.453 218.246 104.205 218.07 103.997 217.83C103.797 217.582 103.697 217.25 103.697 216.834C103.697 216.282 103.901 215.838 104.309 215.502C104.717 215.158 105.273 214.986 105.977 214.986ZM115.968 215.07V221.658H114.876V220.11C114.708 220.646 114.408 221.058 113.976 221.346C113.552 221.626 113.056 221.766 112.488 221.766C111.728 221.766 111.112 221.522 110.64 221.034C110.168 220.538 109.932 219.83 109.932 218.91V215.07H111.024V218.802C111.024 219.458 111.192 219.966 111.528 220.326C111.864 220.678 112.32 220.854 112.896 220.854C113.496 220.854 113.976 220.662 114.336 220.278C114.696 219.886 114.876 219.318 114.876 218.574V215.07H115.968ZM121.354 214.986C121.938 214.986 122.458 215.122 122.914 215.394C123.37 215.666 123.726 216.058 123.982 216.57C124.246 217.082 124.378 217.682 124.378 218.37C124.378 219.058 124.246 219.658 123.982 220.17C123.726 220.674 123.37 221.062 122.914 221.334C122.458 221.606 121.938 221.742 121.354 221.742C120.714 221.742 120.17 221.582 119.722 221.262C119.282 220.934 118.978 220.506 118.81 219.978V224.778H117.718V215.07H118.81V216.75C118.978 216.222 119.282 215.798 119.722 215.478C120.17 215.15 120.714 214.986 121.354 214.986ZM121.042 215.958C120.618 215.958 120.234 216.058 119.89 216.258C119.546 216.45 119.278 216.73 119.086 217.098C118.894 217.466 118.798 217.89 118.798 218.37C118.798 218.85 118.894 219.274 119.086 219.642C119.278 220.002 119.546 220.282 119.89 220.482C120.234 220.682 120.618 220.782 121.042 220.782C121.722 220.782 122.262 220.57 122.662 220.146C123.07 219.714 123.274 219.122 123.274 218.37C123.274 217.618 123.07 217.03 122.662 216.606C122.262 216.174 121.722 215.958 121.042 215.958ZM129.44 214.986C130.024 214.986 130.544 215.122 131 215.394C131.456 215.666 131.812 216.058 132.068 216.57C132.332 217.082 132.464 217.682 132.464 218.37C132.464 219.058 132.332 219.658 132.068 220.17C131.812 220.674 131.456 221.062 131 221.334C130.544 221.606 130.024 221.742 129.44 221.742C128.8 221.742 128.256 221.582 127.808 221.262C127.368 220.934 127.064 220.506 126.896 219.978V224.778H125.804V215.07H126.896V216.75C127.064 216.222 127.368 215.798 127.808 215.478C128.256 215.15 128.8 214.986 129.44 214.986ZM129.128 215.958C128.704 215.958 128.32 216.058 127.976 216.258C127.632 216.45 127.364 216.73 127.172 217.098C126.98 217.466 126.884 217.89 126.884 218.37C126.884 218.85 126.98 219.274 127.172 219.642C127.364 220.002 127.632 220.282 127.976 220.482C128.32 220.682 128.704 220.782 129.128 220.782C129.808 220.782 130.348 220.57 130.748 220.146C131.156 219.714 131.36 219.122 131.36 218.37C131.36 217.618 131.156 217.03 130.748 216.606C130.348 216.174 129.808 215.958 129.128 215.958ZM136.878 214.986C137.51 214.986 138.074 215.122 138.57 215.394C139.074 215.666 139.466 216.058 139.746 216.57C140.034 217.082 140.178 217.682 140.178 218.37C140.178 219.058 140.034 219.658 139.746 220.17C139.466 220.674 139.074 221.062 138.57 221.334C138.074 221.606 137.51 221.742 136.878 221.742C136.246 221.742 135.678 221.606 135.174 221.334C134.678 221.062 134.286 220.674 133.998 220.17C133.71 219.658 133.566 219.058 133.566 218.37C133.566 217.682 133.71 217.082 133.998 216.57C134.286 216.058 134.678 215.666 135.174 215.394C135.678 215.122 136.246 214.986 136.878 214.986ZM136.878 215.946C136.486 215.946 136.122 216.034 135.786 216.21C135.458 216.386 135.19 216.658 134.982 217.026C134.782 217.386 134.682 217.834 134.682 218.37C134.682 218.898 134.782 219.346 134.982 219.714C135.19 220.074 135.458 220.342 135.786 220.518C136.122 220.694 136.486 220.782 136.878 220.782C137.27 220.782 137.63 220.694 137.958 220.518C138.294 220.342 138.562 220.074 138.762 219.714C138.97 219.346 139.074 218.898 139.074 218.37C139.074 217.834 138.97 217.386 138.762 217.026C138.562 216.658 138.294 216.386 137.958 216.21C137.63 216.034 137.27 215.946 136.878 215.946ZM142.693 216.402C142.909 215.946 143.225 215.594 143.641 215.346C144.057 215.09 144.553 214.962 145.129 214.962V216.15H144.793C144.177 216.15 143.673 216.31 143.281 216.63C142.889 216.942 142.693 217.462 142.693 218.19V221.658H141.601V215.07H142.693V216.402ZM149.35 220.698V221.658H148.534C147.862 221.658 147.358 221.498 147.022 221.178C146.694 220.858 146.53 220.322 146.53 219.57V216.018H145.546V215.07H146.53V213.426H147.634V215.07H149.338V216.018H147.634V219.594C147.634 220.018 147.71 220.31 147.862 220.47C148.022 220.622 148.294 220.698 148.678 220.698H149.35ZM152.747 214.986C153.491 214.986 154.087 215.182 154.535 215.574C154.991 215.958 155.267 216.478 155.363 217.134H154.319C154.271 216.742 154.107 216.422 153.827 216.174C153.555 215.918 153.187 215.79 152.723 215.79C152.331 215.79 152.023 215.886 151.799 216.078C151.583 216.262 151.475 216.514 151.475 216.834C151.475 217.074 151.547 217.27 151.691 217.422C151.843 217.566 152.027 217.678 152.243 217.758C152.467 217.83 152.771 217.91 153.155 217.998C153.643 218.11 154.035 218.226 154.331 218.346C154.635 218.458 154.891 218.642 155.099 218.898C155.315 219.154 155.423 219.498 155.423 219.93C155.423 220.466 155.219 220.902 154.811 221.238C154.411 221.574 153.875 221.742 153.203 221.742C152.419 221.742 151.779 221.554 151.283 221.178C150.787 220.802 150.495 220.278 150.407 219.606H151.463C151.503 220.006 151.675 220.33 151.979 220.578C152.291 220.826 152.699 220.95 153.203 220.95C153.579 220.95 153.871 220.854 154.079 220.662C154.295 220.47 154.403 220.218 154.403 219.906C154.403 219.65 154.327 219.446 154.175 219.294C154.023 219.142 153.835 219.026 153.611 218.946C153.387 218.866 153.079 218.782 152.687 218.694C152.199 218.582 151.807 218.47 151.511 218.358C151.223 218.246 150.975 218.07 150.767 217.83C150.567 217.582 150.467 217.25 150.467 216.834C150.467 216.282 150.671 215.838 151.079 215.502C151.487 215.158 152.043 214.986 152.747 214.986ZM157.83 215.19V216.474H156.51V215.19H157.83ZM157.83 220.374V221.658H156.51V220.374H157.83ZM166.26 213.198V219.486C166.26 220.182 166.06 220.734 165.66 221.142C165.268 221.542 164.716 221.742 164.004 221.742C163.236 221.742 162.632 221.518 162.192 221.07C161.76 220.614 161.544 219.978 161.544 219.162H162.636C162.636 219.65 162.744 220.038 162.96 220.326C163.176 220.606 163.508 220.746 163.956 220.746C164.38 220.746 164.688 220.626 164.88 220.386C165.072 220.146 165.168 219.846 165.168 219.486V213.198H166.26ZM169.048 218.25V221.658H167.956V213.198H170.644C171.612 213.198 172.336 213.426 172.816 213.882C173.296 214.33 173.536 214.946 173.536 215.73C173.536 216.522 173.288 217.142 172.792 217.59C172.296 218.03 171.58 218.25 170.644 218.25H169.048ZM170.548 217.338C171.212 217.338 171.688 217.198 171.976 216.918C172.272 216.638 172.42 216.242 172.42 215.73C172.42 215.202 172.272 214.802 171.976 214.53C171.688 214.25 171.212 214.11 170.548 214.11H169.048V217.338H170.548ZM175.904 214.086V216.978H179.12V217.818H175.904V220.77H179.48V221.658H174.812V213.198H179.48V214.086H175.904ZM184.722 213.114C185.706 213.114 186.53 213.358 187.194 213.846C187.866 214.334 188.318 214.998 188.55 215.838H187.398C187.198 215.326 186.862 214.914 186.39 214.602C185.926 214.29 185.374 214.134 184.734 214.134C184.158 214.134 183.642 214.27 183.186 214.542C182.73 214.806 182.37 215.186 182.106 215.682C181.85 216.178 181.722 216.762 181.722 217.434C181.722 218.122 181.854 218.718 182.118 219.222C182.382 219.718 182.746 220.102 183.21 220.374C183.682 220.638 184.222 220.77 184.83 220.77C185.35 220.77 185.826 220.658 186.258 220.434C186.69 220.21 187.042 219.886 187.314 219.462C187.594 219.03 187.762 218.526 187.818 217.95H184.494V217.134H188.742V218.142C188.67 218.814 188.462 219.422 188.118 219.966C187.774 220.51 187.31 220.942 186.726 221.262C186.142 221.582 185.478 221.742 184.734 221.742C183.918 221.742 183.198 221.562 182.574 221.202C181.95 220.834 181.462 220.326 181.11 219.678C180.766 219.022 180.594 218.274 180.594 217.434C180.594 216.594 180.766 215.85 181.11 215.202C181.462 214.546 181.95 214.034 182.574 213.666C183.198 213.298 183.914 213.114 184.722 213.114ZM190.858 220.854C190.97 221.206 191.026 221.534 191.026 221.838C191.026 222.254 190.922 222.586 190.714 222.834C190.506 223.09 190.194 223.218 189.778 223.218V222.75C189.978 222.75 190.122 222.694 190.21 222.582C190.306 222.478 190.354 222.31 190.354 222.078V221.97H189.742V220.854H190.858ZM196.376 218.25V221.658H195.284V213.198H197.972C198.94 213.198 199.664 213.426 200.144 213.882C200.624 214.33 200.864 214.946 200.864 215.73C200.864 216.522 200.616 217.142 200.12 217.59C199.624 218.03 198.908 218.25 197.972 218.25H196.376ZM197.876 217.338C198.54 217.338 199.016 217.198 199.304 216.918C199.6 216.638 199.748 216.242 199.748 215.73C199.748 215.202 199.6 214.802 199.304 214.53C199.016 214.25 198.54 214.11 197.876 214.11H196.376V217.338H197.876ZM208.716 221.658H207.624L203.232 214.974V221.658H202.14V213.198H203.232L207.624 219.894V213.198H208.716V221.658ZM214.312 213.114C215.296 213.114 216.12 213.358 216.784 213.846C217.456 214.334 217.908 214.998 218.14 215.838H216.988C216.788 215.326 216.452 214.914 215.98 214.602C215.516 214.29 214.964 214.134 214.324 214.134C213.748 214.134 213.232 214.27 212.776 214.542C212.32 214.806 211.96 215.186 211.696 215.682C211.44 216.178 211.312 216.762 211.312 217.434C211.312 218.122 211.444 218.718 211.708 219.222C211.972 219.718 212.336 220.102 212.8 220.374C213.272 220.638 213.812 220.77 214.42 220.77C214.94 220.77 215.416 220.658 215.848 220.434C216.28 220.21 216.632 219.886 216.904 219.462C217.184 219.03 217.352 218.526 217.408 217.95H214.084V217.134H218.332V218.142C218.26 218.814 218.052 219.422 217.708 219.966C217.364 220.51 216.9 220.942 216.316 221.262C215.732 221.582 215.068 221.742 214.324 221.742C213.508 221.742 212.788 221.562 212.164 221.202C211.54 220.834 211.052 220.326 210.7 219.678C210.356 219.022 210.184 218.274 210.184 217.434C210.184 216.594 210.356 215.85 210.7 215.202C211.052 214.546 211.54 214.034 212.164 213.666C212.788 213.298 213.504 213.114 214.312 213.114ZM220.448 220.854C220.56 221.206 220.616 221.534 220.616 221.838C220.616 222.254 220.512 222.586 220.304 222.834C220.096 223.09 219.784 223.218 219.368 223.218V222.75C219.568 222.75 219.712 222.694 219.8 222.582C219.896 222.478 219.944 222.31 219.944 222.078V221.97H219.332V220.854H220.448ZM225.966 218.25V221.658H224.874V213.198H227.562C228.53 213.198 229.254 213.426 229.734 213.882C230.214 214.33 230.454 214.946 230.454 215.73C230.454 216.522 230.206 217.142 229.71 217.59C229.214 218.03 228.498 218.25 227.562 218.25H225.966ZM227.466 217.338C228.13 217.338 228.606 217.198 228.894 216.918C229.19 216.638 229.338 216.242 229.338 215.73C229.338 215.202 229.19 214.802 228.894 214.53C228.606 214.25 228.13 214.11 227.466 214.11H225.966V217.338H227.466ZM238.858 217.422C238.858 218.278 238.686 219.026 238.342 219.666C237.998 220.298 237.49 220.79 236.818 221.142C236.154 221.486 235.354 221.658 234.418 221.658H231.73V213.198H234.418C235.354 213.198 236.154 213.37 236.818 213.714C237.49 214.05 237.998 214.538 238.342 215.178C238.686 215.81 238.858 216.558 238.858 217.422ZM234.334 220.674C235.438 220.674 236.282 220.39 236.866 219.822C237.45 219.254 237.742 218.454 237.742 217.422C237.742 216.39 237.45 215.59 236.866 215.022C236.29 214.446 235.446 214.158 234.334 214.158H232.822V220.674H234.334ZM245.119 213.198V214.086H241.423V217.014H244.555V217.866H241.423V221.658H240.331V213.198H245.119ZM252.846 214.962C253.614 214.962 254.234 215.21 254.706 215.706C255.178 216.194 255.414 216.902 255.414 217.83V221.658H254.322V217.926C254.322 217.27 254.154 216.766 253.818 216.414C253.482 216.062 253.026 215.886 252.45 215.886C251.85 215.886 251.37 216.082 251.01 216.474C250.65 216.858 250.47 217.422 250.47 218.166V221.658H249.378V215.07H250.47V216.63C250.638 216.094 250.934 215.682 251.358 215.394C251.79 215.106 252.286 214.962 252.846 214.962ZM260.077 214.986C260.709 214.986 261.273 215.122 261.769 215.394C262.273 215.666 262.665 216.058 262.945 216.57C263.233 217.082 263.377 217.682 263.377 218.37C263.377 219.058 263.233 219.658 262.945 220.17C262.665 220.674 262.273 221.062 261.769 221.334C261.273 221.606 260.709 221.742 260.077 221.742C259.445 221.742 258.877 221.606 258.373 221.334C257.877 221.062 257.485 220.674 257.197 220.17C256.909 219.658 256.765 219.058 256.765 218.37C256.765 217.682 256.909 217.082 257.197 216.57C257.485 216.058 257.877 215.666 258.373 215.394C258.877 215.122 259.445 214.986 260.077 214.986ZM260.077 215.946C259.685 215.946 259.321 216.034 258.985 216.21C258.657 216.386 258.389 216.658 258.181 217.026C257.981 217.386 257.881 217.834 257.881 218.37C257.881 218.898 257.981 219.346 258.181 219.714C258.389 220.074 258.657 220.342 258.985 220.518C259.321 220.694 259.685 220.782 260.077 220.782C260.469 220.782 260.829 220.694 261.157 220.518C261.493 220.342 261.761 220.074 261.961 219.714C262.169 219.346 262.273 218.898 262.273 218.37C262.273 217.834 262.169 217.386 261.961 217.026C261.761 216.658 261.493 216.386 261.157 216.21C260.829 216.034 260.469 215.946 260.077 215.946ZM267.944 220.698V221.658H267.128C266.456 221.658 265.952 221.498 265.616 221.178C265.288 220.858 265.124 220.322 265.124 219.57V216.018H264.14V215.07H265.124V213.426H266.228V215.07H267.932V216.018H266.228V219.594C266.228 220.018 266.304 220.31 266.456 220.47C266.616 220.622 266.888 220.698 267.272 220.698H267.944ZM280.341 214.962C281.109 214.962 281.725 215.21 282.189 215.706C282.661 216.194 282.897 216.902 282.897 217.83V221.658H281.805V217.926C281.805 217.278 281.645 216.782 281.325 216.438C281.013 216.094 280.581 215.922 280.029 215.922C279.453 215.922 278.989 216.114 278.637 216.498C278.293 216.874 278.121 217.43 278.121 218.166V221.658H277.029V217.926C277.029 217.278 276.869 216.782 276.549 216.438C276.229 216.094 275.797 215.922 275.253 215.922C274.669 215.922 274.201 216.114 273.849 216.498C273.505 216.874 273.333 217.43 273.333 218.166V221.658H272.241V215.07H273.333V216.57C273.493 216.05 273.777 215.654 274.185 215.382C274.601 215.102 275.077 214.962 275.613 214.962C276.173 214.962 276.657 215.106 277.065 215.394C277.481 215.674 277.777 216.09 277.953 216.642C278.137 216.106 278.445 215.694 278.877 215.406C279.309 215.11 279.797 214.962 280.341 214.962ZM287.581 214.986C288.213 214.986 288.777 215.122 289.273 215.394C289.777 215.666 290.169 216.058 290.449 216.57C290.737 217.082 290.881 217.682 290.881 218.37C290.881 219.058 290.737 219.658 290.449 220.17C290.169 220.674 289.777 221.062 289.273 221.334C288.777 221.606 288.213 221.742 287.581 221.742C286.949 221.742 286.381 221.606 285.877 221.334C285.381 221.062 284.989 220.674 284.701 220.17C284.413 219.658 284.269 219.058 284.269 218.37C284.269 217.682 284.413 217.082 284.701 216.57C284.989 216.058 285.381 215.666 285.877 215.394C286.381 215.122 286.949 214.986 287.581 214.986ZM287.581 215.946C287.189 215.946 286.825 216.034 286.489 216.21C286.161 216.386 285.893 216.658 285.685 217.026C285.485 217.386 285.385 217.834 285.385 218.37C285.385 218.898 285.485 219.346 285.685 219.714C285.893 220.074 286.161 220.342 286.489 220.518C286.825 220.694 287.189 220.782 287.581 220.782C287.973 220.782 288.333 220.694 288.661 220.518C288.997 220.342 289.265 220.074 289.465 219.714C289.673 219.346 289.777 218.898 289.777 218.37C289.777 217.834 289.673 217.386 289.465 217.026C289.265 216.658 288.997 216.386 288.661 216.21C288.333 216.034 287.973 215.946 287.581 215.946ZM293.396 216.402C293.612 215.946 293.928 215.594 294.344 215.346C294.76 215.09 295.256 214.962 295.832 214.962V216.15H295.496C294.88 216.15 294.376 216.31 293.984 216.63C293.592 216.942 293.396 217.462 293.396 218.19V221.658H292.304V215.07H293.396V216.402ZM302.969 217.998C302.969 218.23 302.953 218.43 302.921 218.598H297.653C297.677 219.35 297.889 219.914 298.289 220.29C298.697 220.666 299.193 220.854 299.777 220.854C300.305 220.854 300.745 220.722 301.097 220.458C301.457 220.186 301.677 219.826 301.757 219.378H302.921C302.841 219.834 302.661 220.242 302.381 220.602C302.109 220.962 301.753 221.242 301.313 221.442C300.873 221.642 300.377 221.742 299.825 221.742C299.193 221.742 298.633 221.606 298.145 221.334C297.657 221.062 297.273 220.674 296.993 220.17C296.721 219.658 296.585 219.058 296.585 218.37C296.585 217.682 296.721 217.082 296.993 216.57C297.273 216.058 297.657 215.666 298.145 215.394C298.633 215.122 299.193 214.986 299.825 214.986C300.465 214.986 301.021 215.122 301.493 215.394C301.973 215.666 302.337 216.03 302.585 216.486C302.841 216.942 302.969 217.446 302.969 217.998ZM301.865 218.07C301.889 217.582 301.809 217.174 301.625 216.846C301.441 216.518 301.189 216.274 300.869 216.114C300.549 215.954 300.201 215.874 299.825 215.874C299.225 215.874 298.721 216.062 298.313 216.438C297.905 216.806 297.685 217.35 297.653 218.07H301.865ZM310.506 220.698V221.658H309.69C309.018 221.658 308.514 221.498 308.178 221.178C307.85 220.858 307.686 220.322 307.686 219.57V216.018H306.702V215.07H307.686V213.426H308.79V215.07H310.494V216.018H308.79V219.594C308.79 220.018 308.866 220.31 309.018 220.47C309.178 220.622 309.45 220.698 309.834 220.698H310.506ZM315.307 214.962C316.075 214.962 316.695 215.21 317.167 215.706C317.639 216.194 317.875 216.902 317.875 217.83V221.658H316.783V217.926C316.783 217.27 316.615 216.766 316.279 216.414C315.943 216.062 315.487 215.886 314.911 215.886C314.311 215.886 313.831 216.082 313.471 216.474C313.111 216.858 312.931 217.422 312.931 218.166V221.658H311.839V212.778H312.931V216.63C313.099 216.094 313.395 215.682 313.819 215.394C314.251 215.106 314.747 214.962 315.307 214.962ZM322.25 214.986C322.89 214.986 323.43 215.146 323.87 215.466C324.318 215.786 324.63 216.214 324.806 216.75V215.07H325.898V221.658H324.806V219.978C324.63 220.514 324.318 220.942 323.87 221.262C323.43 221.582 322.89 221.742 322.25 221.742C321.666 221.742 321.146 221.606 320.69 221.334C320.234 221.062 319.874 220.674 319.61 220.17C319.354 219.658 319.226 219.058 319.226 218.37C319.226 217.682 319.354 217.082 319.61 216.57C319.874 216.058 320.234 215.666 320.69 215.394C321.146 215.122 321.666 214.986 322.25 214.986ZM322.562 215.958C321.89 215.958 321.35 216.174 320.942 216.606C320.542 217.03 320.342 217.618 320.342 218.37C320.342 219.122 320.542 219.714 320.942 220.146C321.35 220.57 321.89 220.782 322.562 220.782C322.994 220.782 323.378 220.682 323.714 220.482C324.058 220.282 324.326 220.002 324.518 219.642C324.71 219.274 324.806 218.85 324.806 218.37C324.806 217.89 324.71 217.466 324.518 217.098C324.326 216.73 324.058 216.45 323.714 216.258C323.378 216.058 322.994 215.958 322.562 215.958ZM331.104 214.962C331.872 214.962 332.492 215.21 332.964 215.706C333.436 216.194 333.672 216.902 333.672 217.83V221.658H332.58V217.926C332.58 217.27 332.412 216.766 332.076 216.414C331.74 216.062 331.284 215.886 330.708 215.886C330.108 215.886 329.628 216.082 329.268 216.474C328.908 216.858 328.728 217.422 328.728 218.166V221.658H327.636V215.07H328.728V216.63C328.896 216.094 329.192 215.682 329.616 215.394C330.048 215.106 330.544 214.962 331.104 214.962ZM341.024 212.97C341.568 212.97 342.036 213.066 342.428 213.258C342.82 213.45 343.116 213.714 343.316 214.05C343.516 214.386 343.616 214.766 343.616 215.19C343.616 215.718 343.46 216.162 343.148 216.522C342.844 216.882 342.396 217.098 341.804 217.17V217.242C342.42 217.402 342.9 217.65 343.244 217.986C343.596 218.322 343.772 218.786 343.772 219.378C343.772 220.074 343.54 220.642 343.076 221.082C342.612 221.522 341.944 221.742 341.072 221.742C340.2 221.742 339.492 221.518 338.948 221.07C338.412 220.614 338.096 219.95 338 219.078H339.08C339.152 219.606 339.352 220.026 339.68 220.338C340.016 220.65 340.468 220.806 341.036 220.806C341.572 220.806 341.984 220.67 342.272 220.398C342.56 220.118 342.704 219.758 342.704 219.318C342.704 218.79 342.496 218.39 342.08 218.118C341.672 217.838 341.088 217.698 340.328 217.698H340.04V216.786H340.328C341.8 216.786 342.536 216.294 342.536 215.31C342.536 214.878 342.4 214.534 342.128 214.278C341.856 214.022 341.48 213.894 341 213.894C340.52 213.894 340.116 214.034 339.788 214.314C339.46 214.586 339.268 214.99 339.212 215.526H338.144C338.2 214.726 338.476 214.102 338.972 213.654C339.476 213.198 340.16 212.97 341.024 212.97ZM353.85 213.342V221.658H352.758V215.022L350.106 221.658H349.134L346.47 215.046V221.658H345.378V213.342H346.686L349.638 220.326L352.542 213.342H353.85ZM359.725 217.278C360.245 217.39 360.665 217.638 360.985 218.022C361.313 218.406 361.477 218.858 361.477 219.378C361.477 220.066 361.241 220.618 360.769 221.034C360.305 221.45 359.629 221.658 358.741 221.658H355.597V213.198H358.693C359.541 213.198 360.185 213.386 360.625 213.762C361.065 214.138 361.285 214.654 361.285 215.31C361.285 215.854 361.137 216.294 360.841 216.63C360.553 216.966 360.181 217.182 359.725 217.278ZM356.689 216.906H358.513C359.049 216.906 359.457 216.782 359.737 216.534C360.025 216.286 360.169 215.938 360.169 215.49C360.169 215.058 360.029 214.718 359.749 214.47C359.469 214.222 359.041 214.098 358.465 214.098H356.689V216.906ZM358.537 220.746C359.113 220.746 359.557 220.614 359.869 220.35C360.189 220.086 360.349 219.714 360.349 219.234C360.349 218.762 360.185 218.394 359.857 218.13C359.537 217.858 359.089 217.722 358.513 217.722H356.689V220.746H358.537Z" fill="#BAC3D2" />
                  </svg>