<svg width="132" height="24" viewBox="0 0 132 24" fill="none" xmlns="http://www.w3.org/2000/svg">
<path d="M27.2575 0V20.0784C27.2575 22.2745 25.5731 24 23.4292 24H17.7633V15.6863C17.7633 14.5882 16.8445 13.8039 15.9258 13.8039H9.4942V24.1569H3.82831C1.68445 24.1569 0 22.4314 0 20.2353V3.92157C0 1.72549 1.68445 0 3.82831 0H27.2575Z" fill="white"/>
<path d="M15.7725 11.6072H11.4848C10.4129 11.6072 9.64722 10.666 9.64722 9.72481V6.43069C9.64722 5.33265 10.566 4.54834 11.4848 4.54834H17.7632V9.88167C17.7632 10.8229 16.8444 11.6072 15.7725 11.6072Z" fill="#27AAE1"/>
<path d="M41.4989 17.0985V20.3927H32.1578V8.62796C32.1578 7.52992 33.0766 6.74561 33.9954 6.74561H36.1392V17.0985H41.4989Z" fill="white"/>
<path d="M49.4615 16.7844C49.3084 17.0981 49.1552 17.4119 48.849 17.5687C48.6958 17.7256 48.3896 17.7256 47.9302 17.7256C47.3176 17.7256 47.0114 17.4119 46.7051 16.9413C46.552 16.6276 46.3988 16.157 46.3988 15.6864H53.2898V14.9021C53.2898 13.6472 53.1367 12.706 52.6773 11.7648C52.2179 10.8236 51.6053 10.1962 50.8397 9.72559C50.074 9.41187 49.0021 9.09814 47.9302 9.09814C46.8582 9.09814 45.9395 9.25501 45.0207 9.72559C44.255 10.1962 43.4893 10.8236 43.1831 11.7648C42.7237 12.706 42.5705 13.6472 42.5705 14.9021C42.5705 16.157 42.7237 17.0981 43.1831 18.0393C43.6425 18.9805 44.255 19.6079 45.1738 20.0785C45.9395 20.5491 47.0114 20.8629 48.0833 20.8629C49.4615 20.8629 50.6866 20.5491 51.6053 19.7648C52.5241 19.1374 53.1367 18.0393 53.4429 16.7844H49.4615ZM46.7051 12.8628C47.0114 12.3923 47.3176 12.0785 47.9302 12.0785C48.3896 12.0785 48.849 12.3923 49.1552 12.8628C49.3084 13.1766 49.4615 13.3334 49.4615 13.804H46.552C46.552 13.3334 46.7051 13.0197 46.7051 12.8628Z" fill="white"/>
<path d="M64.9279 19.4511C64.9279 18.9805 64.7748 18.5099 64.7748 17.7256V13.4903C64.7748 12.706 64.6216 11.9217 64.1622 11.2942C63.856 10.6668 63.2434 10.0393 62.4778 9.72559C61.7121 9.41187 60.7933 9.09814 59.8745 9.09814C58.9557 9.09814 58.1901 9.25501 57.4244 9.56873C56.6588 9.88246 56.0462 10.353 55.5868 10.9805C55.1274 11.6079 54.8212 12.2354 54.668 13.1766H58.4963C58.4963 12.8628 58.6495 12.706 58.8026 12.5491C58.9557 12.3923 59.262 12.2354 59.5683 12.2354C59.8745 12.2354 60.1808 12.3923 60.4871 12.5491C60.6402 12.706 60.7933 13.0197 60.7933 13.4903V13.804C60.1808 13.804 59.5683 13.804 58.9557 13.9609C58.1901 13.9609 57.5776 14.2746 56.8119 14.4315C55.8931 14.7452 55.2806 15.2158 54.8212 15.6864C54.3618 16.3138 54.2086 16.9413 54.2086 17.5687C54.2086 18.1962 54.3618 18.8236 54.668 19.2942C54.9743 19.7648 55.4337 20.0785 55.8931 20.3923C56.3525 20.5491 56.965 20.706 57.5776 20.706C58.0369 20.706 58.6495 20.5491 59.1089 20.3923C59.5683 20.2354 60.0277 19.9217 60.3339 19.6079C60.4871 19.4511 60.6402 19.2942 60.7933 19.1374V19.2942C60.7933 19.7648 60.7933 20.0785 60.9465 20.3923H64.7748C65.081 20.0785 64.9279 19.7648 64.9279 19.4511ZM60.9465 17.255C60.9465 17.7256 60.4871 18.1962 60.0277 18.1962H59.1089C58.9557 18.1962 58.8026 18.1962 58.6495 18.0393C58.6495 18.0393 58.4963 18.0393 58.4963 17.8825C58.3432 17.7256 58.3432 17.7256 58.1901 17.5687C58.1901 17.4119 58.1901 17.255 58.1901 17.255V16.7844C58.1901 16.3138 58.6495 15.8432 59.1089 15.8432H60.9465V17.255Z" fill="white"/>
<path d="M73.197 5.96094V10.51C72.5845 9.56878 71.8188 9.25506 70.7469 9.25506C69.3687 9.25506 68.2968 9.72564 67.5311 10.8237C66.7655 11.9217 66.3061 13.3335 66.3061 15.2158C66.3061 16.4707 66.4592 17.4119 66.9186 18.3531C67.2249 19.2943 67.8374 19.9217 68.4499 20.3923C69.0624 20.8629 69.8281 21.0198 70.7469 21.1766C71.3594 21.1766 71.972 21.0198 72.4314 20.706C72.7376 20.3923 73.0439 20.2354 73.3501 19.7649V20.3923H77.1785V5.96094H73.197ZM72.7376 16.9413C72.4314 17.4119 72.1251 17.5688 71.6657 17.5688C71.2063 17.5688 70.7469 17.2551 70.5938 16.9413C70.2875 16.4707 70.1344 15.8433 70.1344 14.9021C70.1344 13.9609 70.2875 13.3335 70.5938 12.8629C70.9 12.3923 71.2063 12.2354 71.6657 12.2354C72.1251 12.2354 72.5845 12.3923 72.7376 12.8629C73.0439 13.3335 73.197 13.9609 73.197 14.9021C73.197 15.8433 73.0439 16.4707 72.7376 16.9413Z" fill="white"/>
<path d="M88.6638 16.942C88.6638 17.7263 88.5107 18.3538 88.0513 18.9812C87.5919 19.6087 86.9794 20.0793 86.3668 20.393C85.6012 20.7067 84.8355 20.8636 83.7636 20.8636C82.3854 20.8636 81.1604 20.5499 80.2416 19.9224C79.3228 19.295 78.7102 18.3538 78.5571 16.942H82.3854C82.3854 17.2557 82.5385 17.5695 82.8448 17.7263C83.1511 17.8832 83.4573 18.04 83.9167 18.04C84.223 18.04 84.5293 18.04 84.6824 17.8832C84.8355 17.7263 84.9887 17.5695 84.9887 17.4126C84.9887 17.2557 84.8355 16.942 84.6824 16.942C84.5293 16.7851 84.223 16.7851 83.7636 16.6283C83.4573 16.6283 82.9979 16.4714 82.5385 16.4714C82.0791 16.4714 81.6197 16.3146 81.1603 16.1577C80.701 16.0008 80.3947 15.844 79.9353 15.6871C79.629 15.5302 79.3228 15.2165 79.0165 14.7459C78.8634 14.2753 78.7102 13.8048 78.7102 13.1773C78.7102 12.5499 78.8634 11.9224 79.1696 11.295C79.4759 10.6675 80.0884 10.1969 80.701 9.88319C81.3135 9.56946 82.2323 9.4126 83.1511 9.4126C84.0699 9.4126 84.8355 9.56946 85.6012 9.88319C86.3668 10.1969 86.9794 10.6675 87.4388 11.1381C87.8982 11.7655 88.2044 12.5499 88.2044 13.3342H84.3761C84.3761 13.0204 84.223 12.7067 83.9167 12.5499C83.6105 12.393 83.3042 12.2361 82.9979 12.2361C82.6917 12.2361 82.5385 12.2361 82.3854 12.393C82.2323 12.5499 82.0791 12.7067 82.0791 12.8636C82.0791 13.0204 82.2323 13.3342 82.3854 13.3342C82.6917 13.491 82.8448 13.491 83.3042 13.6479C83.6105 13.6479 84.0699 13.8048 84.5293 13.8048C84.9887 13.8048 85.4481 13.9616 85.9074 14.1185C86.3668 14.2753 86.8262 14.4322 87.1325 14.5891C87.4388 14.7459 87.745 15.0597 88.0513 15.5302C88.5107 15.844 88.6638 16.3146 88.6638 16.942Z" fill="#27AAE1"/>
<path d="M94.1763 12.3921V15.9999C94.1763 16.4705 94.3294 16.7842 94.4825 17.0979C94.6357 17.4117 95.0951 17.5685 95.5545 17.5685H96.3201V20.3921C96.167 20.5489 95.8607 20.5489 95.4013 20.7058C94.9419 20.8626 94.6357 20.8626 94.0232 20.8626C92.7981 20.8626 91.8793 20.5489 91.2668 19.7646C90.6542 18.9803 90.348 18.0391 90.348 16.6273V12.3921H89.1229V9.41166H90.348V6.90186H94.1763V9.41166H96.3201V12.3921H94.1763Z" fill="#27AAE1"/>
<path d="M107.805 19.4511C107.805 18.9805 107.652 18.5099 107.652 17.7256V13.4903C107.652 12.706 107.499 11.9217 107.04 11.2942C106.733 10.6668 106.121 10.0393 105.355 9.72559C104.589 9.41187 103.671 9.09814 102.752 9.09814C101.833 9.09814 101.067 9.25501 100.302 9.56873C99.5361 9.88246 99.0767 10.353 98.6173 10.9805C98.1579 11.6079 97.8516 12.2354 97.6985 13.1766H101.527C101.527 12.8628 101.68 12.706 101.833 12.5491C101.986 12.3923 102.292 12.2354 102.599 12.2354C102.905 12.2354 103.211 12.3923 103.517 12.5491C103.671 12.706 103.824 13.0197 103.824 13.4903V13.804C103.211 13.804 102.599 13.804 101.986 13.9609C101.221 13.9609 100.608 14.2746 99.8423 14.4315C98.9235 14.7452 98.311 15.2158 97.8516 15.6864C97.3922 16.3138 97.2391 16.9413 97.2391 17.5687C97.2391 18.1962 97.3922 18.8236 97.6985 19.2942C98.0047 19.7648 98.4641 20.0785 98.9235 20.3923C99.3829 20.706 99.9955 20.706 100.608 20.706C101.067 20.706 101.68 20.5491 102.139 20.3923C102.599 20.2354 103.058 19.9217 103.364 19.6079C103.517 19.4511 103.671 19.2942 103.824 19.1374C103.824 19.1374 103.824 19.1374 103.824 19.2942C103.824 19.7648 103.824 20.0785 103.977 20.3923H107.805C107.958 20.0785 107.805 19.7648 107.805 19.4511ZM103.824 17.255C103.824 17.7256 103.364 18.1962 102.905 18.1962H101.986C101.527 18.1962 101.067 17.7256 101.067 17.255V16.7844C101.067 16.3138 101.527 15.8432 101.986 15.8432H103.824V17.255Z" fill="#27AAE1"/>
<path d="M119.443 13.4906H115.615C115.615 13.02 115.462 12.5494 115.156 12.3925C115.002 12.2356 114.696 12.0788 114.39 12.0788C113.931 12.0788 113.471 12.2356 113.318 12.7062C113.012 13.1768 113.012 13.8043 113.012 14.7455C113.012 15.6866 113.165 16.3141 113.318 16.7847C113.624 17.2553 113.931 17.4121 114.543 17.4121C114.849 17.4121 115.002 17.2553 115.309 17.0984C115.462 16.9415 115.615 16.6278 115.768 16.3141H119.596C119.443 17.7258 118.831 18.667 117.912 19.4513C116.993 20.0788 115.921 20.5494 114.543 20.5494C113.471 20.5494 112.552 20.2356 111.634 19.7651C110.868 19.2945 110.255 18.667 109.796 17.7258C109.337 16.7847 109.183 15.8435 109.183 14.5886C109.183 13.3337 109.337 12.2356 109.796 11.4513C110.255 10.5102 110.868 9.88271 111.634 9.41212C112.399 8.94153 113.318 8.78467 114.39 8.78467C115.309 8.78467 116.074 8.94153 116.687 9.25526C117.453 9.56898 117.912 10.0396 118.371 10.667C119.137 11.7651 119.443 12.5494 119.443 13.4906Z" fill="#27AAE1"/>
<path d="M132 20.3923H127.406L124.65 15.6864V20.3923H120.822V7.84329C120.822 6.74525 121.74 5.96094 122.659 5.96094H124.497V13.6472L127.406 9.41192H131.694L128.325 14.1178L132 20.3923Z" fill="#27AAE1"/>
</svg>
